<svg xmlns="http://www.w3.org/2000/svg" xmlns:xlink="http://www.w3.org/1999/xlink" width="1920" zoomAndPan="magnify" viewBox="0 0 1440 809.999993" height="1080" preserveAspectRatio="xMidYMid meet" version="1.0"><defs><clipPath id="094fa32153"><path d="M 157 258.300781 L 204 258.300781 L 204 336 L 157 336 Z M 157 258.300781 " clip-rule="nonzero"/></clipPath><clipPath id="5a9a91b1fe"><path d="M 1005 158 L 1439.914062 158 L 1439.914062 296 L 1005 296 Z M 1005 158 " clip-rule="nonzero"/></clipPath></defs><rect x="-144" width="1728" fill="#ffffff" y="-80.999999" height="971.999992" fill-opacity="1"/><rect x="-144" width="1728" fill="#fbfdff" y="-80.999999" height="971.999992" fill-opacity="1"/><path fill="#8c52ff" d="M 302.445312 544.445312 C 301.554688 544.445312 300.660156 544.160156 299.910156 543.589844 C 298.316406 542.371094 297.808594 540.199219 298.699219 538.402344 C 306.902344 521.875 318.53125 497.640625 327.378906 476.039062 C 341.4375 441.714844 339.992188 434.441406 339.507812 433.265625 C 335.699219 431.125 328.289062 429.023438 320.453125 426.800781 C 303.804688 422.078125 284.929688 416.722656 279.292969 405.910156 C 277.328125 402.140625 277.078125 398.066406 278.554688 393.800781 C 282.183594 383.324219 285.613281 375.714844 288.28125 370.527344 L 284.007812 370.527344 C 282.027344 370.527344 280.316406 369.140625 279.910156 367.199219 C 279.507812 365.261719 280.515625 363.304688 282.332031 362.511719 L 317.011719 347.367188 C 318.503906 346.714844 320.242188 346.988281 321.460938 348.070312 L 338.554688 363.214844 C 339.855469 364.367188 340.308594 366.203125 339.691406 367.828125 C 339.078125 369.453125 337.519531 370.527344 335.78125 370.527344 L 327.707031 370.527344 C 323.5 378.429688 321.246094 385.558594 322.160156 388.308594 C 322.292969 388.703125 322.417969 388.777344 322.617188 388.863281 C 324.71875 389.785156 331.433594 390.964844 338.542969 392.214844 C 363.902344 396.667969 395.464844 402.210938 393.898438 418.660156 C 392.257812 435.867188 387.816406 468.152344 387.773438 468.472656 C 387.636719 469.460938 387.15625 470.363281 386.414062 471.027344 L 305.230469 543.382812 C 304.441406 544.089844 303.445312 544.445312 302.445312 544.445312 Z M 344.015625 426.207031 C 352.351562 431.109375 346.980469 449.734375 336.347656 476.1875 C 330.207031 491.464844 322.527344 508.28125 315.484375 523.039062 L 379.695312 465.808594 C 380.59375 459.203125 384.148438 432.765625 385.570312 417.867188 C 385.867188 414.726562 380.5 411.109375 370.847656 407.9375 C 360.648438 404.589844 347.585938 402.292969 337.09375 400.453125 C 327.632812 398.789062 322.140625 397.789062 319.257812 396.523438 C 316.820312 395.457031 315.078125 393.527344 314.21875 390.949219 C 311.851562 383.824219 316.921875 372.515625 321.59375 364.28125 C 322.261719 363.105469 323.453125 362.332031 324.78125 362.1875 L 317.910156 356.101562 L 299.082031 364.324219 C 299.8125 365.648438 299.769531 367.265625 298.972656 368.550781 C 297.054688 371.636719 291.996094 380.542969 286.460938 396.535156 C 285.746094 398.597656 285.824219 400.347656 286.707031 402.042969 C 290.679688 409.65625 309.207031 414.914062 322.734375 418.753906 C 331.660156 421.285156 339.363281 423.46875 344.011719 426.207031 Z M 339.773438 433.414062 L 339.78125 433.414062 Z M 339.773438 433.414062 " fill-opacity="1" fill-rule="nonzero"/><path fill="#8c52ff" d="M 418.082031 563.988281 C 416.878906 563.988281 415.695312 563.46875 414.878906 562.496094 C 413.597656 560.972656 413.570312 558.761719 414.808594 557.203125 L 476.519531 479.566406 C 477.164062 478.75 478.097656 478.203125 479.125 478.039062 C 509.707031 473.097656 566.234375 465.835938 601.21875 472.722656 C 628.742188 478.144531 650.734375 472.5 664.5625 466.636719 L 658.808594 464.285156 C 657.015625 463.550781 655.960938 461.6875 656.253906 459.773438 C 656.550781 457.863281 658.121094 456.402344 660.046875 456.242188 L 709.203125 452.214844 C 711.269531 452.039062 713.164062 453.425781 713.625 455.457031 L 719.667969 482.046875 C 720.015625 483.570312 719.484375 485.15625 718.292969 486.167969 C 717.105469 487.175781 715.453125 487.4375 714.007812 486.847656 L 698.90625 480.675781 C 657.996094 511.953125 618.402344 508.019531 580.089844 504.214844 C 576.019531 503.8125 571.8125 503.394531 567.722656 503.035156 C 547.257812 501.234375 494.828125 522.703125 420.085938 563.476562 C 419.453125 563.820312 418.765625 563.984375 418.085938 563.984375 Z M 482.054688 486.039062 L 433.996094 546.5 C 484.609375 519.726562 543.191406 492.492188 568.449219 494.703125 C 572.589844 495.066406 576.824219 495.484375 580.917969 495.890625 C 618.175781 499.59375 656.707031 503.421875 695.652344 472.609375 C 696.835938 471.671875 698.433594 471.445312 699.828125 472.015625 L 709.726562 476.0625 L 706.269531 460.847656 L 677.628906 463.195312 C 678.445312 463.925781 678.964844 464.960938 679.023438 466.09375 C 679.113281 467.707031 678.265625 469.226562 676.847656 469.996094 C 663.664062 477.167969 636.101562 488.121094 599.601562 480.933594 C 566.488281 474.410156 512.417969 481.199219 482.058594 486.039062 Z M 482.054688 486.039062 " fill-opacity="1" fill-rule="nonzero"/><path fill="#8c52ff" d="M 125.136719 444.191406 C 108.601562 444.191406 95.144531 430.738281 95.144531 414.199219 C 95.144531 397.664062 108.601562 384.207031 125.136719 384.207031 C 141.675781 384.207031 155.128906 397.664062 155.128906 414.199219 C 155.128906 430.738281 141.675781 444.191406 125.136719 444.191406 Z M 125.136719 392.574219 C 113.214844 392.574219 103.511719 402.277344 103.511719 414.199219 C 103.511719 426.125 113.210938 435.828125 125.136719 435.828125 C 137.0625 435.828125 146.761719 426.125 146.761719 414.199219 C 146.761719 402.277344 137.0625 392.574219 125.136719 392.574219 Z M 125.136719 392.574219 " fill-opacity="1" fill-rule="nonzero"/><path fill="#8c52ff" d="M 184.09375 778.179688 C 178.804688 778.179688 173.851562 776.105469 170.140625 772.339844 C 166.429688 768.574219 164.429688 763.585938 164.507812 758.300781 L 165.519531 689.933594 C 165.625 682.785156 164.785156 675.648438 163.015625 668.71875 L 154.140625 633.929688 L 144.941406 698.859375 C 144.914062 699.039062 144.878906 699.214844 144.828125 699.390625 L 126.859375 764.308594 C 124.601562 772.472656 117.101562 778.179688 108.628906 778.179688 C 103.246094 778.179688 98.101562 775.875 94.515625 771.859375 C 90.929688 767.839844 89.222656 762.46875 89.832031 757.121094 L 110.351562 577.058594 C 110.585938 575 112.289062 573.425781 114.359375 573.351562 L 202.292969 570.242188 C 204.53125 570.167969 206.441406 571.867188 206.613281 574.101562 L 211.792969 641.714844 C 212.332031 648.746094 212.308594 655.875 211.722656 662.902344 L 203.613281 760.21875 C 202.773438 770.289062 194.199219 778.179688 184.09375 778.179688 Z M 152.96875 608.222656 C 154.871094 608.222656 156.546875 609.511719 157.019531 611.371094 L 171.121094 666.652344 C 173.074219 674.292969 174 682.171875 173.886719 690.058594 L 172.871094 758.425781 C 172.828125 761.453125 173.972656 764.308594 176.097656 766.46875 C 178.226562 768.625 181.0625 769.8125 184.09375 769.8125 C 189.882812 769.8125 194.796875 765.292969 195.277344 759.523438 L 203.386719 662.207031 C 203.933594 655.621094 203.957031 648.941406 203.453125 642.351562 L 198.578125 578.742188 L 118.253906 581.582031 L 98.144531 758.066406 C 97.796875 761.09375 98.726562 764.011719 100.753906 766.289062 C 102.785156 768.5625 105.582031 769.8125 108.628906 769.8125 C 113.355469 769.8125 117.539062 766.632812 118.796875 762.074219 L 136.695312 697.417969 L 148.824219 611.820312 C 149.105469 609.839844 150.746094 608.339844 152.738281 608.230469 C 152.816406 608.226562 152.894531 608.222656 152.96875 608.222656 Z M 152.96875 608.222656 " fill-opacity="1" fill-rule="nonzero"/><path fill="#8c52ff" d="M 4.539062 809.96875 C 2.816406 809.96875 1.269531 808.914062 0.640625 807.304688 C 0.0078125 805.679688 0.449219 803.824219 1.757812 802.664062 L 95.207031 719.371094 C 96.5 718.21875 98.371094 717.980469 99.914062 718.78125 C 101.453125 719.578125 102.339844 721.242188 102.144531 722.96875 L 98.144531 758.066406 C 97.796875 761.09375 98.726562 764.011719 100.757812 766.289062 C 102.785156 768.5625 105.582031 769.8125 108.628906 769.8125 C 113.355469 769.8125 117.539062 766.632812 118.796875 762.074219 L 136.695312 697.417969 L 138.917969 681.734375 C 139.058594 680.757812 139.539062 679.859375 140.277344 679.199219 L 162.882812 659.050781 C 163.972656 658.082031 165.492188 657.746094 166.886719 658.175781 C 168.28125 658.601562 169.355469 659.726562 169.71875 661.140625 L 171.121094 666.652344 C 173.074219 674.292969 174.003906 682.171875 173.886719 690.058594 L 172.875 758.425781 C 172.828125 761.453125 173.972656 764.308594 176.101562 766.46875 C 178.226562 768.625 181.066406 769.8125 184.09375 769.8125 C 189.882812 769.8125 194.796875 765.292969 195.277344 759.523438 L 203.386719 662.207031 C 203.9375 655.621094 203.957031 648.941406 203.453125 642.351562 L 202.214844 626.199219 C 202.117188 624.898438 202.628906 623.625 203.601562 622.757812 L 563.820312 301.699219 L 554.671875 300.574219 C 552.679688 300.332031 551.140625 298.707031 551.007812 296.707031 C 550.875 294.703125 552.175781 292.890625 554.117188 292.378906 L 619.9375 275.085938 C 621.738281 274.613281 623.636719 275.386719 624.59375 276.984375 L 640.925781 304.371094 C 641.746094 305.742188 641.710938 307.460938 640.839844 308.796875 C 639.96875 310.136719 638.410156 310.859375 636.824219 310.664062 L 622.824219 308.945312 L 228.640625 804.859375 C 227.859375 805.835938 226.683594 806.417969 225.433594 806.4375 L 4.609375 809.96875 C 4.585938 809.96875 4.5625 809.96875 4.539062 809.96875 Z M 92.59375 732.90625 L 15.71875 801.421875 L 223.320312 798.101562 L 617.734375 301.90625 C 618.636719 300.765625 620.070312 300.179688 621.515625 300.355469 L 629.363281 301.320312 L 619.019531 283.972656 L 575.953125 295.289062 C 576.667969 295.808594 577.214844 296.550781 577.488281 297.425781 C 577.976562 298.996094 577.503906 300.703125 576.277344 301.796875 L 210.710938 627.625 L 211.792969 641.710938 C 212.332031 648.746094 212.308594 655.875 211.722656 662.902344 L 203.613281 760.21875 C 202.773438 770.289062 194.199219 778.179688 184.09375 778.179688 C 178.804688 778.179688 173.851562 776.105469 170.140625 772.339844 C 166.429688 768.574219 164.429688 763.585938 164.507812 758.300781 L 165.519531 689.933594 C 165.621094 683.183594 164.875 676.445312 163.304688 669.882812 L 146.984375 684.425781 L 144.941406 698.859375 C 144.914062 699.039062 144.878906 699.214844 144.828125 699.386719 L 126.859375 764.308594 C 124.601562 772.472656 117.101562 778.179688 108.628906 778.179688 C 103.246094 778.179688 98.101562 775.875 94.515625 771.855469 C 90.929688 767.839844 89.222656 762.46875 89.832031 757.117188 Z M 92.59375 732.90625 " fill-opacity="1" fill-rule="nonzero"/><path fill="#8c52ff" d="M 114.503906 581.714844 C 112.316406 581.714844 110.484375 580.019531 110.335938 577.816406 L 108.851562 556.140625 C 108.453125 556.371094 108.042969 556.582031 107.621094 556.777344 C 101.929688 559.398438 95.363281 558.261719 90.890625 553.878906 L 76.046875 539.335938 C 67.429688 530.894531 62.671875 519.140625 62.988281 507.082031 C 63.304688 495.023438 68.671875 483.535156 77.71875 475.558594 L 89.082031 465.539062 C 96.554688 458.945312 105.71875 454.6875 115.578125 453.21875 L 134.425781 450.417969 C 144.558594 448.914062 154.707031 449.503906 164.59375 452.179688 L 180.984375 456.613281 L 189.765625 443.9375 L 165.511719 427.460938 C 160.320312 423.933594 158.117188 417.3125 160.160156 411.359375 C 161.5625 407.261719 164.59375 404.109375 168.472656 402.707031 C 172.476562 401.261719 177 401.789062 180.878906 404.152344 L 218.90625 427.328125 C 223.851562 430.34375 227.347656 435.324219 228.5 441.003906 C 229.65625 446.679688 228.378906 452.632812 225 457.339844 L 201.503906 490.078125 L 206.617188 574.167969 C 206.6875 575.292969 206.296875 576.398438 205.539062 577.234375 C 204.78125 578.070312 203.71875 578.5625 202.589844 578.601562 L 114.65625 581.710938 C 114.605469 581.710938 114.558594 581.714844 114.507812 581.714844 Z M 116.28125 542.1875 L 118.40625 573.207031 L 198.007812 570.394531 L 193.0625 489.101562 C 193.003906 488.140625 193.277344 487.191406 193.839844 486.410156 L 218.203125 452.460938 C 220.257812 449.597656 221.003906 446.121094 220.300781 442.667969 C 219.601562 439.214844 217.558594 436.304688 214.550781 434.472656 L 176.523438 411.296875 C 174.820312 410.257812 172.921875 409.996094 171.3125 410.578125 C 169.808594 411.121094 168.660156 412.363281 168.070312 414.074219 C 167.25 416.46875 168.128906 419.128906 170.210938 420.542969 L 197.957031 439.390625 C 198.878906 440.019531 199.511719 440.988281 199.71875 442.085938 C 199.921875 443.183594 199.679688 444.316406 199.042969 445.230469 L 186.179688 463.804688 C 185.171875 465.261719 183.359375 465.925781 181.648438 465.460938 L 162.40625 460.253906 C 153.640625 457.882812 144.640625 457.355469 135.65625 458.691406 L 116.804688 461.496094 C 108.546875 462.722656 100.875 466.289062 94.613281 471.8125 L 83.25 481.832031 C 75.835938 488.371094 71.609375 497.417969 71.347656 507.300781 C 71.089844 517.183594 74.835938 526.4375 81.898438 533.359375 L 96.742188 547.902344 C 99.753906 550.851562 103.148438 549.625 104.117188 549.179688 C 105.085938 548.734375 108.222656 546.949219 107.933594 542.742188 C 107.933594 542.738281 107.933594 542.734375 107.933594 542.730469 C 107.859375 541.632812 107.503906 540.566406 106.914062 539.644531 C 106.914062 539.644531 93.984375 519.394531 93.984375 519.394531 C 90.789062 514.390625 91.65625 507.859375 96.046875 503.867188 L 105.714844 495.074219 C 106.851562 494.039062 108.464844 493.714844 109.914062 494.21875 C 111.363281 494.726562 112.417969 495.992188 112.660156 497.507812 L 113.617188 503.5 C 113.636719 503.625 113.652344 503.75 113.660156 503.875 L 116.28125 542.171875 Z M 105.460938 506.613281 L 101.675781 510.058594 C 100.308594 511.300781 100.039062 513.335938 101.035156 514.894531 L 106.628906 523.65625 Z M 105.460938 506.613281 " fill-opacity="1" fill-rule="nonzero"/><g clip-path="url(#094fa32153)"><path fill="#8c52ff" d="M 168.980469 335.898438 C 166.738281 335.898438 164.882812 334.125 164.800781 331.867188 C 164.265625 316.949219 174.121094 308.039062 182.816406 300.179688 C 192.746094 291.199219 198.148438 285.625 193.6875 275.53125 C 191.238281 269.996094 187.191406 267.109375 181.660156 266.941406 C 174.675781 266.753906 167.636719 271.125 165.457031 275.355469 C 164.398438 277.410156 161.875 278.214844 159.824219 277.15625 C 157.769531 276.097656 156.964844 273.574219 158.023438 271.523438 C 161.972656 263.855469 172.238281 258.300781 181.910156 258.582031 C 190.683594 258.84375 197.582031 263.660156 201.335938 272.148438 C 208.464844 288.269531 197.816406 297.890625 188.425781 306.382812 C 180.375 313.664062 172.765625 320.542969 173.164062 331.566406 C 173.246094 333.875 171.441406 335.8125 169.132812 335.894531 C 169.082031 335.898438 169.03125 335.898438 168.980469 335.898438 Z M 168.980469 335.898438 " fill-opacity="1" fill-rule="nonzero"/></g><path fill="#8c52ff" d="M 168.707031 351.449219 C 166.398438 351.449219 164.523438 349.578125 164.523438 347.269531 L 164.523438 344.496094 C 164.523438 342.183594 166.398438 340.3125 168.707031 340.3125 C 171.015625 340.3125 172.890625 342.183594 172.890625 344.496094 L 172.890625 347.269531 C 172.890625 349.578125 171.015625 351.449219 168.707031 351.449219 Z M 168.707031 351.449219 " fill-opacity="1" fill-rule="nonzero"/><path fill="#8c52ff" d="M 73.113281 348.746094 C 71.933594 348.746094 70.761719 348.25 69.933594 347.285156 C 60.222656 335.949219 62.378906 322.839844 64.28125 311.273438 C 66.457031 298.0625 67.210938 290.339844 57.425781 285.222656 C 52.066406 282.417969 47.101562 282.679688 42.671875 285.996094 C 37.074219 290.1875 34.308594 298.003906 35.238281 302.671875 C 35.691406 304.9375 34.21875 307.140625 31.953125 307.59375 C 29.6875 308.042969 27.488281 306.574219 27.035156 304.308594 C 25.351562 295.847656 29.917969 285.097656 37.65625 279.300781 C 44.683594 274.039062 53.082031 273.511719 61.304688 277.8125 C 76.921875 285.980469 74.59375 300.140625 72.535156 312.632812 C 70.773438 323.347656 69.109375 333.464844 76.289062 341.839844 C 77.789062 343.59375 77.585938 346.234375 75.832031 347.738281 C 75.042969 348.414062 74.078125 348.746094 73.113281 348.746094 Z M 73.113281 348.746094 " fill-opacity="1" fill-rule="nonzero"/><path fill="#8c52ff" d="M 82.589844 361.082031 C 81.359375 361.082031 80.140625 360.542969 79.3125 359.503906 L 77.585938 357.335938 C 76.144531 355.527344 76.445312 352.898438 78.25 351.457031 C 80.058594 350.019531 82.6875 350.316406 84.128906 352.125 L 85.855469 354.292969 C 87.296875 356.097656 87 358.730469 85.191406 360.167969 C 84.421875 360.78125 83.5 361.082031 82.589844 361.082031 Z M 82.589844 361.082031 " fill-opacity="1" fill-rule="nonzero"/><path fill="#7ed957" d="M 1025.914062 717.332031 C 1024.410156 717.332031 1022.894531 717.136719 1021.378906 716.707031 L 968.796875 702.066406 C 964.382812 700.835938 960.726562 697.960938 958.5 693.964844 C 956.273438 689.96875 955.746094 685.351562 957.007812 680.960938 L 997.648438 540.011719 C 1000.230469 531.078125 1009.601562 525.839844 1018.570312 528.332031 L 1071.152344 542.972656 C 1075.566406 544.203125 1079.222656 547.078125 1081.449219 551.074219 C 1083.675781 555.070312 1084.214844 559.691406 1082.941406 564.089844 L 1042.300781 705.039062 C 1040.148438 712.449219 1033.300781 717.332031 1025.914062 717.332031 Z M 1024.320312 706.136719 C 1027.503906 707.027344 1030.828125 705.160156 1031.75 701.988281 L 1072.394531 561.039062 C 1072.84375 559.480469 1072.65625 557.835938 1071.867188 556.417969 C 1071.078125 555.003906 1069.78125 553.984375 1068.210938 553.542969 L 1015.617188 538.902344 C 1012.433594 538.011719 1009.109375 539.878906 1008.1875 543.050781 L 967.542969 684 C 967.09375 685.558594 967.28125 687.203125 968.070312 688.621094 C 968.859375 690.035156 970.15625 691.058594 971.726562 691.496094 Z M 1024.320312 706.136719 " fill-opacity="1" fill-rule="nonzero"/><path fill="#7ed957" d="M 1032.882812 596.085938 C 1031.226562 596.085938 1029.554688 595.855469 1027.921875 595.40625 C 1023.179688 594.085938 1019.238281 591.003906 1016.824219 586.722656 C 1014.410156 582.441406 1013.804688 577.472656 1015.125 572.738281 C 1017.84375 562.960938 1028.019531 557.222656 1037.800781 559.941406 C 1047.578125 562.664062 1053.320312 572.839844 1050.597656 582.617188 C 1049.28125 587.359375 1046.195312 591.300781 1041.914062 593.714844 C 1039.105469 595.285156 1036.011719 596.085938 1032.882812 596.085938 Z M 1032.839844 570.238281 C 1031.574219 570.238281 1030.324219 570.566406 1029.195312 571.203125 C 1027.460938 572.179688 1026.21875 573.773438 1025.683594 575.683594 C 1024.585938 579.632812 1026.898438 583.738281 1030.851562 584.835938 C 1032.761719 585.375 1034.769531 585.121094 1036.503906 584.144531 C 1038.238281 583.167969 1039.476562 581.574219 1040.015625 579.664062 C 1041.113281 575.714844 1038.796875 571.609375 1034.847656 570.511719 C 1034.175781 570.324219 1033.507812 570.238281 1032.839844 570.238281 Z M 1045.296875 581.136719 Z M 1045.296875 581.136719 " fill-opacity="1" fill-rule="nonzero"/><path fill="#7ed957" d="M 1369.679688 717.332031 C 1362.28125 717.332031 1355.433594 712.460938 1353.292969 705.027344 L 1312.648438 564.082031 C 1311.386719 559.679688 1311.914062 555.058594 1314.144531 551.0625 C 1316.371094 547.066406 1320.027344 544.191406 1324.4375 542.964844 L 1377.035156 528.320312 C 1385.988281 525.832031 1395.375 531.066406 1397.953125 540 L 1438.59375 680.949219 C 1439.859375 685.351562 1439.332031 689.972656 1437.101562 693.953125 C 1434.875 697.949219 1431.21875 700.824219 1426.808594 702.054688 L 1374.210938 716.695312 C 1372.699219 717.125 1371.171875 717.332031 1369.679688 717.332031 Z M 1381.578125 538.683594 C 1381.039062 538.683594 1380.5 538.75 1379.964844 538.902344 L 1327.367188 553.542969 C 1325.800781 553.984375 1324.503906 555.003906 1323.714844 556.417969 C 1322.921875 557.835938 1322.738281 559.480469 1323.1875 561.039062 L 1363.828125 701.988281 C 1364.742188 705.160156 1368.078125 707.027344 1371.261719 706.136719 L 1423.84375 691.496094 C 1425.414062 691.058594 1426.707031 690.035156 1427.5 688.621094 C 1428.289062 687.203125 1428.476562 685.558594 1428.027344 684 L 1387.382812 543.050781 C 1386.636719 540.40625 1384.199219 538.683594 1381.578125 538.683594 Z M 1378.492188 533.613281 Z M 1378.492188 533.613281 " fill-opacity="1" fill-rule="nonzero"/><path fill="#7ed957" d="M 1362.324219 596.085938 C 1354.269531 596.085938 1346.851562 590.75 1344.589844 582.605469 C 1343.273438 577.867188 1343.875 572.90625 1346.289062 568.625 C 1348.707031 564.34375 1352.644531 561.257812 1357.386719 559.941406 C 1367.167969 557.222656 1377.339844 562.960938 1380.0625 572.738281 C 1382.785156 582.519531 1377.042969 592.695312 1367.265625 595.414062 C 1365.609375 595.867188 1363.949219 596.085938 1362.324219 596.085938 Z M 1362.316406 570.238281 C 1361.65625 570.238281 1360.988281 570.324219 1360.328125 570.511719 C 1358.417969 571.050781 1356.828125 572.289062 1355.851562 574.023438 C 1354.875 575.757812 1354.632812 577.757812 1355.160156 579.675781 C 1355.695312 581.585938 1356.9375 583.179688 1358.671875 584.15625 C 1360.394531 585.132812 1362.402344 585.375 1364.324219 584.847656 C 1368.273438 583.75 1370.589844 579.644531 1369.492188 575.691406 C 1368.558594 572.398438 1365.574219 570.238281 1362.316406 570.238281 Z M 1362.316406 570.238281 " fill-opacity="1" fill-rule="nonzero"/><path fill="#7ed957" d="M 1304.8125 718.046875 C 1301.871094 718.046875 1299.4375 715.71875 1299.335938 712.757812 C 1299.226562 709.726562 1301.585938 707.191406 1304.617188 707.070312 C 1304.890625 707.058594 1332.011719 705.863281 1353.195312 691.199219 C 1355.6875 689.476562 1359.109375 690.101562 1360.832031 692.59375 C 1362.554688 695.085938 1361.929688 698.5 1359.4375 700.234375 C 1335.554688 716.761719 1306.25 718.003906 1305.023438 718.046875 C 1304.945312 718.046875 1304.878906 718.046875 1304.8125 718.046875 Z M 1304.8125 718.046875 " fill-opacity="1" fill-rule="nonzero"/><path fill="#7ed957" d="M 1057.203125 711.667969 C 1055.800781 711.667969 1054.394531 711.132812 1053.320312 710.066406 L 1037.054688 693.800781 C 1034.914062 691.660156 1034.914062 688.183594 1037.054688 686.042969 C 1039.191406 683.902344 1042.671875 683.902344 1044.8125 686.042969 L 1061.078125 702.308594 C 1063.21875 704.449219 1063.21875 707.925781 1061.078125 710.066406 C 1060.015625 711.144531 1058.609375 711.667969 1057.203125 711.667969 Z M 1057.203125 711.667969 " fill-opacity="1" fill-rule="nonzero"/><path fill="#7ed957" d="M 1164.917969 810.054688 C 1157.75 810.054688 1150.59375 807.332031 1145.140625 801.878906 L 1135.777344 792.515625 C 1133.636719 790.375 1133.636719 786.894531 1135.777344 784.757812 C 1137.917969 782.617188 1141.398438 782.617188 1143.539062 784.757812 L 1152.898438 794.117188 C 1159.53125 800.746094 1170.308594 800.746094 1176.9375 794.117188 C 1180.152344 790.925781 1181.917969 786.65625 1181.917969 782.109375 C 1181.917969 779.90625 1181.503906 777.753906 1180.679688 775.710938 C 1179.835938 773.617188 1178.582031 771.726562 1176.949219 770.09375 C 1174.808594 767.953125 1174.808594 764.472656 1176.949219 762.332031 C 1179.089844 760.191406 1182.566406 760.191406 1184.707031 762.332031 L 1205.550781 783.164062 C 1212.179688 789.792969 1222.957031 789.792969 1229.585938 783.164062 C 1232.792969 779.960938 1234.570312 775.679688 1234.570312 771.144531 C 1234.570312 766.613281 1232.804688 762.34375 1229.585938 759.128906 C 1227.445312 756.988281 1227.445312 753.507812 1229.585938 751.367188 C 1231.726562 749.226562 1235.207031 749.226562 1237.347656 751.367188 C 1242.625 756.648438 1245.535156 763.671875 1245.535156 771.144531 C 1245.535156 778.621094 1242.625 785.644531 1237.347656 790.925781 C 1226.4375 801.835938 1208.6875 801.835938 1197.789062 790.925781 L 1192.664062 785.796875 C 1191.875 791.890625 1189.109375 797.507812 1184.695312 801.898438 C 1179.230469 807.332031 1172.074219 810.054688 1164.917969 810.054688 Z M 1164.917969 810.054688 " fill-opacity="1" fill-rule="nonzero"/><path fill="#7ed957" d="M 1258.507812 776.449219 C 1251.339844 776.449219 1244.183594 773.726562 1238.730469 768.269531 L 1187.527344 717.082031 C 1185.386719 714.941406 1185.386719 711.460938 1187.527344 709.320312 C 1189.667969 707.179688 1193.148438 707.179688 1195.289062 709.320312 L 1246.476562 760.511719 C 1253.109375 767.140625 1263.886719 767.140625 1270.515625 760.511719 C 1277.144531 753.882812 1277.144531 743.105469 1270.515625 736.472656 L 1219.3125 685.285156 C 1217.171875 683.144531 1217.171875 679.664062 1219.3125 677.523438 C 1221.453125 675.382812 1224.933594 675.382812 1227.074219 677.523438 L 1278.273438 728.714844 C 1289.183594 739.625 1289.183594 757.371094 1278.273438 768.269531 C 1272.832031 773.726562 1265.664062 776.449219 1258.507812 776.449219 Z M 1258.507812 776.449219 " fill-opacity="1" fill-rule="nonzero"/><path fill="#7ed957" d="M 1282.621094 736.980469 C 1275.148438 736.980469 1268.121094 734.070312 1262.84375 728.78125 C 1260.703125 726.640625 1260.703125 723.160156 1262.84375 721.019531 C 1264.984375 718.878906 1268.460938 718.878906 1270.601562 721.019531 C 1273.820312 724.238281 1278.078125 726.003906 1282.621094 726.003906 C 1287.164062 726.003906 1291.421875 724.238281 1294.640625 721.019531 C 1297.1875 718.464844 1298.832031 715.238281 1299.390625 711.703125 C 1299.546875 710.792969 1299.621094 709.902344 1299.621094 709.003906 C 1299.621094 704.46875 1297.855469 700.199219 1294.640625 696.972656 L 1213.355469 615.6875 C 1207.4375 609.773438 1198.757812 607.511719 1190.710938 609.773438 C 1186.585938 610.933594 1182.863281 613.21875 1179.957031 616.378906 L 1154.625 643.882812 C 1154.570312 643.9375 1154.523438 643.992188 1154.46875 644.046875 C 1142.550781 655.96875 1123.167969 655.96875 1111.246094 644.046875 C 1101.675781 634.476562 1099.515625 620.035156 1105.859375 608.105469 C 1114.003906 592.804688 1128.074219 571.828125 1148.882812 558.714844 C 1148.960938 558.667969 1149.035156 558.613281 1149.113281 558.570312 C 1166.226562 547.859375 1184.980469 544.257812 1204.847656 547.859375 C 1207.832031 548.296875 1249.1875 554.652344 1281.632812 576.890625 L 1316.789062 561.699219 C 1319.574219 560.503906 1322.800781 561.777344 1324 564.5625 C 1325.207031 567.339844 1323.921875 570.578125 1321.132812 571.773438 L 1283.160156 588.183594 C 1281.378906 588.953125 1279.328125 588.722656 1277.769531 587.589844 C 1246.742188 565.15625 1203.617188 558.769531 1203.191406 558.714844 C 1203.125 558.703125 1203.046875 558.691406 1202.980469 558.679688 C 1185.773438 555.542969 1169.539062 558.667969 1154.746094 568 C 1154.667969 568.042969 1154.601562 568.085938 1154.523438 568.128906 C 1135.867188 579.972656 1123.035156 599.191406 1115.550781 613.261719 C 1111.488281 620.902344 1112.871094 630.152344 1119.007812 636.289062 C 1126.613281 643.894531 1138.984375 643.929688 1146.632812 636.367188 L 1171.886719 608.949219 C 1176.167969 604.296875 1181.65625 600.925781 1187.746094 599.214844 C 1199.613281 595.875 1212.410156 599.214844 1221.125 607.929688 L 1302.410156 689.214844 C 1307.6875 694.503906 1310.597656 701.527344 1310.597656 708.992188 C 1310.597656 710.507812 1310.476562 712.007812 1310.234375 713.457031 C 1309.324219 719.242188 1306.625 724.554688 1302.421875 728.769531 C 1297.121094 734.070312 1290.09375 736.980469 1282.621094 736.980469 Z M 1282.621094 736.980469 " fill-opacity="1" fill-rule="nonzero"/><path fill="#7ed957" d="M 1075.621094 575.757812 C 1073.117188 575.757812 1070.859375 574.035156 1070.277344 571.488281 C 1069.605469 568.535156 1071.449219 565.59375 1074.402344 564.914062 C 1110.085938 556.792969 1150.199219 557.824219 1151.945312 557.867188 C 1154.910156 557.945312 1157.300781 560.371094 1157.300781 563.355469 C 1157.300781 566.441406 1154.746094 568.953125 1151.648438 568.84375 C 1150.003906 568.800781 1111.203125 567.789062 1076.839844 575.617188 C 1076.433594 575.714844 1076.027344 575.757812 1075.621094 575.757812 Z M 1075.621094 575.757812 " fill-opacity="1" fill-rule="nonzero"/><path fill="#7ed957" d="M 1069.96875 733.488281 C 1064.589844 733.488281 1059.53125 731.394531 1055.734375 727.59375 C 1051.9375 723.796875 1049.839844 718.738281 1049.839844 713.359375 C 1049.839844 707.980469 1051.9375 702.933594 1055.734375 699.125 L 1073.054688 681.804688 C 1080.898438 673.957031 1093.675781 673.957031 1101.523438 681.804688 C 1105.320312 685.601562 1107.417969 690.664062 1107.417969 696.039062 C 1107.417969 701.417969 1105.320312 706.476562 1101.523438 710.277344 C 1099.382812 712.414062 1095.902344 712.414062 1093.765625 710.277344 C 1091.625 708.136719 1091.625 704.65625 1093.765625 702.515625 C 1095.496094 700.78125 1096.441406 698.488281 1096.441406 696.039062 C 1096.441406 693.59375 1095.488281 691.296875 1093.765625 689.566406 C 1090.195312 685.996094 1084.390625 685.996094 1080.8125 689.566406 L 1063.492188 706.882812 C 1061.757812 708.617188 1060.816406 710.914062 1060.816406 713.359375 C 1060.816406 715.808594 1061.769531 718.101562 1063.492188 719.835938 C 1065.226562 721.570312 1067.519531 722.511719 1069.96875 722.511719 C 1072.417969 722.511719 1074.710938 721.558594 1076.445312 719.835938 C 1078.585938 717.695312 1082.0625 717.695312 1084.203125 719.835938 C 1086.34375 721.976562 1086.34375 725.453125 1084.203125 727.59375 C 1080.394531 731.394531 1075.347656 733.488281 1069.96875 733.488281 Z M 1069.96875 733.488281 " fill-opacity="1" fill-rule="nonzero"/><path fill="#7ed957" d="M 1084.5 760.367188 C 1079.339844 760.367188 1074.195312 758.402344 1070.265625 754.484375 C 1066.46875 750.6875 1064.371094 745.628906 1064.371094 740.25 C 1064.371094 734.871094 1066.46875 729.8125 1070.265625 726.015625 L 1093.753906 702.527344 C 1101.601562 694.679688 1114.375 694.679688 1122.222656 702.527344 C 1126.019531 706.335938 1128.117188 711.382812 1128.117188 716.761719 C 1128.117188 722.140625 1126.019531 727.199219 1122.222656 730.996094 C 1120.082031 733.136719 1116.605469 733.136719 1114.464844 730.996094 C 1112.324219 728.855469 1112.324219 725.378906 1114.464844 723.238281 C 1116.199219 721.503906 1117.140625 719.210938 1117.140625 716.761719 C 1117.140625 714.316406 1116.1875 712.019531 1114.464844 710.285156 C 1110.898438 706.71875 1105.078125 706.71875 1101.511719 710.285156 L 1078.023438 733.773438 C 1076.289062 735.507812 1075.347656 737.800781 1075.347656 740.25 C 1075.347656 742.699219 1076.300781 744.992188 1078.023438 746.726562 C 1081.589844 750.292969 1087.398438 750.292969 1090.976562 746.726562 C 1093.117188 744.585938 1096.59375 744.585938 1098.734375 746.726562 C 1100.875 748.867188 1100.875 752.34375 1098.734375 754.484375 C 1094.816406 758.402344 1089.660156 760.367188 1084.5 760.367188 Z M 1084.5 760.367188 " fill-opacity="1" fill-rule="nonzero"/><path fill="#7ed957" d="M 1098.394531 787.90625 C 1093.015625 787.90625 1087.957031 785.808594 1084.160156 782.011719 C 1080.363281 778.214844 1078.265625 773.15625 1078.265625 767.777344 C 1078.265625 762.398438 1080.363281 757.351562 1084.160156 753.542969 L 1114.476562 723.226562 C 1122.320312 715.378906 1135.097656 715.378906 1142.945312 723.226562 C 1146.742188 727.035156 1148.839844 732.085938 1148.839844 737.460938 C 1148.839844 742.839844 1146.742188 747.898438 1142.945312 751.699219 L 1112.628906 782.011719 C 1108.824219 785.808594 1103.773438 787.90625 1098.394531 787.90625 Z M 1128.699219 728.308594 C 1126.351562 728.308594 1124.011719 729.199219 1122.222656 730.988281 L 1091.910156 761.300781 C 1090.175781 763.035156 1089.230469 765.328125 1089.230469 767.777344 C 1089.230469 770.222656 1090.1875 772.519531 1091.910156 774.253906 C 1093.644531 775.988281 1095.9375 776.929688 1098.382812 776.929688 C 1100.832031 776.929688 1103.125 775.976562 1104.859375 774.253906 L 1135.175781 743.9375 C 1136.910156 742.203125 1137.851562 739.910156 1137.851562 737.460938 C 1137.851562 735.015625 1136.898438 732.71875 1135.175781 730.988281 C 1133.398438 729.199219 1131.046875 728.308594 1128.699219 728.308594 Z M 1128.699219 728.308594 " fill-opacity="1" fill-rule="nonzero"/><path fill="#7ed957" d="M 1127.898438 799.816406 C 1122.519531 799.816406 1117.460938 797.71875 1113.664062 793.921875 C 1109.863281 790.125 1107.769531 785.0625 1107.769531 779.683594 C 1107.769531 774.308594 1109.863281 769.246094 1113.664062 765.449219 C 1115.804688 763.308594 1119.28125 763.308594 1121.421875 765.449219 C 1123.5625 767.589844 1123.5625 771.070312 1121.421875 773.210938 C 1119.6875 774.945312 1118.746094 777.238281 1118.746094 779.683594 C 1118.746094 782.132812 1119.699219 784.425781 1121.421875 786.160156 C 1123.15625 787.894531 1125.449219 788.839844 1127.898438 788.839844 C 1130.34375 788.839844 1132.640625 787.882812 1134.375 786.160156 L 1155.886719 764.648438 C 1159.453125 761.082031 1159.453125 755.265625 1155.886719 751.699219 C 1152.320312 748.128906 1146.511719 748.128906 1142.933594 751.699219 C 1140.792969 753.835938 1137.316406 753.835938 1135.175781 751.699219 C 1133.035156 749.558594 1133.035156 746.078125 1135.175781 743.9375 C 1143.023438 736.089844 1155.796875 736.089844 1163.644531 743.9375 C 1171.492188 751.785156 1171.492188 764.5625 1163.644531 772.410156 L 1142.132812 793.921875 C 1138.335938 797.71875 1133.277344 799.816406 1127.898438 799.816406 Z M 1127.898438 799.816406 " fill-opacity="1" fill-rule="nonzero"/><path fill="#7ed957" d="M 1253.316406 573.203125 C 1252.164062 573.203125 1251 572.839844 1250.011719 572.09375 C 1247.597656 570.257812 1247.113281 566.824219 1248.949219 564.410156 C 1264.699219 543.609375 1273.015625 518.695312 1273.015625 492.386719 L 1273.015625 445.773438 L 1197.789062 416.523438 L 1122.574219 445.761719 L 1122.574219 492.375 C 1122.574219 516.832031 1129.851562 540.296875 1143.625 560.238281 C 1145.347656 562.730469 1144.722656 566.15625 1142.230469 567.878906 C 1139.742188 569.601562 1136.316406 568.976562 1134.59375 566.484375 C 1119.546875 544.707031 1111.589844 519.082031 1111.589844 492.386719 L 1111.589844 442.019531 C 1111.589844 439.761719 1112.980469 437.730469 1115.089844 436.90625 L 1195.792969 405.539062 C 1197.078125 405.042969 1198.492188 405.042969 1199.765625 405.539062 L 1280.46875 436.90625 C 1282.578125 437.730469 1283.972656 439.757812 1283.972656 442.019531 L 1283.972656 492.386719 C 1283.972656 521.109375 1274.882812 548.308594 1257.683594 571.039062 C 1256.609375 572.445312 1254.972656 573.203125 1253.316406 573.203125 Z M 1253.316406 573.203125 " fill-opacity="1" fill-rule="nonzero"/><path fill="#7ed957" d="M 1225.066406 563.398438 C 1223.738281 563.398438 1222.410156 562.929688 1221.355469 561.960938 C 1219.117188 559.910156 1218.972656 556.441406 1221.015625 554.214844 C 1236.535156 537.289062 1245.085938 515.335938 1245.085938 492.386719 L 1245.085938 464.871094 L 1197.789062 446.476562 L 1150.496094 464.859375 L 1150.496094 492.375 C 1150.496094 514.21875 1158.324219 535.355469 1172.535156 551.917969 C 1174.511719 554.222656 1174.246094 557.683594 1171.941406 559.65625 C 1169.648438 561.632812 1166.179688 561.371094 1164.207031 559.066406 C 1148.28125 540.515625 1139.511719 516.832031 1139.511719 492.367188 L 1139.511719 461.097656 C 1139.511719 458.835938 1140.902344 456.804688 1143.011719 455.980469 L 1195.792969 435.46875 C 1197.078125 434.972656 1198.492188 434.972656 1199.765625 435.46875 L 1252.546875 455.980469 C 1254.65625 456.804688 1256.050781 458.835938 1256.050781 461.097656 L 1256.050781 492.367188 C 1256.050781 518.070312 1246.476562 542.65625 1229.105469 561.609375 C 1228.027344 562.796875 1226.546875 563.398438 1225.066406 563.398438 Z M 1225.066406 563.398438 " fill-opacity="1" fill-rule="nonzero"/><path fill="#7ed957" d="M 1187.046875 528.265625 C 1185.640625 528.265625 1184.234375 527.730469 1183.160156 526.664062 L 1167.882812 511.386719 C 1165.742188 509.246094 1165.742188 505.765625 1167.882812 503.625 C 1170.023438 501.488281 1173.5 501.488281 1175.640625 503.625 L 1187.046875 515.03125 L 1219.9375 482.136719 C 1222.078125 479.996094 1225.558594 479.996094 1227.699219 482.136719 C 1229.839844 484.277344 1229.839844 487.757812 1227.699219 489.894531 L 1190.917969 526.675781 C 1189.855469 527.730469 1188.449219 528.265625 1187.046875 528.265625 Z M 1187.046875 528.265625 " fill-opacity="1" fill-rule="nonzero"/><g clip-path="url(#5a9a91b1fe)"><path fill="#ff3131" d="M 1439.554688 192.804688 C 1439.554688 190.0625 1439.261719 186.777344 1439.34375 184.035156 C 1439.421875 180.1875 1439.976562 175.996094 1438.203125 172.429688 C 1437.621094 169.449219 1419.671875 163.652344 1417.359375 162.273438 C 1392.910156 161.3125 1367.007812 160.597656 1342.417969 164.542969 C 1338.886719 164.949219 1334.367188 164.542969 1333.1875 167.570312 C 1323.753906 163.316406 1312.738281 158.796875 1302.167969 160.851562 C 1295.28125 161.804688 1288.914062 164.160156 1283.0625 167.914062 C 1276.613281 165.265625 1262.925781 158.136719 1255.355469 159.839844 C 1234.441406 158.613281 1226.808594 164.039062 1232.101562 186.65625 C 1234.503906 209.722656 1233.640625 230.378906 1224.9375 243.863281 C 1222.890625 234.378906 1223.351562 224.449219 1223.78125 214.824219 C 1224.347656 204.957031 1224.195312 194.835938 1224.796875 184.980469 C 1224.964844 180.300781 1227.179688 173.816406 1222.671875 170.578125 C 1222.386719 170.402344 1222.09375 170.246094 1221.789062 170.109375 C 1221.488281 170.011719 1203.820312 162.519531 1203.523438 162.476562 C 1199.109375 161.125 1194.222656 163.113281 1189.480469 162.792969 C 1184.769531 162.925781 1179.085938 162.855469 1174.929688 164.613281 C 1174.210938 164.871094 1173.585938 165.273438 1173.050781 165.820312 C 1172.519531 166.367188 1172.128906 167.003906 1171.886719 167.726562 L 1159.921875 162.664062 C 1142.722656 155.816406 1121.648438 159.035156 1104.40625 166.605469 C 1098.777344 164.675781 1093.261719 160.597656 1086.300781 161.964844 C 1063.179688 161.398438 1040.414062 160.984375 1017.363281 164.683594 C 1008.929688 165.078125 1009.246094 166.90625 1008.46875 176.621094 C 1007.949219 183.335938 1006.226562 189.851562 1005.460938 197.414062 C 1004.117188 198.789062 1024.308594 205.988281 1024.734375 206.5 C 1025.996094 206.828125 1027.433594 206.695312 1029.648438 206.730469 C 1029.089844 225.402344 1023.621094 268.675781 1024.53125 287.570312 C 1024.53125 287.90625 1043.863281 295.917969 1044.03125 295.734375 C 1055.898438 293.578125 1068.273438 293.304688 1080 290.4375 C 1082.742188 290.597656 1083.527344 288.671875 1083.671875 286.253906 C 1084.179688 283.417969 1084.359375 280.558594 1084.207031 277.679688 C 1082.53125 288.558594 1100.808594 290.828125 1107.25 294.664062 C 1113.160156 296.863281 1118.660156 294.984375 1124.898438 295.476562 C 1134.824219 296.050781 1138.699219 295.070312 1140.542969 284.886719 C 1155.789062 291.066406 1158.625 295.476562 1175.273438 288.910156 C 1180.648438 287.597656 1186.613281 287.144531 1191.503906 284.394531 C 1192.558594 283.8125 1193.402344 283.015625 1194.035156 281.992188 C 1205.507812 287.632812 1220.914062 295.8125 1234.160156 295.769531 C 1237.230469 295.75 1240.277344 295.460938 1243.296875 294.894531 C 1246.316406 294.328125 1249.261719 293.5 1252.132812 292.40625 C 1255.003906 291.3125 1257.753906 289.96875 1260.382812 288.378906 C 1263.011719 286.789062 1265.476562 284.980469 1267.78125 282.945312 C 1277.027344 286.519531 1292.125 295.148438 1302.972656 295.511719 C 1320.328125 297.398438 1339.875 290.78125 1348.019531 274.394531 C 1348.363281 275.738281 1346.007812 287.339844 1348.214844 287.898438 C 1364.707031 294.957031 1365.042969 297.125 1383.300781 293.542969 C 1389.863281 292.433594 1396.898438 292.492188 1403.292969 290.457031 C 1403.519531 290.484375 1403.742188 290.488281 1403.96875 290.46875 C 1404.195312 290.449219 1404.414062 290.40625 1404.632812 290.335938 C 1404.847656 290.269531 1405.054688 290.179688 1405.25 290.066406 C 1405.445312 289.953125 1405.628906 289.824219 1405.796875 289.671875 C 1405.960938 289.519531 1406.113281 289.351562 1406.242188 289.167969 C 1406.375 288.984375 1406.484375 288.785156 1406.574219 288.578125 C 1406.664062 288.371094 1406.726562 288.15625 1406.769531 287.933594 C 1406.8125 287.710938 1406.832031 287.488281 1406.824219 287.261719 C 1408.070312 281.03125 1407.460938 274.625 1406.488281 268.367188 C 1404.335938 251.328125 1404.875 234.066406 1404 216.941406 C 1404.320312 214.089844 1402.890625 209.449219 1404.175781 207.515625 C 1413.761719 207.082031 1423.300781 206.476562 1432.925781 205.75 C 1433.234375 205.785156 1433.539062 205.789062 1433.84375 205.761719 C 1434.152344 205.738281 1434.453125 205.683594 1434.75 205.597656 C 1435.046875 205.515625 1435.332031 205.40625 1435.605469 205.269531 C 1435.882812 205.128906 1436.140625 204.96875 1436.386719 204.78125 C 1436.628906 204.59375 1436.855469 204.386719 1437.058594 204.15625 C 1437.261719 203.925781 1437.445312 203.675781 1437.601562 203.414062 C 1437.757812 203.148438 1437.890625 202.871094 1437.992188 202.582031 C 1438.097656 202.292969 1438.171875 201.996094 1438.222656 201.691406 C 1439.238281 198.816406 1439.683594 195.855469 1439.554688 192.804688 Z M 1405.140625 284.808594 C 1404.929688 284.808594 1404.722656 284.777344 1404.519531 284.710938 Z M 1433.871094 173.683594 C 1436.113281 175.925781 1435.117188 180.257812 1435.203125 183.1875 C 1434.878906 182.65625 1419.917969 177.742188 1421.289062 176.382812 C 1421.484375 173.714844 1421.460938 171.046875 1421.21875 168.378906 Z M 1279.171875 170.808594 C 1276.234375 172.738281 1275.5625 176.507812 1271.769531 173.921875 C 1271.386719 171.570312 1270.839844 169.257812 1270.128906 166.984375 Z M 1272.359375 177.9375 C 1272.359375 177.53125 1272.261719 177.125 1272.210938 176.726562 L 1273.039062 177.070312 C 1272.773438 177.355469 1272.582031 177.644531 1272.359375 177.9375 Z M 1221.425781 246.90625 C 1218.398438 248.53125 1214.277344 248.46875 1211.675781 246.097656 C 1210.015625 244.476562 1208.816406 242.570312 1208.082031 240.367188 C 1208.570312 240.90625 1222.351562 245.441406 1221.425781 246.90625 Z M 1219.660156 236.378906 C 1219.847656 238.507812 1220.128906 240.871094 1220.542969 242.953125 L 1207.140625 237.351562 C 1206.585938 235.144531 1206.1875 232.90625 1205.949219 230.644531 Z M 1205.710938 227.910156 C 1205.542969 226.144531 1205.464844 223.398438 1205.417969 221.574219 L 1219.289062 227.386719 C 1219.289062 229.019531 1219.386719 232.03125 1219.476562 233.671875 Z M 1207.042969 174.964844 C 1207.304688 172.832031 1207.410156 170.695312 1207.359375 168.546875 L 1220.226562 173.949219 C 1220.417969 174.039062 1220.585938 174.15625 1220.738281 174.300781 C 1221.832031 176.367188 1221.101562 179.039062 1221.039062 181.308594 C 1220.976562 181.027344 1206.125 175.75 1207.015625 174.988281 Z M 1206.59375 180.082031 C 1206.59375 179.382812 1206.644531 178.695312 1206.726562 177.988281 C 1206.726562 178.042969 1220.84375 183.824219 1220.773438 183.929688 C 1220.546875 185.929688 1220.433594 187.941406 1220.4375 189.957031 L 1206.496094 184.113281 C 1206.496094 182.730469 1206.53125 181.378906 1206.59375 180.082031 Z M 1206.308594 190.847656 C 1206.355469 189.460938 1206.390625 188.085938 1206.425781 186.699219 L 1220.375 192.550781 C 1220.3125 194.597656 1220.253906 196.65625 1220.199219 198.726562 L 1206.25 192.875 C 1206.230469 192.136719 1206.257812 191.472656 1206.273438 190.804688 Z M 1205.992188 201.257812 L 1206.140625 195.355469 L 1220.085938 201.257812 C 1220.03125 203.296875 1219.96875 205.34375 1219.917969 207.4375 C 1219.917969 207.136719 1205.535156 201.808594 1205.992188 201.257812 Z M 1205.59375 210.164062 C 1205.691406 208.097656 1205.789062 206.105469 1205.894531 204.082031 C 1205.894531 204.082031 1219.882812 209.933594 1219.863281 209.953125 C 1219.777344 211.945312 1219.660156 214.011719 1219.574219 216.03125 C 1219.574219 216.058594 1205.578125 210.214844 1205.59375 210.199219 Z M 1205.375 218.203125 C 1205.375 216.4375 1205.425781 214.476562 1205.488281 212.75 L 1219.457031 218.609375 C 1219.359375 220.671875 1219.324219 222.667969 1219.273438 224.785156 C 1219.0625 224.484375 1204.324219 219.09375 1205.375 218.238281 Z M 1170.007812 221.730469 C 1170.078125 223.0625 1170.128906 224.378906 1170.238281 225.683594 L 1164.234375 223.230469 C 1165.5 221.722656 1166.675781 220.148438 1167.765625 218.511719 C 1169.847656 219.058594 1170.128906 219.738281 1170.007812 221.785156 Z M 1163.996094 244.304688 C 1166.449219 247.085938 1168.902344 249.882812 1171.347656 252.660156 C 1161.421875 249.007812 1161.375 248.25 1154.714844 240.414062 Z M 1151.539062 234.597656 C 1153.074219 233.511719 1154.601562 232.402344 1156.027344 231.199219 L 1169.714844 236.9375 C 1168.285156 238.03125 1166.460938 239.300781 1165.039062 240.246094 Z M 1174.992188 256.851562 C 1177.304688 258.996094 1177.824219 262.234375 1179.359375 264.902344 C 1172.132812 263.046875 1170.449219 257.839844 1165.726562 252.96875 Z M 1171.464844 246.535156 C 1168.269531 243.183594 1167.792969 243.085938 1171.921875 240.511719 C 1172.390625 243.378906 1172.972656 246.246094 1173.6875 249.035156 C 1172.910156 248.214844 1172.175781 247.375 1171.453125 246.546875 Z M 1170.667969 230.882812 C 1170.808594 232.242188 1170.949219 233.59375 1171.117188 234.941406 L 1158.058594 229.496094 C 1159.65625 228.09375 1161.085938 226.671875 1162.523438 225.15625 C 1164.339844 226.3125 1171.789062 227.539062 1170.660156 230.890625 Z M 1169.125 216.4375 C 1169.355469 216.074219 1169.574219 215.679688 1169.796875 215.308594 C 1169.796875 215.785156 1169.796875 216.253906 1169.796875 216.730469 Z M 1099.5 169.050781 C 1099.015625 169.308594 1098.484375 169.605469 1098.027344 169.863281 C 1098.027344 169.386719 1097.949219 168.847656 1097.886719 168.371094 Z M 1085.410156 198.613281 C 1087.992188 198.734375 1091.585938 196.847656 1090.339844 200.6875 Z M 1066.109375 269.296875 C 1066.003906 267.398438 1065.773438 265.421875 1065.527344 263.53125 L 1079.132812 269.207031 C 1079.425781 271.234375 1079.679688 273.257812 1079.882812 275.304688 C 1079.839844 275.074219 1065.675781 269.878906 1066.109375 269.296875 Z M 1065.070312 260.179688 C 1064.804688 258.21875 1064.503906 256.15625 1064.328125 254.207031 L 1078.066406 259.96875 C 1078.199219 262.09375 1078.464844 264.378906 1078.753906 266.472656 C 1078.640625 266.136719 1064.273438 261.054688 1065.070312 260.179688 Z M 1063.234375 227.257812 L 1077.070312 233.027344 L 1077.28125 239.328125 L 1063.453125 233.554688 C 1063.378906 231.4375 1063.304688 229.339844 1063.234375 227.257812 Z M 1076.46875 215.132812 C 1076.527344 217.242188 1076.597656 219.347656 1076.671875 221.441406 L 1062.851562 215.632812 C 1062.757812 213.613281 1062.757812 211.371094 1062.640625 209.332031 Z M 1062.5625 206.6875 L 1062.378906 201.136719 L 1076.214844 206.941406 C 1076.265625 208.785156 1076.328125 210.640625 1076.390625 212.484375 Z M 1076.785156 224.097656 C 1076.847656 226.195312 1076.917969 228.304688 1076.988281 230.40625 L 1063.152344 224.601562 C 1063.074219 222.492188 1063.011719 220.398438 1062.941406 218.300781 Z M 1077.371094 242.011719 C 1077.429688 244.109375 1077.519531 246.191406 1077.582031 248.3125 L 1063.761719 242.511719 C 1063.683594 240.394531 1063.605469 238.3125 1063.53125 236.210938 Z M 1077.679688 250.976562 C 1077.765625 253.066406 1077.847656 255.183594 1077.941406 257.300781 L 1064.140625 251.503906 C 1064.035156 249.40625 1063.941406 247.296875 1063.859375 245.179688 Z M 1078.640625 203.4375 L 1069.410156 199.582031 C 1078.09375 198.640625 1081.515625 198.902344 1089.386719 202.882812 C 1085.824219 203.085938 1082.167969 203.261719 1078.640625 203.4375 Z M 1026.046875 202.558594 L 1018.105469 199.210938 C 1021.65625 199.1875 1025.1875 199.449219 1028.695312 199.988281 C 1030.777344 200.09375 1030.078125 201.171875 1029.921875 202.496094 C 1028.535156 202.785156 1026.726562 202.46875 1026.019531 202.53125 Z M 1028.253906 283.667969 C 1029.136719 260.726562 1034.210938 220.136719 1033.804688 198.074219 C 1028.578125 193.804688 1020.089844 195.601562 1013.78125 195.039062 C 1012.632812 195.039062 1011.019531 195.039062 1009.960938 195.039062 C 1010.984375 188.261719 1012.121094 183.039062 1012.609375 176.921875 C 1012.714844 175.15625 1012.996094 170.605469 1013.5625 169.394531 C 1028.339844 167.320312 1043.132812 165.628906 1057.910156 165.652344 C 1069.242188 165.777344 1081.375 166.113281 1092.554688 166.15625 C 1094.199219 167.769531 1093.835938 170.523438 1093.914062 172.675781 C 1093.183594 179.738281 1095.371094 187.210938 1092.519531 193.855469 C 1082.167969 194.828125 1070.203125 195.234375 1059.457031 196.035156 C 1056.949219 196.828125 1058.671875 203.09375 1058.351562 204.921875 C 1059.351562 225.351562 1058.6875 245.902344 1061.664062 266.1875 C 1062.054688 269.1875 1062.125 272.195312 1061.875 275.207031 C 1061.769531 276.292969 1061.539062 277.457031 1061.40625 278.542969 C 1057.851562 279.839844 1054.183594 280.554688 1050.402344 280.679688 C 1043.050781 281.5625 1035.621094 282.585938 1028.226562 283.644531 Z M 1044.324219 291.539062 L 1033.734375 287.085938 C 1036.539062 285.371094 1045.203125 290.101562 1047.851562 291.027344 C 1046.609375 291.160156 1045.453125 291.339844 1044.296875 291.515625 Z M 1061.132812 289.195312 C 1052.695312 291.25 1049.441406 289.316406 1041.984375 285.964844 C 1052.988281 284.121094 1053.542969 284.199219 1063.691406 288.859375 Z M 1078.71875 286.449219 C 1070.679688 289.742188 1065.414062 287.332031 1058.167969 283.925781 C 1060.929688 282.460938 1063.964844 284.003906 1065.316406 280.703125 L 1078.929688 286.414062 Z M 1080.097656 281.304688 C 1080.054688 282.261719 1079.957031 283.214844 1079.804688 284.164062 L 1065.6875 278.261719 C 1066.027344 276.277344 1066.203125 274.28125 1066.214844 272.269531 L 1080.0625 278.03125 C 1080.125 279.113281 1080.128906 280.195312 1080.070312 281.277344 Z M 1081.3125 284.835938 L 1081.179688 284.773438 L 1081.800781 284.871094 Z M 1085.726562 252.765625 C 1085.171875 259.941406 1083.871094 271.105469 1084.207031 277.035156 C 1081.023438 253.957031 1081.382812 230.6875 1080.40625 207.507812 C 1086.519531 207.261719 1091.425781 205.335938 1089.042969 213.296875 C 1087.667969 226.195312 1086.246094 239.53125 1085.699219 252.707031 Z M 1119.859375 291.265625 C 1113.929688 292.484375 1107.089844 290.648438 1101.804688 287.859375 C 1109.667969 287.738281 1114.394531 287.332031 1121.710938 291.25 C 1120.996094 291.265625 1120.324219 291.265625 1119.859375 291.265625 Z M 1135.300781 288.320312 C 1133.105469 295.378906 1121.753906 288.320312 1117.609375 286.898438 C 1119.269531 285.691406 1120.445312 284.121094 1121.136719 282.1875 C 1121.101562 282.320312 1135.890625 288.011719 1135.300781 288.3125 Z M 1136.660156 283.210938 C 1136.527344 284.101562 1136.347656 284.984375 1136.121094 285.859375 L 1121.949219 279.910156 C 1122.445312 278.015625 1122.796875 276.089844 1123 274.140625 C 1125.304688 275.703125 1138.691406 278.507812 1136.660156 283.203125 Z M 1123.421875 262.84375 C 1123.421875 260.136719 1123.273438 257.285156 1123.160156 254.574219 C 1125.160156 258 1127.007812 261.554688 1128.78125 265.101562 Z M 1130.429688 268.402344 C 1131.710938 271.050781 1133.078125 273.617188 1134.382812 276.273438 L 1123.210938 271.597656 C 1123.351562 269.542969 1123.433594 267.53125 1123.433594 265.472656 Z M 1142.925781 280.757812 C 1141.160156 280.996094 1140.453125 280.273438 1139.800781 278.570312 C 1138.082031 275.144531 1119.257812 230.996094 1118.816406 250.015625 C 1119.074219 257.382812 1119.621094 265.015625 1118.984375 272.390625 C 1118.570312 275.921875 1118.277344 279.910156 1116.019531 282.832031 C 1115.066406 284.179688 1112.066406 283.632812 1110.144531 283.8125 C 1103.683594 283.183594 1097.304688 284.914062 1091.066406 283.386719 C 1084.375 278.367188 1090.78125 258.363281 1090.023438 248.972656 C 1091.789062 225.289062 1094.242188 201.84375 1096.386719 178.324219 C 1100.109375 168.308594 1125.65625 164.128906 1135.300781 163.261719 C 1154 161.910156 1174.640625 169.035156 1172.238281 191.339844 C 1172.078125 195.914062 1171.289062 200.375 1169.871094 204.722656 C 1168.453125 209.074219 1166.464844 213.140625 1163.902344 216.929688 C 1159.242188 223.636719 1152.921875 228.941406 1146.101562 233.355469 C 1145.722656 233.585938 1145.445312 233.902344 1145.273438 234.3125 C 1145.101562 234.722656 1145.066406 235.144531 1145.167969 235.578125 C 1148.308594 241.703125 1177.738281 267.980469 1171.761719 273.019531 C 1167.652344 275.535156 1162.425781 275.894531 1157.757812 277 C 1152.941406 277.941406 1148.113281 280.308594 1142.933594 280.722656 Z M 1161.023438 288.328125 C 1158.007812 288.417969 1151.714844 284.746094 1148.890625 283.917969 C 1150.832031 281.808594 1161.171875 287.597656 1163.132812 288.109375 C 1162.4375 288.210938 1161.734375 288.273438 1161.03125 288.292969 Z M 1175.371094 284.648438 C 1172.539062 285.242188 1170.078125 286.253906 1167.078125 287.09375 L 1154.960938 282.019531 C 1166.433594 278.429688 1165.496094 280.546875 1175.820312 284.542969 Z M 1189.578125 280.679688 C 1186.816406 282.355469 1183.402344 282.902344 1180.304688 283.597656 C 1180.015625 283.925781 1168.832031 278.761719 1168.523438 278.808594 C 1171.082031 278.03125 1173.773438 277.140625 1175.582031 275.058594 C 1175.488281 274.289062 1189.535156 280.785156 1189.703125 280.644531 C 1189.675781 280.699219 1189.632812 280.710938 1189.578125 280.679688 Z M 1176.695312 272.59375 C 1177.164062 270.238281 1176.386719 267.960938 1175.335938 265.816406 C 1182.316406 267.355469 1183.800781 273.335938 1188.574219 277.582031 Z M 1219.5625 288.753906 L 1218.019531 288.117188 C 1220.394531 287.050781 1226.84375 290.386719 1229.015625 291.242188 C 1225.753906 290.847656 1222.601562 290.023438 1219.5625 288.769531 Z M 1245.65625 290.066406 C 1237.070312 292.882812 1233.304688 290.597656 1225.652344 287.207031 C 1237.046875 283.457031 1236.164062 285.691406 1246.65625 289.800781 C 1246.300781 289.910156 1245.992188 290.003906 1245.65625 290.085938 Z M 1255.980469 286.085938 C 1254.109375 287.066406 1252.183594 287.921875 1250.203125 288.65625 L 1237.53125 283.359375 C 1239.742188 282.339844 1241.871094 281.164062 1243.910156 279.832031 L 1257.226562 285.417969 C 1256.820312 285.644531 1256.398438 285.882812 1256.007812 286.105469 Z M 1264.957031 279.910156 C 1263.332031 281.367188 1261.605469 282.691406 1259.777344 283.882812 L 1246.300781 278.199219 C 1248.027344 276.917969 1249.660156 275.53125 1251.199219 274.035156 L 1265.042969 279.839844 Z M 1258.566406 265.007812 C 1258.585938 265.207031 1258.617188 265.410156 1258.664062 265.605469 L 1258.277344 265.4375 Z M 1259.257812 268.472656 C 1259.910156 271.175781 1260.941406 273.726562 1262.351562 276.125 L 1252.964844 272.1875 C 1254.359375 270.675781 1255.667969 269.09375 1256.890625 267.441406 Z M 1297.996094 290.625 C 1295.40625 290.125 1292.917969 289.3125 1290.539062 288.179688 C 1299.089844 287.296875 1300.78125 287.984375 1308.539062 291.59375 C 1304.996094 291.578125 1301.480469 291.25 1297.996094 290.605469 Z M 1323.074219 289.582031 C 1314.25 292.839844 1311.109375 289.996094 1303.289062 286.757812 C 1306.132812 286.113281 1308.890625 285.199219 1311.558594 284.023438 L 1324.089844 289.316406 Z M 1332.886719 285.089844 C 1331.132812 286.222656 1329.292969 287.199219 1327.371094 288.019531 L 1314.425781 282.59375 C 1316.453125 281.5 1318.367188 280.226562 1320.160156 278.78125 L 1333.785156 284.480469 C 1333.503906 284.691406 1333.210938 284.886719 1332.886719 285.089844 Z M 1339.839844 279.089844 C 1338.660156 280.433594 1337.382812 281.671875 1336 282.804688 L 1322.191406 277.023438 C 1323.691406 275.644531 1325.0625 274.148438 1326.304688 272.535156 L 1340.378906 278.4375 C 1340.226562 278.648438 1340.042969 278.859375 1339.839844 279.089844 Z M 1343.960938 273.214844 C 1343.347656 274.339844 1342.667969 275.421875 1341.921875 276.460938 L 1327.804688 270.53125 C 1328.886719 268.933594 1329.839844 267.261719 1330.660156 265.519531 L 1344.886719 271.484375 C 1344.542969 272.136719 1344.25 272.738281 1343.960938 273.214844 Z M 1327.089844 221.484375 C 1327 221.335938 1326.839844 221.167969 1326.742188 221.027344 C 1332.125 223.832031 1338.214844 226.445312 1341.796875 231.519531 C 1342.046875 231.851562 1342.292969 232.199219 1342.53125 232.550781 L 1330.777344 227.617188 C 1329.753906 225.449219 1328.527344 223.402344 1327.089844 221.484375 Z M 1348.664062 252.792969 L 1334.773438 246.96875 C 1334.808594 244.84375 1334.695312 242.726562 1334.4375 240.617188 L 1348.011719 246.308594 C 1348.390625 248.453125 1348.609375 250.613281 1348.664062 252.792969 Z M 1333.996094 237.792969 C 1333.558594 235.402344 1332.921875 233.066406 1332.089844 230.785156 L 1344.59375 236.027344 C 1345.792969 238.382812 1346.71875 240.84375 1347.367188 243.40625 Z M 1347.429688 264.265625 C 1347.003906 265.964844 1346.460938 267.625 1345.804688 269.25 L 1331.589844 263.292969 C 1332.300781 261.511719 1332.886719 259.691406 1333.351562 257.832031 C 1333.460938 258.125 1348.53125 263.558594 1347.453125 264.273438 Z M 1333.910156 255.441406 C 1334.292969 253.492188 1334.550781 251.527344 1334.675781 249.546875 L 1348.664062 255.414062 C 1348.597656 257.414062 1348.394531 259.398438 1348.046875 261.371094 Z M 1350.164062 238.367188 C 1343.785156 220.363281 1331.632812 221.601562 1319.613281 211.230469 C 1317.707031 209.464844 1316.535156 206.6875 1317.65625 204.171875 C 1327.28125 207.816406 1332.214844 212.996094 1342.820312 207.84375 C 1346.535156 206.367188 1348.644531 206.589844 1352.996094 206.730469 C 1352.835938 217.480469 1351.0625 228.578125 1350.527344 239.378906 C 1350.429688 239.054688 1350.296875 238.71875 1350.164062 238.367188 Z M 1329.769531 198.789062 C 1329.984375 198.972656 1341.445312 203.695312 1341.710938 203.835938 C 1331.421875 208.152344 1330.855469 204.65625 1321.511719 201.277344 C 1324.203125 200.378906 1327.0625 199.628906 1329.769531 198.789062 Z M 1349.308594 199.566406 C 1351.523438 199.902344 1354.433594 199.644531 1353.207031 202.574219 C 1349.140625 203.210938 1344.871094 200.5 1341.382812 199.1875 C 1343.976562 199.230469 1346.730469 199.308594 1349.308594 199.566406 Z M 1351.574219 283.644531 C 1352.546875 263.753906 1356.5 223.945312 1357.136719 204.648438 C 1357.488281 201.3125 1358.714844 197.933594 1355.371094 196.707031 C 1352.027344 195.480469 1347.949219 195.3125 1344.25 195.082031 C 1341.417969 195.003906 1338.507812 194.976562 1335.71875 194.984375 C 1333.953125 195.03125 1332.851562 195.320312 1333.554688 193.21875 C 1327.433594 194.757812 1321.203125 197.632812 1315.027344 198.515625 C 1311.726562 194.984375 1313.179688 189.480469 1305.785156 188.570312 C 1296.308594 187.679688 1291.304688 200.582031 1298.621094 206.554688 C 1304.382812 212.527344 1312.828125 214.601562 1319.367188 219.5 C 1327.996094 226.292969 1331.101562 238.082031 1330.589844 248.691406 C 1330.371094 267.460938 1314.65625 282.789062 1296.078125 283.703125 C 1280.425781 286.183594 1261.753906 279.441406 1262.308594 260.867188 C 1262.679688 256.234375 1260.316406 245.628906 1267.011719 247.179688 C 1271.8125 247.101562 1276.78125 246.554688 1281.539062 246.078125 C 1285.003906 245.671875 1284.96875 249.253906 1286.355469 251.601562 C 1287.671875 254.550781 1289.117188 258.054688 1292.53125 258.757812 C 1299.546875 259.507812 1305.609375 251.0625 1302.042969 244.640625 C 1294.164062 230.609375 1274.238281 226.929688 1268.609375 211.011719 C 1267.816406 230.734375 1264.339844 251.804688 1251.464844 267.484375 C 1250.238281 268.941406 1248.929688 270.3125 1247.535156 271.605469 C 1246.144531 272.894531 1244.675781 274.097656 1243.132812 275.207031 C 1241.589844 276.320312 1239.988281 277.332031 1238.320312 278.246094 C 1236.652344 279.15625 1234.9375 279.964844 1233.171875 280.667969 C 1231.40625 281.367188 1229.601562 281.957031 1227.761719 282.4375 C 1225.925781 282.917969 1224.0625 283.28125 1222.179688 283.53125 C 1220.292969 283.78125 1218.402344 283.910156 1216.5 283.929688 C 1214.601562 283.945312 1212.707031 283.84375 1210.820312 283.625 C 1188.113281 281.367188 1177.992188 257.558594 1175.601562 237.449219 C 1172.652344 215.386719 1173.925781 193.019531 1175.257812 170.949219 C 1175.390625 165.828125 1185.359375 167.515625 1189.515625 166.925781 C 1193.851562 167.558594 1199.222656 164.691406 1202.808594 166.925781 C 1203.734375 170.222656 1202.753906 173.902344 1202.535156 177.273438 C 1202.058594 186.097656 1202.074219 194.996094 1201.703125 203.878906 C 1201.414062 218.167969 1199.054688 234.304688 1206.910156 246.96875 C 1207.71875 248.09375 1208.6875 249.058594 1209.816406 249.859375 C 1210.949219 250.660156 1212.179688 251.25 1213.511719 251.636719 C 1240.125 254.207031 1236.859375 211.769531 1237.117188 193.0625 C 1231.628906 162.449219 1234.414062 163.058594 1263.792969 164.347656 C 1268.945312 169.164062 1268.820312 186.636719 1268.902344 193.8125 C 1275.421875 165.441406 1320.585938 152.027344 1335.65625 180.082031 C 1336.769531 175.882812 1334.199219 167.628906 1340.953125 168.832031 C 1365.84375 164.804688 1390.984375 165.734375 1415.886719 166.183594 C 1418.128906 168.832031 1417.007812 173.011719 1417.121094 176.25 C 1417.042969 178.667969 1417.226562 181.351562 1417.308594 183.769531 C 1417.457031 187.167969 1417.308594 190.671875 1415.914062 193.8125 C 1406.78125 194.828125 1395.890625 195.234375 1386.175781 195.789062 C 1384.929688 195.984375 1382.292969 195.496094 1381.691406 197.03125 C 1381.074219 197.976562 1381.816406 203.800781 1381.691406 204.976562 C 1382.691406 225.402344 1382.027344 245.953125 1385.003906 266.242188 C 1385.472656 269.585938 1385.515625 272.9375 1385.125 276.292969 C 1385.011719 276.980469 1384.871094 277.953125 1384.773438 278.640625 C 1381.113281 279.886719 1377.351562 280.566406 1373.488281 280.679688 C 1366.207031 281.5625 1358.863281 282.59375 1351.574219 283.644531 Z M 1309.738281 198.222656 C 1310.019531 199.242188 1310.515625 200.132812 1311.238281 200.902344 C 1311.960938 201.667969 1312.820312 202.222656 1313.816406 202.566406 C 1313.386719 203.613281 1313.140625 204.707031 1313.085938 205.839844 L 1299.335938 200.078125 C 1299.011719 198.746094 1299.152344 197.464844 1299.769531 196.238281 C 1300.066406 195.605469 1300.464844 195.039062 1300.960938 194.542969 Z M 1303.449219 192.929688 C 1303.960938 192.753906 1304.484375 192.679688 1305.023438 192.699219 C 1305.5625 192.71875 1306.082031 192.832031 1306.582031 193.042969 C 1307.078125 193.25 1307.523438 193.542969 1307.914062 193.914062 C 1308.304688 194.289062 1308.617188 194.71875 1308.847656 195.207031 Z M 1313.367188 208.566406 C 1313.65625 209.785156 1314.15625 210.914062 1314.867188 211.945312 C 1310.261719 209.5 1305.222656 207.417969 1301.523438 203.597656 Z M 1279.375 230.105469 L 1271.523438 226.851562 C 1271.671875 225.773438 1271.8125 224.617188 1271.917969 223.53125 C 1274.242188 225.910156 1276.726562 228.101562 1279.375 230.105469 Z M 1292.558594 239.671875 C 1294.941406 241.4375 1297.984375 244.703125 1298.734375 247.808594 L 1288.050781 243.332031 C 1288.480469 241.3125 1288.84375 239.238281 1289.144531 237.15625 C 1290.335938 238.039062 1291.457031 238.84375 1292.558594 239.671875 Z M 1297.996094 252.027344 C 1292.910156 257.726562 1291.542969 253.261719 1289.46875 248.496094 Z M 1270.171875 235.074219 C 1270.585938 233.089844 1270.886719 231.183594 1271.175781 229.285156 L 1285.296875 235.199219 C 1285.003906 237.164062 1284.707031 239.070312 1284.335938 241.011719 Z M 1268.617188 241.761719 C 1269.015625 240.359375 1269.34375 238.894531 1269.667969 237.484375 L 1280.453125 242.011719 C 1276.402344 242.53125 1272.324219 242.894531 1268.292969 243.007812 C 1268.40625 242.582031 1268.511719 242.179688 1268.617188 241.761719 Z M 1400.101562 224.933594 L 1400.285156 230.40625 L 1386.449219 224.601562 C 1386.371094 222.492188 1386.308594 220.398438 1386.238281 218.300781 C 1386.539062 218.765625 1401.34375 223.707031 1400.144531 224.933594 Z M 1401.609375 262.050781 C 1401.742188 263.53125 1401.9375 264.988281 1402.128906 266.460938 L 1388.53125 260.761719 C 1388.230469 258.601562 1387.90625 256.351562 1387.710938 254.195312 L 1401.449219 259.957031 C 1401.449219 260.621094 1401.511719 261.316406 1401.609375 262.050781 Z M 1389.484375 269.296875 C 1389.378906 267.398438 1389.148438 265.421875 1388.902344 263.53125 L 1402.492188 269.207031 C 1402.78125 271.234375 1403.039062 273.257812 1403.242188 275.304688 C 1403.179688 275.074219 1389.015625 269.878906 1389.449219 269.296875 Z M 1387.492188 251.503906 C 1387.382812 249.40625 1387.289062 247.296875 1387.207031 245.179688 L 1401.027344 250.976562 C 1401.117188 253.066406 1401.195312 255.183594 1401.292969 257.300781 Z M 1387.109375 242.511719 C 1387.03125 240.394531 1386.953125 238.3125 1386.882812 236.210938 L 1400.726562 242.011719 C 1400.789062 244.109375 1400.878906 246.191406 1400.9375 248.3125 Z M 1386.800781 233.554688 C 1386.726562 231.457031 1386.652344 229.355469 1386.582031 227.257812 L 1400.417969 233.027344 C 1400.484375 235.128906 1400.550781 237.226562 1400.621094 239.328125 Z M 1386.203125 215.632812 C 1386.132812 213.605469 1386.0625 211.371094 1385.992188 209.332031 L 1399.84375 215.132812 C 1399.910156 217.242188 1399.976562 219.347656 1400.046875 221.441406 Z M 1385.910156 206.6875 L 1385.726562 201.136719 L 1399.5625 206.941406 C 1399.613281 208.785156 1399.675781 210.640625 1399.738281 212.484375 Z M 1367.644531 291.515625 L 1357.054688 287.058594 C 1359.863281 285.347656 1368.527344 290.074219 1371.175781 291.003906 C 1369.949219 291.160156 1368.792969 291.339844 1367.636719 291.515625 Z M 1384.453125 289.167969 C 1376.019531 291.222656 1372.773438 289.289062 1365.304688 285.9375 C 1376.308594 284.09375 1376.867188 284.171875 1387.015625 288.832031 Z M 1402.042969 286.421875 C 1394.003906 289.714844 1388.734375 287.304688 1381.488281 283.898438 C 1384.253906 282.433594 1387.289062 283.980469 1388.636719 280.679688 L 1402.253906 286.386719 Z M 1403.417969 281.277344 C 1403.375 282.238281 1403.277344 283.191406 1403.128906 284.136719 L 1389.007812 278.234375 C 1389.347656 276.25 1389.523438 274.253906 1389.539062 272.242188 L 1403.375 278.03125 C 1403.4375 279.113281 1403.4375 280.195312 1403.375 281.277344 Z M 1404.027344 203.34375 C 1402.519531 204.222656 1394.214844 200.058594 1392.757812 199.582031 C 1401.441406 198.640625 1404.867188 198.902344 1412.746094 202.882812 C 1409.824219 203.023438 1406.902344 203.191406 1404.019531 203.34375 Z M 1430.800781 201.664062 C 1421.261719 202.785156 1417.34375 203.058594 1408.738281 198.585938 C 1426.027344 197.914062 1412.269531 194.042969 1430.871094 201.664062 Z M 1435.378906 194.851562 C 1435.339844 196.753906 1434.996094 198.59375 1434.339844 200.378906 C 1434.488281 200.773438 1420.097656 194.4375 1420.085938 194.535156 C 1420.792969 192.707031 1421.222656 190.816406 1421.375 188.863281 C 1421.375 188.976562 1435.636719 194.570312 1435.371094 194.851562 Z M 1435.378906 192.089844 L 1421.5 186.257812 C 1421.5 184.273438 1421.394531 181.980469 1421.324219 179.976562 L 1435.140625 185.789062 C 1435.140625 187.210938 1435.378906 190.671875 1435.378906 192.089844 Z M 1435.378906 192.089844 " fill-opacity="1" fill-rule="nonzero"/></g><path fill="#ff3131" d="M 1137.488281 187.265625 C 1132.105469 184.679688 1124.863281 187.996094 1123.6875 194.042969 C 1121.710938 200.996094 1122.382812 208.371094 1122.046875 215.503906 C 1121.753906 218.34375 1125.039062 218.078125 1126.925781 217.550781 C 1140.269531 216.066406 1149.65625 195.3125 1137.488281 187.265625 Z M 1129.351562 191.992188 C 1133.183594 189.089844 1138 190.671875 1138.644531 195.964844 L 1129.316406 192.046875 Z M 1126.292969 213.4375 C 1126.292969 212.679688 1126.292969 211.832031 1126.292969 211.070312 L 1129.390625 212.371094 C 1128.394531 212.832031 1127.359375 213.1875 1126.292969 213.4375 Z M 1134.410156 209.203125 C 1132.539062 212.21875 1128.578125 209.28125 1126.328125 208.496094 C 1126.328125 206.519531 1126.398438 204.390625 1126.546875 202.378906 L 1136.625 206.554688 C 1136.027344 207.554688 1135.289062 208.4375 1134.410156 209.203125 Z M 1137.710938 204.4375 L 1126.777344 199.867188 C 1126.960938 197.902344 1127.386719 195.992188 1128.054688 194.136719 L 1138.847656 198.664062 C 1138.824219 200.644531 1138.445312 202.554688 1137.710938 204.390625 Z M 1137.710938 204.4375 " fill-opacity="1" fill-rule="nonzero"/></svg>