<svg xmlns="http://www.w3.org/2000/svg" xmlns:xlink="http://www.w3.org/1999/xlink" width="1920" zoomAndPan="magnify" viewBox="0 0 1440 809.999993" height="1080" preserveAspectRatio="xMidYMid meet" version="1.0"><defs><filter x="0%" y="0%" width="100%" height="100%" id="e93086d83d"><feColorMatrix values="0 0 0 0 1 0 0 0 0 1 0 0 0 0 1 0 0 0 1 0" color-interpolation-filters="sRGB"/></filter><clipPath id="cc8cc0eb7f"><path d="M 0 502.316406 L 425 502.316406 L 425 809.816406 L 0 809.816406 Z M 0 502.316406 " clip-rule="nonzero"/></clipPath><clipPath id="9c09583d34"><path d="M 0 502.316406 L 425 502.316406 L 425 548 L 0 548 Z M 0 502.316406 " clip-rule="nonzero"/></clipPath><clipPath id="4fd6217990"><path d="M 0 547 L 110 547 L 110 809.816406 L 0 809.816406 Z M 0 547 " clip-rule="nonzero"/></clipPath><clipPath id="4fb5b3e755"><path d="M 946.710938 0 L 1440 0 L 1440 345 L 946.710938 345 Z M 946.710938 0 " clip-rule="nonzero"/></clipPath><clipPath id="d8f554f3fc"><path d="M 946.710938 0 L 1440 0 L 1440 37 L 946.710938 37 Z M 946.710938 0 " clip-rule="nonzero"/></clipPath><mask id="f6db3537c9"><g filter="url(#e93086d83d)"><rect x="-144" width="1728" fill="#000000" y="-80.999999" height="971.999992" fill-opacity="0.8"/></g></mask><clipPath id="13711a9755"><path d="M 0.078125 0.121094 L 54.800781 0.121094 L 54.800781 65.398438 L 0.078125 65.398438 Z M 0.078125 0.121094 " clip-rule="nonzero"/></clipPath><clipPath id="80f9980c24"><rect x="0" width="55" y="0" height="66"/></clipPath><clipPath id="9351435449"><path d="M 416.449219 166 L 946.699219 166 L 946.699219 524 L 416.449219 524 Z M 416.449219 166 " clip-rule="nonzero"/></clipPath></defs><g clip-path="url(#cc8cc0eb7f)"><path fill="#dcecfb" d="M 21.90625 502.324219 L 403.214844 502.324219 C 403.921875 502.324219 404.628906 502.359375 405.335938 502.429688 C 406.039062 502.5 406.738281 502.601562 407.433594 502.742188 C 408.128906 502.878906 408.816406 503.050781 409.492188 503.257812 C 410.171875 503.464844 410.839844 503.703125 411.492188 503.972656 C 412.148438 504.242188 412.789062 504.546875 413.414062 504.878906 C 414.039062 505.214844 414.644531 505.578125 415.234375 505.972656 C 415.824219 506.367188 416.390625 506.789062 416.9375 507.238281 C 417.488281 507.6875 418.011719 508.160156 418.511719 508.664062 C 419.011719 509.164062 419.488281 509.6875 419.9375 510.234375 C 420.386719 510.785156 420.808594 511.351562 421.203125 511.941406 C 421.597656 512.53125 421.960938 513.136719 422.292969 513.761719 C 422.628906 514.386719 422.929688 515.027344 423.203125 515.679688 C 423.472656 516.335938 423.710938 517.003906 423.917969 517.679688 C 424.121094 518.359375 424.292969 519.046875 424.433594 519.738281 C 424.570312 520.433594 424.675781 521.136719 424.746094 521.839844 C 424.8125 522.546875 424.847656 523.253906 424.847656 523.960938 L 424.847656 788.347656 C 424.847656 789.054688 424.8125 789.761719 424.746094 790.464844 C 424.675781 791.171875 424.570312 791.871094 424.433594 792.566406 C 424.292969 793.261719 424.121094 793.949219 423.917969 794.625 C 423.710938 795.304688 423.472656 795.972656 423.203125 796.625 C 422.929688 797.28125 422.628906 797.917969 422.292969 798.542969 C 421.960938 799.167969 421.597656 799.777344 421.203125 800.367188 C 420.808594 800.953125 420.386719 801.523438 419.9375 802.070312 C 419.488281 802.617188 419.011719 803.144531 418.511719 803.644531 C 418.011719 804.144531 417.488281 804.621094 416.9375 805.070312 C 416.390625 805.519531 415.824219 805.941406 415.234375 806.335938 C 414.644531 806.730469 414.039062 807.09375 413.414062 807.425781 C 412.789062 807.761719 412.148438 808.0625 411.492188 808.335938 C 410.839844 808.605469 410.171875 808.84375 409.492188 809.050781 C 408.816406 809.253906 408.128906 809.425781 407.433594 809.566406 C 406.738281 809.703125 406.039062 809.808594 405.335938 809.875 C 404.628906 809.945312 403.921875 809.980469 403.214844 809.980469 L 21.90625 809.980469 C 21.199219 809.980469 20.492188 809.945312 19.785156 809.875 C 19.082031 809.808594 18.382812 809.703125 17.6875 809.566406 C 16.992188 809.425781 16.304688 809.253906 15.628906 809.050781 C 14.949219 808.84375 14.28125 808.605469 13.628906 808.335938 C 12.972656 808.0625 12.332031 807.761719 11.707031 807.425781 C 11.082031 807.09375 10.476562 806.730469 9.886719 806.335938 C 9.296875 805.941406 8.730469 805.519531 8.183594 805.070312 C 7.632812 804.621094 7.109375 804.144531 6.609375 803.644531 C 6.109375 803.144531 5.632812 802.617188 5.183594 802.070312 C 4.734375 801.523438 4.3125 800.953125 3.917969 800.367188 C 3.523438 799.777344 3.160156 799.167969 2.828125 798.542969 C 2.492188 797.917969 2.191406 797.28125 1.917969 796.625 C 1.648438 795.972656 1.410156 795.304688 1.203125 794.625 C 1 793.949219 0.828125 793.261719 0.6875 792.566406 C 0.550781 791.871094 0.445312 791.171875 0.375 790.464844 C 0.308594 789.761719 0.273438 789.054688 0.273438 788.347656 L 0.273438 523.960938 C 0.273438 523.253906 0.308594 522.546875 0.375 521.839844 C 0.445312 521.136719 0.550781 520.433594 0.6875 519.738281 C 0.828125 519.046875 1 518.359375 1.203125 517.679688 C 1.410156 517.003906 1.648438 516.335938 1.917969 515.679688 C 2.191406 515.027344 2.492188 514.386719 2.828125 513.761719 C 3.160156 513.136719 3.523438 512.53125 3.917969 511.941406 C 4.3125 511.351562 4.734375 510.785156 5.183594 510.234375 C 5.632812 509.6875 6.109375 509.164062 6.609375 508.664062 C 7.109375 508.160156 7.632812 507.6875 8.183594 507.238281 C 8.730469 506.789062 9.296875 506.367188 9.886719 505.972656 C 10.476562 505.578125 11.082031 505.214844 11.707031 504.878906 C 12.332031 504.546875 12.972656 504.242188 13.628906 503.972656 C 14.28125 503.703125 14.949219 503.464844 15.628906 503.257812 C 16.304688 503.050781 16.992188 502.878906 17.6875 502.742188 C 18.382812 502.601562 19.082031 502.5 19.785156 502.429688 C 20.492188 502.359375 21.199219 502.324219 21.90625 502.324219 Z M 21.90625 502.324219 " fill-opacity="1" fill-rule="nonzero"/></g><g clip-path="url(#9c09583d34)"><path fill="#8c52ff" d="M 21.53125 502.324219 L 403.589844 502.324219 C 415.320312 502.324219 424.847656 511.855469 424.847656 523.585938 L 424.847656 547.976562 L 0.273438 547.976562 L 0.273438 523.585938 C 0.273438 511.855469 9.800781 502.324219 21.53125 502.324219 Z M 21.53125 502.324219 " fill-opacity="1" fill-rule="nonzero"/></g><path fill="#ffffff" d="M 20.941406 518.859375 C 20.941406 519.207031 20.90625 519.554688 20.839844 519.898438 C 20.769531 520.238281 20.667969 520.570312 20.535156 520.894531 C 20.402344 521.214844 20.238281 521.523438 20.042969 521.8125 C 19.851562 522.101562 19.628906 522.371094 19.382812 522.617188 C 19.136719 522.863281 18.867188 523.085938 18.578125 523.277344 C 18.289062 523.472656 17.980469 523.636719 17.660156 523.769531 C 17.335938 523.902344 17.003906 524.003906 16.664062 524.074219 C 16.320312 524.140625 15.976562 524.175781 15.625 524.175781 C 15.277344 524.175781 14.929688 524.140625 14.589844 524.074219 C 14.246094 524.003906 13.914062 523.902344 13.59375 523.769531 C 13.269531 523.636719 12.964844 523.472656 12.671875 523.277344 C 12.382812 523.085938 12.113281 522.863281 11.867188 522.617188 C 11.621094 522.371094 11.402344 522.101562 11.207031 521.8125 C 11.011719 521.523438 10.847656 521.214844 10.714844 520.894531 C 10.582031 520.570312 10.480469 520.238281 10.414062 519.898438 C 10.34375 519.554688 10.3125 519.207031 10.3125 518.859375 C 10.3125 518.511719 10.34375 518.164062 10.414062 517.824219 C 10.480469 517.480469 10.582031 517.148438 10.714844 516.828125 C 10.847656 516.503906 11.011719 516.199219 11.207031 515.90625 C 11.402344 515.617188 11.621094 515.347656 11.867188 515.101562 C 12.113281 514.855469 12.382812 514.636719 12.671875 514.441406 C 12.964844 514.246094 13.269531 514.082031 13.59375 513.949219 C 13.914062 513.816406 14.246094 513.714844 14.589844 513.648438 C 14.929688 513.578125 15.277344 513.546875 15.625 513.546875 C 15.976562 513.546875 16.320312 513.578125 16.664062 513.648438 C 17.003906 513.714844 17.335938 513.816406 17.660156 513.949219 C 17.980469 514.082031 18.289062 514.246094 18.578125 514.441406 C 18.867188 514.636719 19.136719 514.855469 19.382812 515.101562 C 19.628906 515.347656 19.851562 515.617188 20.042969 515.90625 C 20.238281 516.199219 20.402344 516.503906 20.535156 516.828125 C 20.667969 517.148438 20.769531 517.480469 20.839844 517.824219 C 20.90625 518.164062 20.941406 518.511719 20.941406 518.859375 Z M 20.941406 518.859375 " fill-opacity="1" fill-rule="nonzero"/><path fill="#ffffff" d="M 37.472656 518.859375 C 37.472656 519.207031 37.441406 519.554688 37.371094 519.898438 C 37.304688 520.238281 37.203125 520.570312 37.070312 520.894531 C 36.9375 521.214844 36.773438 521.523438 36.578125 521.8125 C 36.386719 522.101562 36.164062 522.371094 35.917969 522.617188 C 35.671875 522.863281 35.402344 523.085938 35.113281 523.277344 C 34.824219 523.472656 34.515625 523.636719 34.195312 523.769531 C 33.871094 523.902344 33.539062 524.003906 33.195312 524.074219 C 32.855469 524.140625 32.507812 524.175781 32.160156 524.175781 C 31.8125 524.175781 31.464844 524.140625 31.125 524.074219 C 30.78125 524.003906 30.449219 523.902344 30.125 523.769531 C 29.804688 523.636719 29.496094 523.472656 29.207031 523.277344 C 28.917969 523.085938 28.648438 522.863281 28.402344 522.617188 C 28.15625 522.371094 27.933594 522.101562 27.742188 521.8125 C 27.546875 521.523438 27.382812 521.214844 27.25 520.894531 C 27.117188 520.570312 27.015625 520.238281 26.949219 519.898438 C 26.878906 519.554688 26.84375 519.207031 26.84375 518.859375 C 26.84375 518.511719 26.878906 518.164062 26.949219 517.824219 C 27.015625 517.480469 27.117188 517.148438 27.25 516.828125 C 27.382812 516.503906 27.546875 516.199219 27.742188 515.90625 C 27.933594 515.617188 28.15625 515.347656 28.402344 515.101562 C 28.648438 514.855469 28.917969 514.636719 29.207031 514.441406 C 29.496094 514.246094 29.804688 514.082031 30.125 513.949219 C 30.449219 513.816406 30.78125 513.714844 31.125 513.648438 C 31.464844 513.578125 31.8125 513.546875 32.160156 513.546875 C 32.507812 513.546875 32.855469 513.578125 33.195312 513.648438 C 33.539062 513.714844 33.871094 513.816406 34.195312 513.949219 C 34.515625 514.082031 34.824219 514.246094 35.113281 514.441406 C 35.402344 514.636719 35.671875 514.855469 35.917969 515.101562 C 36.164062 515.347656 36.386719 515.617188 36.578125 515.90625 C 36.773438 516.199219 36.9375 516.503906 37.070312 516.828125 C 37.203125 517.148438 37.304688 517.480469 37.371094 517.824219 C 37.441406 518.164062 37.472656 518.511719 37.472656 518.859375 Z M 37.472656 518.859375 " fill-opacity="1" fill-rule="nonzero"/><path fill="#ffffff" d="M 54.007812 518.859375 C 54.007812 519.207031 53.976562 519.554688 53.90625 519.898438 C 53.839844 520.238281 53.738281 520.570312 53.605469 520.894531 C 53.46875 521.214844 53.308594 521.523438 53.113281 521.8125 C 52.917969 522.101562 52.699219 522.371094 52.453125 522.617188 C 52.207031 522.863281 51.9375 523.085938 51.648438 523.277344 C 51.355469 523.472656 51.050781 523.636719 50.726562 523.769531 C 50.40625 523.902344 50.074219 524.003906 49.730469 524.074219 C 49.390625 524.140625 49.042969 524.175781 48.695312 524.175781 C 48.34375 524.175781 48 524.140625 47.65625 524.074219 C 47.316406 524.003906 46.984375 523.902344 46.660156 523.769531 C 46.339844 523.636719 46.03125 523.472656 45.742188 523.277344 C 45.453125 523.085938 45.183594 522.863281 44.9375 522.617188 C 44.691406 522.371094 44.46875 522.101562 44.273438 521.8125 C 44.082031 521.523438 43.917969 521.214844 43.785156 520.894531 C 43.652344 520.570312 43.550781 520.238281 43.480469 519.898438 C 43.414062 519.554688 43.378906 519.207031 43.378906 518.859375 C 43.378906 518.511719 43.414062 518.164062 43.480469 517.824219 C 43.550781 517.480469 43.652344 517.148438 43.785156 516.828125 C 43.917969 516.503906 44.082031 516.199219 44.273438 515.90625 C 44.46875 515.617188 44.691406 515.347656 44.9375 515.101562 C 45.183594 514.855469 45.453125 514.636719 45.742188 514.441406 C 46.03125 514.246094 46.339844 514.082031 46.660156 513.949219 C 46.984375 513.816406 47.316406 513.714844 47.65625 513.648438 C 48 513.578125 48.34375 513.546875 48.695312 513.546875 C 49.042969 513.546875 49.390625 513.578125 49.730469 513.648438 C 50.074219 513.714844 50.40625 513.816406 50.726562 513.949219 C 51.050781 514.082031 51.355469 514.246094 51.648438 514.441406 C 51.9375 514.636719 52.207031 514.855469 52.453125 515.101562 C 52.699219 515.347656 52.917969 515.617188 53.113281 515.90625 C 53.308594 516.199219 53.46875 516.503906 53.605469 516.828125 C 53.738281 517.148438 53.839844 517.480469 53.90625 517.824219 C 53.976562 518.164062 54.007812 518.511719 54.007812 518.859375 Z M 54.007812 518.859375 " fill-opacity="1" fill-rule="nonzero"/><path fill="#dcecfb" d="M 142.980469 516.089844 L 282.128906 516.089844 C 282.617188 516.089844 283.085938 516.183594 283.535156 516.371094 C 283.984375 516.558594 284.382812 516.824219 284.726562 517.167969 C 285.070312 517.511719 285.335938 517.910156 285.523438 518.359375 C 285.710938 518.808594 285.804688 519.277344 285.804688 519.765625 L 285.804688 527.667969 C 285.804688 528.152344 285.710938 528.621094 285.523438 529.074219 C 285.335938 529.523438 285.070312 529.921875 284.726562 530.265625 C 284.382812 530.609375 283.984375 530.875 283.535156 531.0625 C 283.085938 531.25 282.617188 531.34375 282.128906 531.34375 L 142.980469 531.34375 C 142.496094 531.34375 142.027344 531.25 141.574219 531.0625 C 141.125 530.875 140.726562 530.609375 140.382812 530.265625 C 140.039062 529.921875 139.773438 529.523438 139.585938 529.074219 C 139.398438 528.621094 139.308594 528.152344 139.308594 527.667969 L 139.308594 519.765625 C 139.308594 519.277344 139.398438 518.808594 139.585938 518.359375 C 139.773438 517.910156 140.039062 517.511719 140.382812 517.167969 C 140.726562 516.824219 141.125 516.558594 141.574219 516.371094 C 142.027344 516.183594 142.496094 516.089844 142.980469 516.089844 Z M 142.980469 516.089844 " fill-opacity="1" fill-rule="nonzero"/><g clip-path="url(#4fd6217990)"><path fill="#8c52ff" d="M 0.273438 547.976562 L 109.589844 547.976562 L 109.589844 809.980469 L 21.53125 809.980469 C 9.800781 809.980469 0.273438 800.453125 0.273438 788.722656 Z M 0.273438 547.976562 " fill-opacity="1" fill-rule="nonzero"/></g><path fill="#ffffff" d="M 142.851562 625.875 L 393.441406 625.875 C 393.910156 625.875 394.363281 625.964844 394.796875 626.144531 C 395.230469 626.324219 395.613281 626.578125 395.945312 626.914062 C 396.277344 627.246094 396.535156 627.628906 396.714844 628.0625 C 396.894531 628.496094 396.984375 628.949219 396.984375 629.417969 L 396.984375 789.3125 C 396.984375 789.78125 396.894531 790.234375 396.714844 790.667969 C 396.535156 791.101562 396.277344 791.484375 395.945312 791.820312 C 395.613281 792.152344 395.230469 792.40625 394.796875 792.585938 C 394.363281 792.765625 393.910156 792.855469 393.441406 792.855469 L 142.851562 792.855469 C 142.378906 792.855469 141.929688 792.765625 141.492188 792.585938 C 141.058594 792.40625 140.675781 792.152344 140.34375 791.820312 C 140.011719 791.484375 139.757812 791.101562 139.578125 790.667969 C 139.398438 790.234375 139.308594 789.78125 139.308594 789.3125 L 139.308594 629.417969 C 139.308594 628.949219 139.398438 628.496094 139.578125 628.0625 C 139.757812 627.628906 140.011719 627.246094 140.34375 626.914062 C 140.675781 626.578125 141.058594 626.324219 141.492188 626.144531 C 141.929688 625.964844 142.378906 625.875 142.851562 625.875 Z M 142.851562 625.875 " fill-opacity="1" fill-rule="nonzero"/><path fill="#ffffff" d="M 145.476562 570.734375 L 390.8125 570.734375 C 391.21875 570.734375 391.621094 570.773438 392.015625 570.851562 C 392.414062 570.929688 392.800781 571.046875 393.175781 571.203125 C 393.546875 571.359375 393.902344 571.546875 394.242188 571.773438 C 394.578125 571.996094 394.890625 572.253906 395.175781 572.539062 C 395.460938 572.828125 395.71875 573.136719 395.941406 573.476562 C 396.167969 573.8125 396.359375 574.167969 396.511719 574.542969 C 396.667969 574.917969 396.785156 575.300781 396.863281 575.699219 C 396.941406 576.097656 396.984375 576.496094 396.984375 576.902344 L 396.984375 612.046875 C 396.984375 612.453125 396.941406 612.855469 396.863281 613.253906 C 396.785156 613.648438 396.667969 614.035156 396.511719 614.410156 C 396.359375 614.785156 396.167969 615.140625 395.941406 615.476562 C 395.71875 615.8125 395.460938 616.125 395.175781 616.410156 C 394.890625 616.699219 394.578125 616.953125 394.242188 617.179688 C 393.902344 617.402344 393.546875 617.59375 393.175781 617.75 C 392.800781 617.902344 392.414062 618.019531 392.015625 618.101562 C 391.621094 618.179688 391.21875 618.21875 390.8125 618.21875 L 145.476562 618.21875 C 145.070312 618.21875 144.671875 618.179688 144.273438 618.101562 C 143.875 618.019531 143.488281 617.902344 143.117188 617.75 C 142.742188 617.59375 142.386719 617.402344 142.050781 617.179688 C 141.710938 616.953125 141.398438 616.699219 141.113281 616.410156 C 140.828125 616.125 140.570312 615.8125 140.347656 615.476562 C 140.121094 615.140625 139.929688 614.785156 139.777344 614.410156 C 139.621094 614.035156 139.503906 613.648438 139.425781 613.253906 C 139.347656 612.855469 139.308594 612.453125 139.308594 612.046875 L 139.308594 576.902344 C 139.308594 576.496094 139.347656 576.097656 139.425781 575.699219 C 139.503906 575.300781 139.621094 574.917969 139.777344 574.542969 C 139.929688 574.167969 140.121094 573.8125 140.347656 573.476562 C 140.570312 573.136719 140.828125 572.828125 141.113281 572.539062 C 141.398438 572.253906 141.710938 571.996094 142.050781 571.773438 C 142.386719 571.546875 142.742188 571.359375 143.117188 571.203125 C 143.488281 571.046875 143.875 570.929688 144.273438 570.851562 C 144.671875 570.773438 145.070312 570.734375 145.476562 570.734375 Z M 145.476562 570.734375 " fill-opacity="1" fill-rule="nonzero"/><path fill="#ffffff" d="M 17.988281 568.769531 L 29.796875 568.769531 C 30.109375 568.769531 30.414062 568.828125 30.703125 568.949219 C 30.992188 569.066406 31.246094 569.238281 31.46875 569.460938 C 31.691406 569.679688 31.859375 569.9375 31.980469 570.226562 C 32.101562 570.515625 32.160156 570.816406 32.160156 571.128906 L 32.160156 582.941406 C 32.160156 583.253906 32.101562 583.554688 31.980469 583.84375 C 31.859375 584.132812 31.691406 584.390625 31.46875 584.609375 C 31.246094 584.832031 30.992188 585.003906 30.703125 585.121094 C 30.414062 585.242188 30.109375 585.300781 29.796875 585.300781 L 17.988281 585.300781 C 17.675781 585.300781 17.375 585.242188 17.082031 585.121094 C 16.792969 585.003906 16.539062 584.832031 16.316406 584.609375 C 16.097656 584.390625 15.925781 584.132812 15.804688 583.84375 C 15.6875 583.554688 15.625 583.253906 15.625 582.941406 L 15.625 571.128906 C 15.625 570.816406 15.6875 570.515625 15.804688 570.226562 C 15.925781 569.9375 16.097656 569.679688 16.316406 569.460938 C 16.539062 569.238281 16.792969 569.066406 17.082031 568.949219 C 17.375 568.828125 17.675781 568.769531 17.988281 568.769531 Z M 17.988281 568.769531 " fill-opacity="1" fill-rule="nonzero"/><path fill="#ffffff" d="M 42.789062 570.734375 L 91.394531 570.734375 C 91.707031 570.734375 92.007812 570.792969 92.296875 570.914062 C 92.585938 571.03125 92.84375 571.203125 93.0625 571.425781 C 93.285156 571.648438 93.457031 571.902344 93.578125 572.191406 C 93.695312 572.480469 93.757812 572.78125 93.757812 573.09375 L 93.757812 580.976562 C 93.757812 581.289062 93.695312 581.589844 93.578125 581.878906 C 93.457031 582.167969 93.285156 582.425781 93.0625 582.644531 C 92.84375 582.867188 92.585938 583.039062 92.296875 583.15625 C 92.007812 583.277344 91.707031 583.335938 91.394531 583.335938 L 42.789062 583.335938 C 42.476562 583.335938 42.175781 583.277344 41.886719 583.15625 C 41.597656 583.039062 41.339844 582.867188 41.117188 582.644531 C 40.898438 582.425781 40.726562 582.167969 40.605469 581.878906 C 40.488281 581.589844 40.425781 581.289062 40.425781 580.976562 L 40.425781 573.09375 C 40.425781 572.78125 40.488281 572.480469 40.605469 572.191406 C 40.726562 571.902344 40.898438 571.648438 41.117188 571.425781 C 41.339844 571.203125 41.597656 571.03125 41.886719 570.914062 C 42.175781 570.792969 42.476562 570.734375 42.789062 570.734375 Z M 42.789062 570.734375 " fill-opacity="1" fill-rule="nonzero"/><path fill="#ffffff" d="M 17.988281 599.496094 L 29.796875 599.496094 C 30.109375 599.496094 30.414062 599.554688 30.703125 599.675781 C 30.992188 599.792969 31.246094 599.964844 31.46875 600.1875 C 31.691406 600.410156 31.859375 600.664062 31.980469 600.953125 C 32.101562 601.242188 32.160156 601.542969 32.160156 601.855469 L 32.160156 613.667969 C 32.160156 613.980469 32.101562 614.28125 31.980469 614.570312 C 31.859375 614.859375 31.691406 615.117188 31.46875 615.335938 C 31.246094 615.558594 30.992188 615.730469 30.703125 615.847656 C 30.414062 615.96875 30.109375 616.03125 29.796875 616.03125 L 17.988281 616.03125 C 17.675781 616.03125 17.375 615.96875 17.082031 615.847656 C 16.792969 615.730469 16.539062 615.558594 16.316406 615.335938 C 16.097656 615.117188 15.925781 614.859375 15.804688 614.570312 C 15.6875 614.28125 15.625 613.980469 15.625 613.667969 L 15.625 601.855469 C 15.625 601.542969 15.6875 601.242188 15.804688 600.953125 C 15.925781 600.664062 16.097656 600.410156 16.316406 600.1875 C 16.539062 599.964844 16.792969 599.792969 17.082031 599.675781 C 17.375 599.554688 17.675781 599.496094 17.988281 599.496094 Z M 17.988281 599.496094 " fill-opacity="1" fill-rule="nonzero"/><path fill="#ffffff" d="M 42.789062 601.449219 L 91.394531 601.449219 C 91.707031 601.449219 92.007812 601.511719 92.296875 601.628906 C 92.585938 601.75 92.84375 601.921875 93.0625 602.140625 C 93.285156 602.363281 93.457031 602.617188 93.578125 602.90625 C 93.695312 603.199219 93.757812 603.5 93.757812 603.8125 L 93.757812 611.691406 C 93.757812 612.003906 93.695312 612.304688 93.578125 612.597656 C 93.457031 612.886719 93.285156 613.140625 93.0625 613.363281 C 92.84375 613.582031 92.585938 613.753906 92.296875 613.875 C 92.007812 613.996094 91.707031 614.054688 91.394531 614.054688 L 42.789062 614.054688 C 42.476562 614.054688 42.175781 613.996094 41.886719 613.875 C 41.597656 613.753906 41.339844 613.582031 41.117188 613.363281 C 40.898438 613.140625 40.726562 612.886719 40.605469 612.597656 C 40.488281 612.304688 40.425781 612.003906 40.425781 611.691406 L 40.425781 603.8125 C 40.425781 603.5 40.488281 603.199219 40.605469 602.90625 C 40.726562 602.617188 40.898438 602.363281 41.117188 602.140625 C 41.339844 601.921875 41.597656 601.75 41.886719 601.628906 C 42.175781 601.511719 42.476562 601.449219 42.789062 601.449219 Z M 42.789062 601.449219 " fill-opacity="1" fill-rule="nonzero"/><path fill="#ffffff" d="M 17.988281 630.210938 L 29.796875 630.210938 C 30.109375 630.210938 30.414062 630.273438 30.703125 630.390625 C 30.992188 630.511719 31.246094 630.683594 31.46875 630.902344 C 31.691406 631.125 31.859375 631.378906 31.980469 631.667969 C 32.101562 631.960938 32.160156 632.261719 32.160156 632.574219 L 32.160156 644.382812 C 32.160156 644.695312 32.101562 645 31.980469 645.289062 C 31.859375 645.578125 31.691406 645.832031 31.46875 646.054688 C 31.246094 646.277344 30.992188 646.445312 30.703125 646.566406 C 30.414062 646.6875 30.109375 646.746094 29.796875 646.746094 L 17.988281 646.746094 C 17.675781 646.746094 17.375 646.6875 17.082031 646.566406 C 16.792969 646.445312 16.539062 646.277344 16.316406 646.054688 C 16.097656 645.832031 15.925781 645.578125 15.804688 645.289062 C 15.6875 645 15.625 644.695312 15.625 644.382812 L 15.625 632.574219 C 15.625 632.261719 15.6875 631.960938 15.804688 631.667969 C 15.925781 631.378906 16.097656 631.125 16.316406 630.902344 C 16.539062 630.683594 16.792969 630.511719 17.082031 630.390625 C 17.375 630.273438 17.675781 630.210938 17.988281 630.210938 Z M 17.988281 630.210938 " fill-opacity="1" fill-rule="nonzero"/><path fill="#ffffff" d="M 42.789062 632.175781 L 91.394531 632.175781 C 91.707031 632.175781 92.007812 632.238281 92.296875 632.355469 C 92.585938 632.476562 92.84375 632.648438 93.0625 632.867188 C 93.285156 633.089844 93.457031 633.34375 93.578125 633.636719 C 93.695312 633.925781 93.757812 634.226562 93.757812 634.539062 L 93.757812 642.417969 C 93.757812 642.730469 93.695312 643.035156 93.578125 643.324219 C 93.457031 643.613281 93.285156 643.867188 93.0625 644.089844 C 92.84375 644.3125 92.585938 644.480469 92.296875 644.601562 C 92.007812 644.722656 91.707031 644.78125 91.394531 644.78125 L 42.789062 644.78125 C 42.476562 644.78125 42.175781 644.722656 41.886719 644.601562 C 41.597656 644.480469 41.339844 644.3125 41.117188 644.089844 C 40.898438 643.867188 40.726562 643.613281 40.605469 643.324219 C 40.488281 643.035156 40.425781 642.730469 40.425781 642.417969 L 40.425781 634.539062 C 40.425781 634.226562 40.488281 633.925781 40.605469 633.636719 C 40.726562 633.34375 40.898438 633.089844 41.117188 632.867188 C 41.339844 632.648438 41.597656 632.476562 41.886719 632.355469 C 42.175781 632.238281 42.476562 632.175781 42.789062 632.175781 Z M 42.789062 632.175781 " fill-opacity="1" fill-rule="nonzero"/><path fill="#ffffff" d="M 17.988281 660.929688 L 29.796875 660.929688 C 30.109375 660.929688 30.414062 660.988281 30.703125 661.109375 C 30.992188 661.226562 31.246094 661.398438 31.46875 661.621094 C 31.691406 661.839844 31.859375 662.097656 31.980469 662.386719 C 32.101562 662.675781 32.160156 662.976562 32.160156 663.289062 L 32.160156 675.101562 C 32.160156 675.414062 32.101562 675.714844 31.980469 676.003906 C 31.859375 676.292969 31.691406 676.550781 31.46875 676.769531 C 31.246094 676.992188 30.992188 677.164062 30.703125 677.28125 C 30.414062 677.402344 30.109375 677.460938 29.796875 677.460938 L 17.988281 677.460938 C 17.675781 677.460938 17.375 677.402344 17.082031 677.28125 C 16.792969 677.164062 16.539062 676.992188 16.316406 676.769531 C 16.097656 676.550781 15.925781 676.292969 15.804688 676.003906 C 15.6875 675.714844 15.625 675.414062 15.625 675.101562 L 15.625 663.289062 C 15.625 662.976562 15.6875 662.675781 15.804688 662.386719 C 15.925781 662.097656 16.097656 661.839844 16.316406 661.621094 C 16.539062 661.398438 16.792969 661.226562 17.082031 661.109375 C 17.375 660.988281 17.675781 660.929688 17.988281 660.929688 Z M 17.988281 660.929688 " fill-opacity="1" fill-rule="nonzero"/><path fill="#ffffff" d="M 42.789062 662.894531 L 91.394531 662.894531 C 91.707031 662.894531 92.007812 662.953125 92.296875 663.074219 C 92.585938 663.191406 92.84375 663.363281 93.0625 663.585938 C 93.285156 663.808594 93.457031 664.0625 93.578125 664.351562 C 93.695312 664.640625 93.757812 664.941406 93.757812 665.253906 L 93.757812 673.136719 C 93.757812 673.449219 93.695312 673.75 93.578125 674.039062 C 93.457031 674.328125 93.285156 674.585938 93.0625 674.804688 C 92.84375 675.027344 92.585938 675.199219 92.296875 675.316406 C 92.007812 675.4375 91.707031 675.496094 91.394531 675.496094 L 42.789062 675.496094 C 42.476562 675.496094 42.175781 675.4375 41.886719 675.316406 C 41.597656 675.199219 41.339844 675.027344 41.117188 674.804688 C 40.898438 674.585938 40.726562 674.328125 40.605469 674.039062 C 40.488281 673.75 40.425781 673.449219 40.425781 673.136719 L 40.425781 665.253906 C 40.425781 664.941406 40.488281 664.640625 40.605469 664.351562 C 40.726562 664.0625 40.898438 663.808594 41.117188 663.585938 C 41.339844 663.363281 41.597656 663.191406 41.886719 663.074219 C 42.175781 662.953125 42.476562 662.894531 42.789062 662.894531 Z M 42.789062 662.894531 " fill-opacity="1" fill-rule="nonzero"/><path fill="#ffffff" d="M 17.988281 691.644531 L 29.796875 691.644531 C 30.109375 691.644531 30.414062 691.703125 30.703125 691.824219 C 30.992188 691.945312 31.246094 692.117188 31.46875 692.335938 C 31.691406 692.558594 31.859375 692.8125 31.980469 693.101562 C 32.101562 693.390625 32.160156 693.695312 32.160156 694.007812 L 32.160156 705.816406 C 32.160156 706.128906 32.101562 706.433594 31.980469 706.722656 C 31.859375 707.011719 31.691406 707.265625 31.46875 707.488281 C 31.246094 707.707031 30.992188 707.878906 30.703125 708 C 30.414062 708.121094 30.109375 708.179688 29.796875 708.179688 L 17.988281 708.179688 C 17.675781 708.179688 17.375 708.121094 17.082031 708 C 16.792969 707.878906 16.539062 707.707031 16.316406 707.488281 C 16.097656 707.265625 15.925781 707.011719 15.804688 706.722656 C 15.6875 706.433594 15.625 706.128906 15.625 705.816406 L 15.625 694.007812 C 15.625 693.695312 15.6875 693.390625 15.804688 693.101562 C 15.925781 692.8125 16.097656 692.558594 16.316406 692.335938 C 16.539062 692.117188 16.792969 691.945312 17.082031 691.824219 C 17.375 691.703125 17.675781 691.644531 17.988281 691.644531 Z M 17.988281 691.644531 " fill-opacity="1" fill-rule="nonzero"/><path fill="#ffffff" d="M 42.789062 693.609375 L 91.394531 693.609375 C 91.707031 693.609375 92.007812 693.671875 92.296875 693.789062 C 92.585938 693.910156 92.84375 694.082031 93.0625 694.300781 C 93.285156 694.523438 93.457031 694.777344 93.578125 695.066406 C 93.695312 695.359375 93.757812 695.660156 93.757812 695.972656 L 93.757812 703.851562 C 93.757812 704.164062 93.695312 704.46875 93.578125 704.757812 C 93.457031 705.046875 93.285156 705.300781 93.0625 705.523438 C 92.84375 705.742188 92.585938 705.914062 92.296875 706.035156 C 92.007812 706.15625 91.707031 706.214844 91.394531 706.214844 L 42.789062 706.214844 C 42.476562 706.214844 42.175781 706.15625 41.886719 706.035156 C 41.597656 705.914062 41.339844 705.742188 41.117188 705.523438 C 40.898438 705.300781 40.726562 705.046875 40.605469 704.757812 C 40.488281 704.46875 40.425781 704.164062 40.425781 703.851562 L 40.425781 695.972656 C 40.425781 695.660156 40.488281 695.359375 40.605469 695.066406 C 40.726562 694.777344 40.898438 694.523438 41.117188 694.300781 C 41.339844 694.082031 41.597656 693.910156 41.886719 693.789062 C 42.175781 693.671875 42.476562 693.609375 42.789062 693.609375 Z M 42.789062 693.609375 " fill-opacity="1" fill-rule="nonzero"/><path fill="#8c52ff" d="M 153.550781 639.914062 L 198.023438 639.914062 C 198.425781 639.914062 198.8125 639.992188 199.1875 640.144531 C 199.558594 640.300781 199.890625 640.519531 200.175781 640.804688 C 200.460938 641.089844 200.679688 641.421875 200.835938 641.792969 C 200.988281 642.167969 201.066406 642.554688 201.066406 642.957031 C 201.066406 643.363281 200.988281 643.75 200.835938 644.125 C 200.679688 644.496094 200.460938 644.824219 200.175781 645.109375 C 199.890625 645.398438 199.558594 645.617188 199.1875 645.769531 C 198.8125 645.925781 198.425781 646.003906 198.023438 646.003906 L 153.550781 646.003906 C 153.148438 646.003906 152.757812 645.925781 152.386719 645.769531 C 152.011719 645.617188 151.683594 645.398438 151.398438 645.109375 C 151.113281 644.824219 150.890625 644.496094 150.738281 644.125 C 150.582031 643.75 150.507812 643.363281 150.507812 642.957031 C 150.507812 642.554688 150.582031 642.167969 150.738281 641.792969 C 150.890625 641.421875 151.113281 641.089844 151.398438 640.804688 C 151.683594 640.519531 152.011719 640.300781 152.386719 640.144531 C 152.757812 639.992188 153.148438 639.914062 153.550781 639.914062 Z M 153.550781 639.914062 " fill-opacity="1" fill-rule="nonzero"/><path fill="#8c52ff" d="M 153.550781 578.847656 L 198.023438 578.847656 C 198.425781 578.847656 198.8125 578.925781 199.1875 579.078125 C 199.558594 579.234375 199.890625 579.453125 200.175781 579.738281 C 200.460938 580.023438 200.679688 580.355469 200.835938 580.726562 C 200.988281 581.101562 201.066406 581.488281 201.066406 581.890625 C 201.066406 582.296875 200.988281 582.683594 200.835938 583.058594 C 200.679688 583.429688 200.460938 583.757812 200.175781 584.042969 C 199.890625 584.328125 199.558594 584.550781 199.1875 584.703125 C 198.8125 584.859375 198.425781 584.9375 198.023438 584.9375 L 153.550781 584.9375 C 153.148438 584.9375 152.757812 584.859375 152.386719 584.703125 C 152.011719 584.550781 151.683594 584.328125 151.398438 584.042969 C 151.113281 583.757812 150.890625 583.429688 150.738281 583.058594 C 150.582031 582.683594 150.507812 582.296875 150.507812 581.890625 C 150.507812 581.488281 150.582031 581.101562 150.738281 580.726562 C 150.890625 580.355469 151.113281 580.023438 151.398438 579.738281 C 151.683594 579.453125 152.011719 579.234375 152.386719 579.078125 C 152.757812 578.925781 153.148438 578.847656 153.550781 578.847656 Z M 153.550781 578.847656 " fill-opacity="1" fill-rule="nonzero"/><path fill="#8c52ff" d="M 153.550781 723.96875 L 198.023438 723.96875 C 198.425781 723.96875 198.8125 724.046875 199.1875 724.203125 C 199.558594 724.355469 199.890625 724.578125 200.175781 724.863281 C 200.460938 725.148438 200.679688 725.476562 200.835938 725.847656 C 200.988281 726.222656 201.066406 726.609375 201.066406 727.015625 C 201.066406 727.417969 200.988281 727.804688 200.835938 728.179688 C 200.679688 728.550781 200.460938 728.882812 200.175781 729.167969 C 199.890625 729.453125 199.558594 729.671875 199.1875 729.828125 C 198.8125 729.980469 198.425781 730.058594 198.023438 730.058594 L 153.550781 730.058594 C 153.148438 730.058594 152.757812 729.980469 152.386719 729.828125 C 152.011719 729.671875 151.683594 729.453125 151.398438 729.167969 C 151.113281 728.882812 150.890625 728.550781 150.738281 728.179688 C 150.582031 727.804688 150.507812 727.417969 150.507812 727.015625 C 150.507812 726.609375 150.582031 726.222656 150.738281 725.847656 C 150.890625 725.476562 151.113281 725.148438 151.398438 724.863281 C 151.683594 724.578125 152.011719 724.355469 152.386719 724.203125 C 152.757812 724.046875 153.148438 723.96875 153.550781 723.96875 Z M 153.550781 723.96875 " fill-opacity="1" fill-rule="nonzero"/><path fill="#dcecfb" d="M 386.921875 709.949219 L 149.386719 709.949219 C 149.058594 709.949219 148.796875 709.6875 148.796875 709.359375 C 148.796875 709.035156 149.058594 708.769531 149.386719 708.769531 L 386.921875 708.769531 C 387.25 708.769531 387.515625 709.035156 387.515625 709.359375 C 387.515625 709.6875 387.25 709.949219 386.921875 709.949219 Z M 386.921875 709.949219 " fill-opacity="1" fill-rule="nonzero"/><g clip-path="url(#4fb5b3e755)"><path fill="#d2e6fd" d="M 971.398438 0.148438 L 1415.308594 0.148438 C 1416.117188 0.148438 1416.925781 0.1875 1417.730469 0.269531 C 1418.535156 0.347656 1419.335938 0.464844 1420.128906 0.625 C 1420.921875 0.78125 1421.707031 0.976562 1422.480469 1.210938 C 1423.253906 1.449219 1424.015625 1.71875 1424.761719 2.027344 C 1425.507812 2.339844 1426.238281 2.683594 1426.953125 3.066406 C 1427.667969 3.445312 1428.359375 3.863281 1429.03125 4.3125 C 1429.707031 4.761719 1430.355469 5.242188 1430.980469 5.753906 C 1431.605469 6.269531 1432.203125 6.8125 1432.777344 7.382812 C 1433.347656 7.957031 1433.890625 8.554688 1434.402344 9.179688 C 1434.917969 9.804688 1435.398438 10.453125 1435.847656 11.125 C 1436.296875 11.800781 1436.710938 12.492188 1437.09375 13.207031 C 1437.476562 13.917969 1437.820312 14.648438 1438.128906 15.398438 C 1438.4375 16.144531 1438.710938 16.90625 1438.945312 17.679688 C 1439.179688 18.453125 1439.378906 19.238281 1439.535156 20.03125 C 1439.691406 20.824219 1439.8125 21.621094 1439.890625 22.429688 C 1439.96875 23.234375 1440.011719 24.039062 1440.011719 24.847656 L 1440.011719 320.5625 C 1440.011719 321.371094 1439.96875 322.179688 1439.890625 322.984375 C 1439.8125 323.789062 1439.691406 324.585938 1439.535156 325.382812 C 1439.378906 326.175781 1439.179688 326.957031 1438.945312 327.730469 C 1438.710938 328.507812 1438.4375 329.265625 1438.128906 330.015625 C 1437.820312 330.761719 1437.476562 331.492188 1437.09375 332.207031 C 1436.710938 332.917969 1436.296875 333.613281 1435.847656 334.285156 C 1435.398438 334.957031 1434.917969 335.605469 1434.402344 336.230469 C 1433.890625 336.855469 1433.347656 337.457031 1432.777344 338.027344 C 1432.203125 338.601562 1431.605469 339.140625 1430.980469 339.65625 C 1430.355469 340.167969 1429.707031 340.648438 1429.03125 341.097656 C 1428.359375 341.550781 1427.667969 341.964844 1426.953125 342.34375 C 1426.238281 342.726562 1425.507812 343.074219 1424.761719 343.382812 C 1424.015625 343.691406 1423.253906 343.964844 1422.480469 344.199219 C 1421.707031 344.433594 1420.921875 344.628906 1420.128906 344.789062 C 1419.335938 344.945312 1418.535156 345.0625 1417.730469 345.144531 C 1416.925781 345.222656 1416.117188 345.261719 1415.308594 345.261719 L 971.398438 345.261719 C 970.589844 345.261719 969.78125 345.222656 968.976562 345.144531 C 968.171875 345.0625 967.371094 344.945312 966.578125 344.789062 C 965.785156 344.628906 965 344.433594 964.226562 344.199219 C 963.453125 343.964844 962.691406 343.691406 961.945312 343.382812 C 961.199219 343.074219 960.46875 342.726562 959.753906 342.34375 C 959.039062 341.964844 958.347656 341.550781 957.675781 341.097656 C 957.003906 340.648438 956.351562 340.167969 955.726562 339.65625 C 955.101562 339.140625 954.503906 338.601562 953.933594 338.027344 C 953.359375 337.457031 952.816406 336.855469 952.304688 336.230469 C 951.789062 335.605469 951.308594 334.957031 950.859375 334.285156 C 950.410156 333.613281 949.996094 332.917969 949.613281 332.207031 C 949.234375 331.492188 948.886719 330.761719 948.578125 330.015625 C 948.269531 329.265625 947.996094 328.507812 947.761719 327.730469 C 947.527344 326.957031 947.328125 326.175781 947.171875 325.382812 C 947.015625 324.585938 946.894531 323.789062 946.816406 322.984375 C 946.738281 322.179688 946.699219 321.371094 946.699219 320.5625 L 946.699219 24.847656 C 946.699219 24.039062 946.738281 23.234375 946.816406 22.429688 C 946.894531 21.621094 947.015625 20.824219 947.171875 20.03125 C 947.328125 19.238281 947.527344 18.453125 947.761719 17.679688 C 947.996094 16.90625 948.269531 16.144531 948.578125 15.398438 C 948.886719 14.648438 949.234375 13.917969 949.613281 13.207031 C 949.996094 12.492188 950.410156 11.800781 950.859375 11.125 C 951.308594 10.453125 951.789062 9.804688 952.304688 9.179688 C 952.816406 8.554688 953.359375 7.957031 953.933594 7.382812 C 954.503906 6.8125 955.101562 6.269531 955.726562 5.753906 C 956.351562 5.242188 957.003906 4.761719 957.675781 4.3125 C 958.347656 3.863281 959.039062 3.445312 959.753906 3.066406 C 960.46875 2.683594 961.199219 2.339844 961.945312 2.027344 C 962.691406 1.71875 963.453125 1.449219 964.226562 1.210938 C 965 0.976562 965.785156 0.78125 966.578125 0.625 C 967.371094 0.464844 968.171875 0.347656 968.976562 0.269531 C 969.78125 0.1875 970.589844 0.148438 971.398438 0.148438 Z M 971.398438 0.148438 " fill-opacity="1" fill-rule="nonzero"/></g><g clip-path="url(#d8f554f3fc)"><path fill="#8c52ff" d="M 971.398438 0.148438 L 1415.308594 0.148438 C 1428.9375 0.148438 1440.011719 11.222656 1440.011719 24.847656 L 1440.011719 36.511719 L 946.699219 36.511719 L 946.699219 24.847656 C 946.699219 11.222656 957.769531 0.148438 971.398438 0.148438 Z M 971.398438 0.148438 " fill-opacity="1" fill-rule="nonzero"/></g><path fill="#f4f4f4" d="M 978.945312 19.359375 C 978.945312 19.765625 978.90625 20.167969 978.824219 20.566406 C 978.746094 20.960938 978.628906 21.347656 978.472656 21.722656 C 978.320312 22.097656 978.128906 22.453125 977.902344 22.789062 C 977.679688 23.128906 977.421875 23.441406 977.136719 23.726562 C 976.847656 24.011719 976.539062 24.269531 976.199219 24.496094 C 975.863281 24.71875 975.507812 24.910156 975.132812 25.066406 C 974.757812 25.21875 974.371094 25.335938 973.972656 25.417969 C 973.578125 25.496094 973.175781 25.535156 972.769531 25.535156 C 972.363281 25.535156 971.960938 25.496094 971.566406 25.417969 C 971.167969 25.335938 970.78125 25.21875 970.40625 25.066406 C 970.03125 24.910156 969.675781 24.71875 969.339844 24.496094 C 969 24.269531 968.691406 24.011719 968.402344 23.726562 C 968.117188 23.441406 967.859375 23.128906 967.636719 22.789062 C 967.410156 22.453125 967.21875 22.097656 967.066406 21.722656 C 966.910156 21.347656 966.792969 20.960938 966.714844 20.566406 C 966.632812 20.167969 966.59375 19.765625 966.59375 19.359375 C 966.59375 18.953125 966.632812 18.554688 966.714844 18.15625 C 966.792969 17.757812 966.910156 17.371094 967.066406 16.996094 C 967.21875 16.621094 967.410156 16.265625 967.636719 15.929688 C 967.859375 15.59375 968.117188 15.28125 968.402344 14.992188 C 968.691406 14.707031 969 14.449219 969.339844 14.226562 C 969.675781 14 970.03125 13.808594 970.40625 13.65625 C 970.78125 13.5 971.167969 13.382812 971.566406 13.304688 C 971.960938 13.226562 972.363281 13.183594 972.769531 13.183594 C 973.175781 13.183594 973.578125 13.226562 973.972656 13.304688 C 974.371094 13.382812 974.757812 13.5 975.132812 13.65625 C 975.507812 13.808594 975.863281 14 976.199219 14.226562 C 976.539062 14.449219 976.847656 14.707031 977.136719 14.992188 C 977.421875 15.28125 977.679688 15.59375 977.902344 15.929688 C 978.128906 16.265625 978.320312 16.621094 978.472656 16.996094 C 978.628906 17.371094 978.746094 17.757812 978.824219 18.15625 C 978.90625 18.554688 978.945312 18.953125 978.945312 19.359375 Z M 978.945312 19.359375 " fill-opacity="1" fill-rule="nonzero"/><path fill="#f4f4f4" d="M 998.15625 19.359375 C 998.15625 19.765625 998.117188 20.167969 998.035156 20.566406 C 997.957031 20.960938 997.839844 21.347656 997.683594 21.722656 C 997.53125 22.097656 997.339844 22.453125 997.113281 22.789062 C 996.890625 23.128906 996.632812 23.441406 996.347656 23.726562 C 996.058594 24.011719 995.75 24.269531 995.410156 24.496094 C 995.074219 24.71875 994.71875 24.910156 994.34375 25.066406 C 993.96875 25.21875 993.582031 25.335938 993.183594 25.417969 C 992.789062 25.496094 992.386719 25.535156 991.980469 25.535156 C 991.574219 25.535156 991.171875 25.496094 990.777344 25.417969 C 990.378906 25.335938 989.992188 25.21875 989.617188 25.066406 C 989.242188 24.910156 988.886719 24.71875 988.550781 24.496094 C 988.210938 24.269531 987.902344 24.011719 987.613281 23.726562 C 987.328125 23.441406 987.070312 23.128906 986.847656 22.789062 C 986.621094 22.453125 986.429688 22.097656 986.277344 21.722656 C 986.121094 21.347656 986.003906 20.960938 985.925781 20.566406 C 985.84375 20.167969 985.804688 19.765625 985.804688 19.359375 C 985.804688 18.953125 985.84375 18.554688 985.925781 18.15625 C 986.003906 17.757812 986.121094 17.371094 986.277344 16.996094 C 986.429688 16.621094 986.621094 16.265625 986.847656 15.929688 C 987.070312 15.59375 987.328125 15.28125 987.613281 14.992188 C 987.902344 14.707031 988.210938 14.449219 988.550781 14.226562 C 988.886719 14 989.242188 13.808594 989.617188 13.65625 C 989.992188 13.5 990.378906 13.382812 990.777344 13.304688 C 991.171875 13.226562 991.574219 13.183594 991.980469 13.183594 C 992.386719 13.183594 992.789062 13.226562 993.183594 13.304688 C 993.582031 13.382812 993.96875 13.5 994.34375 13.65625 C 994.71875 13.808594 995.074219 14 995.410156 14.226562 C 995.75 14.449219 996.058594 14.707031 996.347656 14.992188 C 996.632812 15.28125 996.890625 15.59375 997.113281 15.929688 C 997.339844 16.265625 997.53125 16.621094 997.683594 16.996094 C 997.839844 17.371094 997.957031 17.757812 998.035156 18.15625 C 998.117188 18.554688 998.15625 18.953125 998.15625 19.359375 Z M 998.15625 19.359375 " fill-opacity="1" fill-rule="nonzero"/><path fill="#f4f4f4" d="M 1017.367188 19.359375 C 1017.367188 19.765625 1017.328125 20.167969 1017.246094 20.566406 C 1017.167969 20.960938 1017.050781 21.347656 1016.898438 21.722656 C 1016.742188 22.097656 1016.550781 22.453125 1016.324219 22.789062 C 1016.101562 23.128906 1015.84375 23.441406 1015.558594 23.726562 C 1015.269531 24.011719 1014.960938 24.269531 1014.621094 24.496094 C 1014.285156 24.71875 1013.929688 24.910156 1013.554688 25.066406 C 1013.179688 25.21875 1012.792969 25.335938 1012.394531 25.417969 C 1012 25.496094 1011.597656 25.535156 1011.191406 25.535156 C 1010.785156 25.535156 1010.382812 25.496094 1009.988281 25.417969 C 1009.589844 25.335938 1009.203125 25.21875 1008.828125 25.066406 C 1008.453125 24.910156 1008.097656 24.71875 1007.761719 24.496094 C 1007.425781 24.269531 1007.113281 24.011719 1006.824219 23.726562 C 1006.539062 23.441406 1006.28125 23.128906 1006.058594 22.789062 C 1005.832031 22.453125 1005.640625 22.097656 1005.488281 21.722656 C 1005.332031 21.347656 1005.214844 20.960938 1005.136719 20.566406 C 1005.054688 20.167969 1005.015625 19.765625 1005.015625 19.359375 C 1005.015625 18.953125 1005.054688 18.554688 1005.136719 18.15625 C 1005.214844 17.757812 1005.332031 17.371094 1005.488281 16.996094 C 1005.640625 16.621094 1005.832031 16.265625 1006.058594 15.929688 C 1006.28125 15.59375 1006.539062 15.28125 1006.824219 14.992188 C 1007.113281 14.707031 1007.425781 14.449219 1007.761719 14.226562 C 1008.097656 14 1008.453125 13.808594 1008.828125 13.65625 C 1009.203125 13.5 1009.589844 13.382812 1009.988281 13.304688 C 1010.382812 13.226562 1010.785156 13.183594 1011.191406 13.183594 C 1011.597656 13.183594 1012 13.226562 1012.394531 13.304688 C 1012.792969 13.382812 1013.179688 13.5 1013.554688 13.65625 C 1013.929688 13.808594 1014.285156 14 1014.621094 14.226562 C 1014.960938 14.449219 1015.269531 14.707031 1015.558594 14.992188 C 1015.84375 15.28125 1016.101562 15.59375 1016.324219 15.929688 C 1016.550781 16.265625 1016.742188 16.621094 1016.898438 16.996094 C 1017.050781 17.371094 1017.167969 17.757812 1017.246094 18.15625 C 1017.328125 18.554688 1017.367188 18.953125 1017.367188 19.359375 Z M 1017.367188 19.359375 " fill-opacity="1" fill-rule="nonzero"/><path fill="#ffffff" d="M 996.476562 78.128906 L 1167.222656 78.128906 C 1167.945312 78.128906 1168.660156 78.199219 1169.367188 78.339844 C 1170.078125 78.480469 1170.765625 78.691406 1171.433594 78.964844 C 1172.101562 79.242188 1172.734375 79.582031 1173.335938 79.984375 C 1173.933594 80.382812 1174.492188 80.839844 1175 81.351562 C 1175.511719 81.863281 1175.96875 82.417969 1176.371094 83.019531 C 1176.769531 83.617188 1177.109375 84.253906 1177.386719 84.921875 C 1177.664062 85.585938 1177.871094 86.277344 1178.011719 86.984375 C 1178.152344 87.691406 1178.222656 88.40625 1178.222656 89.128906 L 1178.222656 290.738281 C 1178.222656 291.460938 1178.152344 292.179688 1178.011719 292.886719 C 1177.871094 293.59375 1177.664062 294.28125 1177.386719 294.949219 C 1177.109375 295.617188 1176.769531 296.25 1176.371094 296.851562 C 1175.96875 297.453125 1175.511719 298.007812 1175 298.519531 C 1174.492188 299.03125 1173.933594 299.484375 1173.335938 299.886719 C 1172.734375 300.289062 1172.101562 300.628906 1171.433594 300.902344 C 1170.765625 301.179688 1170.078125 301.390625 1169.367188 301.53125 C 1168.660156 301.671875 1167.945312 301.742188 1167.222656 301.742188 L 996.476562 301.742188 C 995.753906 301.742188 995.039062 301.671875 994.328125 301.53125 C 993.621094 301.390625 992.933594 301.179688 992.265625 300.902344 C 991.597656 300.628906 990.964844 300.289062 990.363281 299.886719 C 989.761719 299.484375 989.207031 299.03125 988.695312 298.519531 C 988.1875 298.007812 987.730469 297.453125 987.328125 296.851562 C 986.925781 296.25 986.589844 295.617188 986.3125 294.949219 C 986.035156 294.28125 985.828125 293.59375 985.6875 292.886719 C 985.542969 292.179688 985.472656 291.460938 985.472656 290.738281 L 985.472656 89.128906 C 985.472656 88.40625 985.542969 87.691406 985.6875 86.984375 C 985.828125 86.277344 986.035156 85.585938 986.3125 84.921875 C 986.589844 84.253906 986.925781 83.617188 987.328125 83.019531 C 987.730469 82.417969 988.1875 81.863281 988.695312 81.351562 C 989.207031 80.839844 989.761719 80.382812 990.363281 79.984375 C 990.964844 79.582031 991.597656 79.242188 992.265625 78.964844 C 992.933594 78.691406 993.621094 78.480469 994.328125 78.339844 C 995.039062 78.199219 995.753906 78.128906 996.476562 78.128906 Z M 996.476562 78.128906 " fill-opacity="1" fill-rule="nonzero"/><path fill="#ffffff" d="M 1208.496094 77.773438 L 1391.652344 77.773438 C 1392.398438 77.773438 1393.136719 77.847656 1393.867188 77.992188 C 1394.601562 78.136719 1395.3125 78.355469 1396 78.640625 C 1396.691406 78.925781 1397.347656 79.273438 1397.96875 79.691406 C 1398.585938 80.105469 1399.160156 80.574219 1399.691406 81.105469 C 1400.21875 81.632812 1400.6875 82.207031 1401.101562 82.828125 C 1401.519531 83.445312 1401.867188 84.101562 1402.152344 84.792969 C 1402.441406 85.480469 1402.65625 86.191406 1402.800781 86.925781 C 1402.945312 87.65625 1403.019531 88.394531 1403.019531 89.140625 L 1403.019531 290.019531 C 1403.019531 290.765625 1402.945312 291.503906 1402.800781 292.234375 C 1402.65625 292.96875 1402.441406 293.679688 1402.152344 294.367188 C 1401.867188 295.058594 1401.519531 295.714844 1401.101562 296.335938 C 1400.6875 296.953125 1400.21875 297.527344 1399.691406 298.058594 C 1399.160156 298.585938 1398.585938 299.054688 1397.964844 299.472656 C 1397.347656 299.886719 1396.691406 300.234375 1396 300.519531 C 1395.3125 300.808594 1394.601562 301.023438 1393.867188 301.167969 C 1393.136719 301.3125 1392.398438 301.386719 1391.652344 301.386719 L 1208.496094 301.386719 C 1207.75 301.386719 1207.007812 301.3125 1206.277344 301.167969 C 1205.546875 301.023438 1204.835938 300.808594 1204.144531 300.519531 C 1203.457031 300.234375 1202.800781 299.886719 1202.179688 299.472656 C 1201.558594 299.054688 1200.984375 298.585938 1200.457031 298.058594 C 1199.929688 297.527344 1199.457031 296.953125 1199.042969 296.335938 C 1198.628906 295.714844 1198.277344 295.058594 1197.992188 294.367188 C 1197.707031 293.679688 1197.492188 292.96875 1197.34375 292.238281 C 1197.199219 291.503906 1197.128906 290.765625 1197.128906 290.019531 L 1197.128906 89.140625 C 1197.128906 88.394531 1197.199219 87.65625 1197.34375 86.925781 C 1197.492188 86.191406 1197.707031 85.480469 1197.992188 84.792969 C 1198.277344 84.101562 1198.628906 83.445312 1199.042969 82.828125 C 1199.457031 82.207031 1199.929688 81.632812 1200.457031 81.105469 C 1200.984375 80.574219 1201.558594 80.105469 1202.179688 79.691406 C 1202.800781 79.273438 1203.457031 78.925781 1204.144531 78.640625 C 1204.835938 78.355469 1205.546875 78.136719 1206.277344 77.992188 C 1207.007812 77.847656 1207.75 77.773438 1208.496094 77.773438 Z M 1208.496094 77.773438 " fill-opacity="1" fill-rule="nonzero"/><path fill="#8c52ff" d="M 1102.703125 226.339844 C 1096.566406 229.867188 1089.445312 231.886719 1081.847656 231.886719 C 1058.6875 231.886719 1039.902344 213.101562 1039.902344 189.929688 C 1039.902344 166.753906 1058.6875 147.980469 1081.847656 147.980469 L 1081.847656 115.757812 C 1040.882812 115.757812 1007.679688 148.964844 1007.679688 189.929688 C 1007.679688 230.894531 1040.882812 264.113281 1081.847656 264.113281 C 1095.289062 264.113281 1107.863281 260.539062 1118.734375 254.316406 L 1102.703125 226.351562 Z M 1102.703125 226.339844 " fill-opacity="1" fill-rule="nonzero"/><g mask="url(#f6db3537c9)"><g transform="matrix(1, 0, 0, 1, 1102, 189)"><g clip-path="url(#80f9980c24)"><g clip-path="url(#13711a9755)"><path fill="#8c52ff" d="M 54.019531 0.929688 C 54.019531 28.46875 39.007812 52.503906 16.734375 65.316406 L 0.703125 37.351562 C 13.316406 30.125 21.808594 16.519531 21.808594 0.929688 Z M 54.019531 0.929688 " fill-opacity="1" fill-rule="nonzero"/></g></g></g></g><path fill="#d2e6fd" d="M 1156.019531 189.929688 L 1123.808594 189.929688 C 1123.808594 166.765625 1105.023438 147.980469 1081.847656 147.980469 L 1081.847656 115.757812 C 1122.816406 115.757812 1156.019531 148.964844 1156.019531 189.929688 Z M 1156.019531 189.929688 " fill-opacity="1" fill-rule="nonzero"/><path fill="#8c52ff" d="M 1218.480469 93.875 L 1267.535156 93.875 C 1267.988281 93.875 1268.417969 93.960938 1268.835938 94.132812 C 1269.25 94.304688 1269.617188 94.550781 1269.9375 94.867188 C 1270.253906 95.1875 1270.5 95.554688 1270.671875 95.96875 C 1270.84375 96.386719 1270.929688 96.820312 1270.929688 97.269531 L 1270.929688 97.28125 C 1270.929688 97.730469 1270.84375 98.164062 1270.671875 98.582031 C 1270.5 98.996094 1270.253906 99.363281 1269.9375 99.679688 C 1269.617188 100 1269.25 100.246094 1268.835938 100.417969 C 1268.417969 100.589844 1267.988281 100.675781 1267.535156 100.675781 L 1218.480469 100.675781 C 1218.027344 100.675781 1217.597656 100.589844 1217.179688 100.417969 C 1216.765625 100.246094 1216.398438 100 1216.078125 99.679688 C 1215.761719 99.363281 1215.515625 98.996094 1215.34375 98.582031 C 1215.171875 98.164062 1215.085938 97.730469 1215.085938 97.28125 L 1215.085938 97.269531 C 1215.085938 96.820312 1215.171875 96.386719 1215.34375 95.96875 C 1215.515625 95.554688 1215.761719 95.1875 1216.078125 94.867188 C 1216.398438 94.550781 1216.765625 94.304688 1217.179688 94.132812 C 1217.597656 93.960938 1218.027344 93.875 1218.480469 93.875 Z M 1218.480469 93.875 " fill-opacity="1" fill-rule="nonzero"/><path fill="#8c52ff" d="M 1005.84375 93.875 L 1054.902344 93.875 C 1055.351562 93.875 1055.785156 93.960938 1056.199219 94.132812 C 1056.617188 94.304688 1056.984375 94.550781 1057.300781 94.867188 C 1057.621094 95.1875 1057.867188 95.554688 1058.039062 95.96875 C 1058.210938 96.386719 1058.296875 96.820312 1058.296875 97.269531 L 1058.296875 97.28125 C 1058.296875 97.730469 1058.210938 98.164062 1058.039062 98.582031 C 1057.867188 98.996094 1057.621094 99.363281 1057.300781 99.679688 C 1056.984375 100 1056.617188 100.246094 1056.199219 100.417969 C 1055.785156 100.589844 1055.351562 100.675781 1054.902344 100.675781 L 1005.84375 100.675781 C 1005.394531 100.675781 1004.960938 100.589844 1004.546875 100.417969 C 1004.128906 100.246094 1003.761719 100 1003.445312 99.679688 C 1003.125 99.363281 1002.878906 98.996094 1002.707031 98.582031 C 1002.535156 98.164062 1002.449219 97.730469 1002.449219 97.28125 L 1002.449219 97.269531 C 1002.449219 96.820312 1002.535156 96.386719 1002.707031 95.96875 C 1002.878906 95.554688 1003.125 95.1875 1003.445312 94.867188 C 1003.761719 94.550781 1004.128906 94.304688 1004.546875 94.132812 C 1004.960938 93.960938 1005.394531 93.875 1005.84375 93.875 Z M 1005.84375 93.875 " fill-opacity="1" fill-rule="nonzero"/><path fill="#8c52ff" d="M 1218.480469 191.289062 L 1267.535156 191.289062 C 1267.988281 191.289062 1268.417969 191.375 1268.835938 191.546875 C 1269.25 191.71875 1269.617188 191.964844 1269.9375 192.285156 C 1270.253906 192.601562 1270.5 192.96875 1270.671875 193.386719 C 1270.84375 193.800781 1270.929688 194.234375 1270.929688 194.683594 L 1270.929688 194.695312 C 1270.929688 195.148438 1270.84375 195.578125 1270.671875 195.996094 C 1270.5 196.410156 1270.253906 196.777344 1269.9375 197.097656 C 1269.617188 197.414062 1269.25 197.660156 1268.835938 197.832031 C 1268.417969 198.003906 1267.988281 198.089844 1267.535156 198.089844 L 1218.480469 198.089844 C 1218.027344 198.089844 1217.597656 198.003906 1217.179688 197.832031 C 1216.765625 197.660156 1216.398438 197.414062 1216.078125 197.097656 C 1215.761719 196.777344 1215.515625 196.410156 1215.34375 195.996094 C 1215.171875 195.578125 1215.085938 195.148438 1215.085938 194.695312 L 1215.085938 194.683594 C 1215.085938 194.234375 1215.171875 193.800781 1215.34375 193.386719 C 1215.515625 192.96875 1215.761719 192.601562 1216.078125 192.285156 C 1216.398438 191.964844 1216.765625 191.71875 1217.179688 191.546875 C 1217.597656 191.375 1218.027344 191.289062 1218.480469 191.289062 Z M 1218.480469 191.289062 " fill-opacity="1" fill-rule="nonzero"/><g clip-path="url(#9351435449)"><path fill="#7ed957" d="M 724.816406 166.675781 C 717.609375 166.675781 711.824219 172.472656 711.824219 179.667969 L 711.824219 329.210938 C 711.824219 342.492188 722.511719 353.167969 735.78125 353.167969 L 922.742188 353.167969 C 936.023438 353.167969 946.699219 342.492188 946.699219 329.210938 L 946.699219 179.667969 C 946.699219 172.472656 940.914062 166.675781 933.710938 166.675781 Z M 732.839844 179.175781 L 826.03125 179.175781 C 827.886719 179.175781 829.683594 180.453125 830.296875 182.210938 L 831.804688 186.476562 L 831.804688 186.5 C 832.273438 187.863281 832.046875 189.417969 831.214844 190.597656 C 830.382812 191.78125 828.949219 192.527344 827.515625 192.527344 L 734.359375 192.527344 C 732.503906 192.527344 730.707031 191.25 730.09375 189.488281 L 728.574219 185.199219 C 728.105469 183.839844 728.320312 182.285156 729.140625 181.101562 C 729.960938 179.921875 731.40625 179.175781 732.839844 179.175781 Z M 880.417969 179.175781 L 887.410156 179.175781 C 889.265625 179.175781 891.058594 180.453125 891.675781 182.210938 L 893.179688 186.476562 L 893.179688 186.5 C 893.652344 187.863281 893.433594 189.417969 892.613281 190.597656 C 891.796875 191.78125 890.335938 192.527344 888.890625 192.527344 L 878.914062 192.527344 C 877.476562 192.527344 876.042969 191.769531 875.210938 190.597656 C 874.382812 189.429688 874.175781 187.863281 874.644531 186.5 L 874.644531 186.464844 L 876.152344 182.199219 C 876.765625 180.453125 878.5625 179.175781 880.417969 179.175781 Z M 912.425781 179.175781 L 925.308594 179.175781 C 927.164062 179.175781 928.960938 180.453125 929.574219 182.210938 L 931.082031 186.476562 L 931.082031 186.5 C 931.550781 187.863281 931.335938 189.417969 930.515625 190.597656 C 929.695312 191.78125 928.238281 192.527344 926.792969 192.527344 L 910.945312 192.527344 C 909.511719 192.527344 908.078125 191.769531 907.246094 190.597656 C 906.414062 189.429688 906.207031 187.863281 906.679688 186.5 L 906.679688 186.464844 L 908.183594 182.199219 C 908.800781 180.453125 910.570312 179.175781 912.425781 179.175781 Z M 726.644531 204.589844 L 931.878906 204.589844 L 931.878906 329.199219 C 931.878906 334.511719 928.070312 338.308594 922.742188 338.308594 L 735.78125 338.308594 C 730.464844 338.308594 726.644531 334.511719 726.644531 329.199219 Z M 498.566406 214.90625 C 493.371094 214.90625 489.179688 219.101562 489.179688 224.292969 L 489.179688 288.671875 L 502.519531 288.671875 L 502.519531 228.269531 L 706.292969 228.269531 L 706.292969 214.90625 Z M 835.792969 223.003906 C 834.660156 222.980469 833.539062 223.738281 833.152344 224.789062 L 833.179688 224.789062 L 825.886719 244.863281 L 825.863281 244.863281 C 825.863281 244.863281 825.851562 244.890625 825.839844 244.914062 C 825.816406 244.949219 825.816406 244.984375 825.816406 244.984375 L 824.054688 249.832031 L 824.019531 249.832031 L 821.476562 256.652344 L 821.476562 256.722656 L 821.429688 256.820312 L 821.453125 256.820312 L 821.453125 256.84375 L 821.429688 256.867188 L 819.667969 261.738281 L 817.910156 266.472656 L 817.910156 266.570312 L 817.863281 266.664062 L 817.886719 266.664062 L 817.886719 266.691406 C 817.886719 266.691406 817.863281 266.726562 817.863281 266.738281 L 809.933594 288.371094 C 809.628906 289.1875 809.761719 290.128906 810.257812 290.839844 C 810.75 291.550781 811.59375 292.007812 812.472656 292.019531 L 817.511719 292.070312 C 818.632812 292.082031 819.742188 291.324219 820.125 290.285156 L 827.464844 270.160156 L 829.273438 265.269531 L 831.058594 260.351562 L 833.574219 253.359375 L 833.71875 253.058594 L 843.375 226.714844 C 843.675781 225.898438 843.542969 224.957031 843.046875 224.246094 C 842.554688 223.535156 841.710938 223.078125 840.832031 223.066406 Z M 796.179688 233.996094 C 795.410156 234.03125 794.613281 234.367188 794.058594 234.910156 L 778.007812 250.9375 L 777.984375 250.964844 L 777.9375 251.011719 L 773.511719 255.410156 C 771.488281 257.433594 771.488281 260.75 773.511719 262.773438 L 777.984375 267.242188 L 781.140625 270.425781 L 794.011719 283.296875 C 794.929688 284.199219 796.484375 284.464844 797.640625 283.910156 L 801.496094 282.078125 C 802.398438 281.644531 803.121094 280.753906 803.28125 279.777344 C 803.4375 278.800781 803.085938 277.703125 802.386719 277.003906 L 789.226562 263.820312 L 785.347656 259.917969 L 784.878906 259.445312 C 784.683594 259.265625 784.683594 258.964844 784.878906 258.785156 L 785.347656 258.3125 L 788.359375 255.300781 C 788.144531 255.457031 788.082031 255.640625 788.660156 255 L 802.410156 241.273438 C 803.121094 240.5625 803.472656 239.464844 803.304688 238.476562 C 803.136719 237.488281 802.4375 236.609375 801.542969 236.175781 L 797.6875 234.320312 C 797.21875 234.078125 796.699219 233.972656 796.179688 233.996094 Z M 854.882812 233.996094 C 854.363281 233.984375 853.859375 234.078125 853.398438 234.296875 L 849.542969 236.152344 C 848.652344 236.585938 847.941406 237.464844 847.785156 238.453125 C 847.628906 239.441406 847.976562 240.550781 848.675781 241.25 L 862.402344 254.976562 C 862.992188 255.613281 862.921875 255.433594 862.703125 255.277344 L 865.742188 258.289062 L 866.1875 258.761719 C 866.378906 258.941406 866.378906 259.242188 866.1875 259.421875 L 865.742188 259.894531 L 861.835938 263.796875 L 848.699219 276.980469 C 847.988281 277.691406 847.640625 278.777344 847.808594 279.753906 C 847.976562 280.730469 848.664062 281.621094 849.566406 282.054688 L 853.449219 283.886719 C 854.605469 284.441406 856.148438 284.175781 857.050781 283.273438 L 869.921875 270.402344 L 873.078125 267.21875 L 877.574219 262.75 C 879.597656 260.722656 879.597656 257.410156 877.574219 255.386719 L 873.128906 250.988281 L 873.054688 250.914062 L 857.003906 234.886719 C 856.460938 234.34375 855.691406 234.007812 854.90625 233.972656 L 854.882812 233.972656 Z M 568.621094 255.878906 C 565.644531 255.878906 563.257812 258.277344 563.257812 261.242188 L 563.257812 308.132812 C 563.257812 311.109375 565.65625 313.496094 568.621094 313.496094 L 642.265625 313.496094 C 645.242188 313.496094 647.628906 311.097656 647.628906 308.132812 L 647.628906 261.242188 C 647.628906 258.265625 645.230469 255.878906 642.265625 255.878906 Z M 669.691406 260.421875 C 666.292969 260.421875 663.570312 263.121094 663.570312 266.519531 C 663.570312 269.917969 666.292969 272.667969 669.691406 272.667969 L 706.292969 272.667969 L 706.292969 260.421875 Z M 435.585938 293.3125 C 424.980469 293.3125 416.449219 301.820312 416.449219 312.410156 L 416.449219 479.71875 C 416.449219 490.3125 424.980469 498.832031 435.585938 498.832031 L 521.414062 498.832031 C 532.007812 498.832031 540.550781 490.3125 540.550781 479.71875 L 540.550781 312.425781 C 540.550781 301.832031 532.019531 293.3125 521.414062 293.3125 Z M 669.691406 296.722656 C 666.292969 296.722656 663.570312 299.445312 663.570312 302.84375 C 663.570312 306.242188 666.292969 308.964844 669.691406 308.964844 L 706.292969 308.964844 L 706.292969 296.722656 Z M 462.605469 300.625 L 494.359375 300.625 C 495.601562 300.625 496.601562 301.625 496.601562 302.867188 C 496.601562 304.109375 495.601562 305.109375 494.359375 305.109375 L 462.605469 305.109375 C 461.363281 305.109375 460.363281 304.109375 460.363281 302.867188 C 460.363281 301.625 461.363281 300.625 462.605469 300.625 Z M 761.90625 307.964844 C 759.0625 307.964844 756.75 310.253906 756.75 313.097656 C 756.75 315.941406 759.050781 318.234375 761.90625 318.234375 L 789.265625 318.234375 C 792.109375 318.234375 794.398438 315.941406 794.398438 313.097656 C 794.398438 310.253906 792.121094 307.964844 789.265625 307.964844 Z M 809.894531 307.964844 C 807.050781 307.964844 804.761719 310.253906 804.761719 313.097656 C 804.761719 315.941406 807.039062 318.234375 809.894531 318.234375 L 907.917969 318.234375 C 910.761719 318.234375 913.054688 315.941406 913.054688 313.097656 C 913.054688 310.253906 910.777344 307.964844 907.917969 307.964844 Z M 429.441406 313.472656 L 527.527344 313.472656 C 530.816406 313.472656 533.480469 316.136719 533.480469 319.425781 L 533.480469 459.785156 C 533.480469 463.074219 530.816406 465.714844 527.527344 465.714844 L 429.441406 465.714844 C 426.152344 465.714844 423.511719 463.074219 423.511719 459.785156 L 423.511719 319.4375 C 423.511719 316.148438 426.152344 313.472656 429.441406 313.472656 Z M 434.71875 332.234375 C 433.238281 332.234375 432.03125 333.441406 432.03125 334.921875 L 432.03125 358.363281 C 432.03125 359.84375 433.238281 361.050781 434.71875 361.050781 L 471.558594 361.050781 C 473.042969 361.050781 474.246094 359.84375 474.246094 358.363281 L 474.246094 334.921875 C 474.246094 333.441406 473.042969 332.234375 471.558594 332.234375 Z M 569.136719 332.898438 C 566.160156 332.898438 563.773438 335.296875 563.773438 338.261719 L 563.773438 368.691406 C 563.773438 371.65625 566.171875 374.054688 569.136719 374.054688 L 677.765625 374.054688 C 680.742188 374.054688 683.128906 371.65625 683.128906 368.691406 L 683.128906 338.261719 C 683.128906 335.285156 680.730469 332.898438 677.765625 332.898438 Z M 485.25 334.5 C 483.550781 334.5 482.1875 335.863281 482.1875 337.5625 C 482.1875 339.261719 483.550781 340.625 485.25 340.625 L 522.933594 340.625 C 524.632812 340.625 525.996094 339.261719 525.996094 337.5625 C 525.996094 335.863281 524.632812 334.5 522.933594 334.5 Z M 485.25 352.636719 C 483.550781 352.636719 482.1875 354.023438 482.1875 355.722656 C 482.1875 357.421875 483.550781 358.785156 485.25 358.785156 L 522.933594 358.785156 C 524.632812 358.785156 525.996094 357.421875 525.996094 355.722656 C 525.996094 354.023438 524.632812 352.636719 522.933594 352.636719 Z M 816.488281 358.710938 L 816.488281 443.78125 L 545.132812 443.78125 L 545.132812 457.15625 L 632.105469 457.15625 L 632.105469 493.566406 C 622.101562 495.023438 612.125 496.554688 602.121094 497.914062 C 590.410156 499.519531 578.71875 501.023438 567.28125 503.613281 C 564.847656 504.167969 562.617188 504.773438 560.957031 506.039062 C 559.027344 507.519531 557.820312 509.953125 556.605469 512.582031 C 556.328125 513.097656 556.085938 513.917969 556.085938 514.507812 C 556.085938 515.992188 557.003906 517.339844 558.363281 517.894531 C 560.847656 519.050781 563.367188 520.136719 565.96875 520.957031 C 571.03125 522.570312 576.273438 523.464844 581.550781 523.847656 C 582.058594 523.921875 582.585938 523.910156 583.105469 523.921875 C 584.164062 523.921875 585.261719 523.8125 586.285156 523.546875 C 591.878906 522.246094 597.480469 520.933594 603.097656 519.777344 C 614.472656 517.425781 625.933594 515.484375 637.417969 513.726562 L 681.648438 513.726562 C 693.132812 515.484375 704.582031 517.425781 715.96875 519.777344 C 721.574219 520.933594 727.1875 522.234375 732.78125 523.546875 C 733.804688 523.8125 734.902344 523.921875 735.960938 523.921875 C 736.480469 523.910156 737 523.921875 737.515625 523.847656 C 742.792969 523.464844 748.039062 522.570312 753.097656 520.957031 C 755.714844 520.136719 758.230469 519.050781 760.703125 517.894531 C 762.066406 517.339844 762.980469 515.992188 762.980469 514.507812 C 762.980469 513.917969 762.726562 513.097656 762.460938 512.582031 C 761.234375 509.953125 760.039062 507.519531 758.113281 506.039062 C 756.4375 504.773438 754.21875 504.167969 751.785156 503.613281 C 740.347656 501.023438 728.671875 499.519531 716.945312 497.914062 C 706.941406 496.554688 696.964844 495.023438 686.960938 493.566406 L 686.960938 457.15625 L 820.488281 457.15625 C 825.695312 457.15625 829.875 452.964844 829.875 447.769531 L 829.875 358.722656 L 816.488281 358.722656 Z M 434.71875 373.570312 C 433.238281 373.570312 432.03125 374.777344 432.03125 376.257812 L 432.03125 399.699219 C 432.03125 401.179688 433.238281 402.386719 434.71875 402.386719 L 490.347656 402.386719 C 491.828125 402.386719 493.035156 401.179688 493.035156 399.699219 L 493.035156 376.257812 C 493.035156 374.777344 491.828125 373.570312 490.347656 373.570312 Z M 575.957031 400.421875 C 572.558594 400.421875 569.835938 403.15625 569.835938 406.542969 C 569.835938 409.929688 572.558594 412.664062 575.957031 412.664062 L 766.257812 412.664062 C 769.644531 412.664062 772.40625 409.929688 772.40625 406.542969 C 772.40625 403.15625 769.644531 400.421875 766.257812 400.421875 Z M 434.71875 414.917969 C 433.226562 414.917969 432.03125 416.125 432.03125 417.605469 L 432.03125 441.046875 C 432.03125 442.527344 433.226562 443.734375 434.71875 443.734375 L 471.558594 443.734375 C 473.054688 443.734375 474.246094 442.527344 474.246094 441.046875 L 474.246094 417.605469 C 474.246094 416.125 473.042969 414.917969 471.558594 414.917969 Z M 485.25 417.183594 C 483.550781 417.183594 482.1875 418.546875 482.1875 420.246094 C 482.1875 421.945312 483.550781 423.304688 485.25 423.304688 L 522.933594 423.304688 C 524.632812 423.304688 525.996094 421.945312 525.996094 420.246094 C 525.996094 418.546875 524.632812 417.183594 522.933594 417.183594 Z M 485.25 435.332031 C 483.550781 435.332031 482.1875 436.695312 482.1875 438.394531 C 482.1875 440.09375 483.550781 441.457031 485.25 441.457031 L 522.933594 441.457031 C 524.632812 441.457031 525.996094 440.09375 525.996094 438.394531 C 525.996094 436.695312 524.632812 435.332031 522.933594 435.332031 Z M 469.523438 476.453125 L 487.429688 476.453125 C 489.058594 476.453125 490.371094 477.742188 490.371094 479.367188 L 490.371094 483.175781 C 490.371094 484.804688 489.058594 486.09375 487.429688 486.09375 L 469.523438 486.09375 C 467.894531 486.09375 466.605469 484.804688 466.605469 483.175781 L 466.605469 479.367188 C 466.605469 477.742188 467.910156 476.453125 469.523438 476.453125 Z M 469.523438 476.453125 " fill-opacity="1" fill-rule="nonzero"/></g></svg>