<svg xmlns="http://www.w3.org/2000/svg" xmlns:xlink="http://www.w3.org/1999/xlink" width="1920" zoomAndPan="magnify" viewBox="0 0 1440 809.999993" height="1080" preserveAspectRatio="xMidYMid meet" version="1.0"><defs><clipPath id="366d0cc432"><path d="M 821.71875 143.613281 L 1369.96875 143.613281 L 1369.96875 691.863281 L 821.71875 691.863281 Z M 821.71875 143.613281 " clip-rule="nonzero"/></clipPath><clipPath id="9e7ad73144"><path d="M 54.355469 143.613281 L 602.605469 143.613281 L 602.605469 691.863281 L 54.355469 691.863281 Z M 54.355469 143.613281 " clip-rule="nonzero"/></clipPath></defs><g clip-path="url(#366d0cc432)"><path fill="#7ed957" d="M 941.417969 377.035156 C 950.542969 379.480469 959.800781 380.691406 969 380.691406 C 987.351562 380.691406 1005.464844 375.878906 1021.78125 366.457031 C 1046.28125 352.3125 1063.804688 329.476562 1071.125 302.148438 C 1073.527344 293.183594 1074.746094 283.964844 1074.75 274.742188 C 1074.75 272.96875 1074.046875 271.269531 1072.796875 270.015625 C 1071.542969 268.761719 1069.84375 268.058594 1068.070312 268.058594 L 975.507812 268.058594 L 975.507812 175.496094 C 975.507812 171.808594 972.519531 168.820312 968.832031 168.816406 L 968.765625 168.816406 C 920.957031 168.816406 878.917969 201.09375 866.527344 247.328125 C 859.207031 274.652344 862.964844 303.195312 877.109375 327.691406 C 891.253906 352.191406 914.09375 369.714844 941.417969 377.035156 Z M 879.4375 250.785156 C 889.6875 212.53125 923.15625 185.210938 962.148438 182.414062 L 962.148438 274.738281 C 962.148438 278.429688 965.140625 281.417969 968.828125 281.417969 L 1061.144531 281.417969 C 1060.71875 287.238281 1059.738281 293.023438 1058.222656 298.695312 C 1045.007812 347.980469 994.171875 377.34375 944.875 364.132812 C 920.996094 357.734375 901.039062 342.421875 888.679688 321.015625 C 876.320312 299.605469 873.035156 274.664062 879.433594 250.789062 Z M 993.695312 256.550781 L 1092.941406 256.550781 C 1096.628906 256.550781 1099.617188 253.5625 1099.621094 249.875 C 1099.648438 202.035156 1067.363281 159.96875 1021.109375 147.574219 C 1012.152344 145.175781 1002.929688 143.953125 993.703125 143.949219 L 993.699219 143.949219 C 991.925781 143.949219 990.226562 144.652344 988.976562 145.902344 C 987.722656 147.15625 987.019531 148.855469 987.019531 150.628906 L 987.019531 249.871094 C 987.019531 253.558594 990.007812 256.550781 993.699219 256.550781 Z M 1000.375 157.554688 C 1006.195312 157.980469 1011.984375 158.960938 1017.652344 160.480469 C 1055.90625 170.730469 1083.226562 204.199219 1086.023438 243.191406 L 1000.375 243.191406 Z M 1369.636719 685.019531 C 1369.636719 688.707031 1366.644531 691.699219 1362.957031 691.699219 L 828.566406 691.699219 C 824.875 691.699219 821.886719 688.707031 821.886719 685.019531 L 821.886719 150.628906 C 821.886719 146.9375 824.875 143.949219 828.566406 143.949219 C 832.253906 143.949219 835.246094 146.9375 835.246094 150.628906 L 835.246094 678.339844 L 1362.957031 678.339844 C 1366.644531 678.339844 1369.636719 681.332031 1369.636719 685.019531 Z M 884.425781 512.769531 C 874.082031 512.769531 865.667969 521.183594 865.667969 531.527344 L 865.667969 630.621094 C 865.667969 640.964844 874.082031 649.378906 884.425781 649.378906 L 940.941406 649.378906 C 951.28125 649.378906 959.695312 640.964844 959.695312 630.621094 L 959.695312 531.527344 C 959.695312 521.183594 951.28125 512.769531 940.941406 512.769531 Z M 946.335938 531.527344 L 946.335938 630.621094 C 946.335938 633.597656 943.914062 636.019531 940.941406 636.019531 L 884.425781 636.019531 C 881.449219 636.019531 879.027344 633.597656 879.027344 630.621094 L 879.027344 531.527344 C 879.027344 528.550781 881.449219 526.128906 884.425781 526.128906 L 940.941406 526.128906 C 943.914062 526.128906 946.335938 528.550781 946.335938 531.527344 Z M 1021.074219 476.136719 C 1010.730469 476.136719 1002.316406 484.550781 1002.316406 494.890625 L 1002.316406 630.621094 C 1002.316406 640.964844 1010.730469 649.378906 1021.074219 649.378906 L 1077.585938 649.378906 C 1087.929688 649.378906 1096.34375 640.964844 1096.34375 630.621094 L 1096.34375 494.890625 C 1096.34375 484.550781 1087.929688 476.136719 1077.585938 476.136719 Z M 1082.980469 494.890625 L 1082.980469 630.621094 C 1082.980469 633.597656 1080.5625 636.019531 1077.585938 636.019531 L 1021.070312 636.019531 C 1018.097656 636.019531 1015.675781 633.597656 1015.675781 630.621094 L 1015.675781 494.890625 C 1015.675781 491.914062 1018.097656 489.496094 1021.070312 489.496094 L 1077.585938 489.496094 C 1080.5625 489.496094 1082.980469 491.914062 1082.980469 494.890625 Z M 1157.71875 400.808594 C 1147.378906 400.808594 1138.964844 409.222656 1138.964844 419.566406 L 1138.964844 630.621094 C 1138.964844 640.964844 1147.378906 649.378906 1157.71875 649.378906 L 1214.234375 649.378906 C 1224.574219 649.378906 1232.992188 640.964844 1232.992188 630.621094 L 1232.992188 419.566406 C 1232.992188 409.222656 1224.574219 400.808594 1214.234375 400.808594 Z M 1219.628906 419.566406 L 1219.628906 630.621094 C 1219.628906 633.597656 1217.207031 636.019531 1214.230469 636.019531 L 1157.71875 636.019531 C 1154.742188 636.019531 1152.320312 633.597656 1152.320312 630.621094 L 1152.320312 419.566406 C 1152.320312 416.589844 1154.742188 414.167969 1157.71875 414.167969 L 1214.230469 414.167969 C 1217.207031 414.167969 1219.628906 416.589844 1219.628906 419.566406 Z M 1294.367188 316.253906 C 1284.023438 316.253906 1275.609375 324.667969 1275.609375 335.011719 L 1275.609375 630.621094 C 1275.609375 640.964844 1284.023438 649.378906 1294.367188 649.378906 L 1350.878906 649.378906 C 1361.222656 649.378906 1369.636719 640.964844 1369.636719 630.621094 L 1369.636719 335.007812 C 1369.636719 324.667969 1361.222656 316.253906 1350.878906 316.253906 Z M 1356.273438 335.011719 L 1356.273438 630.621094 C 1356.273438 633.597656 1353.855469 636.019531 1350.878906 636.019531 L 1294.363281 636.019531 C 1291.386719 636.019531 1288.96875 633.597656 1288.96875 630.621094 L 1288.96875 335.007812 C 1288.96875 332.035156 1291.386719 329.613281 1294.363281 329.613281 L 1350.878906 329.613281 C 1353.855469 329.613281 1356.273438 332.035156 1356.273438 335.007812 Z M 869.90625 471.746094 C 866.671875 473.015625 864.953125 476.554688 865.949219 479.882812 C 866.8125 482.757812 869.453125 484.644531 872.34375 484.644531 C 872.800781 484.644531 873.265625 484.597656 873.730469 484.5 C 1036.042969 450.160156 1183.628906 372.054688 1300.960938 258.476562 L 1321.859375 278.679688 C 1323.644531 280.402344 1326.234375 280.996094 1328.59375 280.21875 C 1330.949219 279.441406 1332.679688 277.421875 1333.089844 274.972656 L 1353.625 151.726562 C 1353.988281 149.542969 1353.246094 147.320312 1351.644531 145.792969 C 1350.042969 144.265625 1347.789062 143.632812 1345.621094 144.101562 L 1224.710938 170.324219 C 1222.300781 170.847656 1220.375 172.652344 1219.703125 175.023438 C 1219.027344 177.394531 1219.710938 179.941406 1221.484375 181.65625 L 1246.890625 206.214844 C 1145.886719 322.769531 1015.671875 414.507812 869.90625 471.746094 Z M 1261.144531 210.132812 C 1263.4375 207.449219 1263.25 203.441406 1260.707031 200.988281 L 1239.75 180.730469 L 1338.832031 159.242188 L 1322.003906 260.234375 L 1305.582031 244.363281 C 1302.980469 241.847656 1298.84375 241.863281 1296.257812 244.402344 C 1199.394531 339.597656 1081.140625 409.976562 950.699219 450.628906 C 1069.695312 391.945312 1175.902344 309.847656 1261.144531 210.128906 Z M 1261.144531 210.132812 " fill-opacity="1" fill-rule="nonzero"/></g><g clip-path="url(#9e7ad73144)"><path fill="#8c52ff" d="M 54.355469 544.75 C 54.351562 544.207031 54.40625 543.664062 54.511719 543.132812 C 54.617188 542.597656 54.777344 542.078125 54.984375 541.574219 C 55.191406 541.070312 55.449219 540.589844 55.75 540.136719 C 56.054688 539.683594 56.398438 539.265625 56.785156 538.878906 C 57.171875 538.492188 57.589844 538.148438 58.042969 537.84375 C 58.496094 537.542969 58.976562 537.285156 59.480469 537.078125 C 59.984375 536.871094 60.503906 536.710938 61.039062 536.605469 C 61.574219 536.5 62.113281 536.445312 62.65625 536.445312 L 201.300781 536.445312 C 201.847656 536.445312 202.386719 536.5 202.921875 536.605469 C 203.457031 536.710938 203.976562 536.871094 204.480469 537.078125 C 204.984375 537.285156 205.460938 537.542969 205.917969 537.84375 C 206.371094 538.148438 206.789062 538.492188 207.175781 538.878906 C 207.5625 539.261719 207.90625 539.683594 208.207031 540.136719 C 208.511719 540.589844 208.765625 541.070312 208.976562 541.574219 C 209.183594 542.078125 209.339844 542.597656 209.445312 543.132812 C 209.554688 543.664062 209.605469 544.207031 209.605469 544.75 L 209.605469 567.855469 C 209.605469 568.402344 209.550781 568.941406 209.445312 569.476562 C 209.339844 570.011719 209.183594 570.53125 208.972656 571.035156 C 208.765625 571.539062 208.507812 572.015625 208.207031 572.46875 C 207.902344 572.921875 207.558594 573.34375 207.171875 573.726562 C 206.789062 574.113281 206.367188 574.457031 205.914062 574.761719 C 205.460938 575.0625 204.984375 575.320312 204.480469 575.527344 C 203.976562 575.738281 203.457031 575.894531 202.921875 576 C 202.386719 576.105469 201.847656 576.160156 201.300781 576.160156 C 200.757812 576.160156 200.214844 576.105469 199.679688 576 C 199.148438 575.894531 198.628906 575.738281 198.125 575.527344 C 197.621094 575.320312 197.140625 575.0625 196.6875 574.761719 C 196.234375 574.457031 195.816406 574.113281 195.429688 573.726562 C 195.042969 573.34375 194.699219 572.921875 194.398438 572.46875 C 194.09375 572.015625 193.839844 571.539062 193.628906 571.035156 C 193.421875 570.53125 193.261719 570.011719 193.15625 569.476562 C 193.050781 568.941406 192.996094 568.402344 192.996094 567.855469 L 192.996094 553.054688 L 70.960938 553.054688 L 70.960938 675.089844 L 192.996094 675.089844 L 192.996094 660.289062 C 192.996094 659.746094 193.050781 659.207031 193.15625 658.671875 C 193.261719 658.136719 193.421875 657.617188 193.628906 657.113281 C 193.839844 656.609375 194.09375 656.128906 194.398438 655.675781 C 194.699219 655.222656 195.042969 654.804688 195.429688 654.417969 C 195.816406 654.03125 196.234375 653.6875 196.6875 653.386719 C 197.140625 653.082031 197.621094 652.828125 198.125 652.617188 C 198.628906 652.410156 199.148438 652.253906 199.679688 652.144531 C 200.214844 652.039062 200.757812 651.984375 201.300781 651.984375 C 201.847656 651.984375 202.386719 652.039062 202.921875 652.144531 C 203.457031 652.253906 203.976562 652.410156 204.480469 652.617188 C 204.984375 652.828125 205.460938 653.082031 205.914062 653.386719 C 206.367188 653.6875 206.789062 654.03125 207.171875 654.417969 C 207.558594 654.804688 207.902344 655.222656 208.207031 655.675781 C 208.507812 656.128906 208.765625 656.609375 208.972656 657.113281 C 209.183594 657.617188 209.339844 658.136719 209.445312 658.671875 C 209.550781 659.207031 209.605469 659.746094 209.605469 660.289062 L 209.605469 683.394531 C 209.605469 683.941406 209.554688 684.480469 209.445312 685.015625 C 209.339844 685.550781 209.183594 686.070312 208.976562 686.574219 C 208.765625 687.078125 208.511719 687.554688 208.207031 688.007812 C 207.90625 688.464844 207.5625 688.882812 207.175781 689.269531 C 206.789062 689.652344 206.371094 690 205.917969 690.300781 C 205.460938 690.605469 204.984375 690.859375 204.480469 691.070312 C 203.976562 691.277344 203.457031 691.433594 202.921875 691.539062 C 202.386719 691.648438 201.847656 691.699219 201.300781 691.699219 L 62.65625 691.699219 C 62.113281 691.699219 61.574219 691.648438 61.039062 691.539062 C 60.503906 691.433594 59.984375 691.277344 59.480469 691.070312 C 58.976562 690.859375 58.496094 690.605469 58.042969 690.300781 C 57.589844 690 57.171875 689.652344 56.785156 689.269531 C 56.398438 688.882812 56.054688 688.464844 55.75 688.007812 C 55.449219 687.554688 55.191406 687.078125 54.984375 686.574219 C 54.777344 686.070312 54.617188 685.550781 54.511719 685.015625 C 54.40625 684.480469 54.351562 683.941406 54.355469 683.394531 Z M 594.136719 536.445312 L 455.492188 536.445312 C 454.945312 536.445312 454.40625 536.5 453.871094 536.605469 C 453.335938 536.710938 452.816406 536.871094 452.3125 537.078125 C 451.808594 537.285156 451.332031 537.542969 450.878906 537.84375 C 450.421875 538.148438 450.003906 538.492188 449.617188 538.878906 C 449.234375 539.261719 448.886719 539.683594 448.585938 540.136719 C 448.28125 540.589844 448.027344 541.070312 447.820312 541.574219 C 447.609375 542.078125 447.453125 542.597656 447.347656 543.132812 C 447.242188 543.664062 447.1875 544.207031 447.1875 544.75 L 447.1875 567.855469 C 447.1875 568.402344 447.242188 568.941406 447.347656 569.476562 C 447.453125 570.011719 447.609375 570.53125 447.820312 571.035156 C 448.027344 571.539062 448.285156 572.015625 448.585938 572.46875 C 448.890625 572.921875 449.234375 573.34375 449.621094 573.726562 C 450.003906 574.113281 450.425781 574.457031 450.878906 574.761719 C 451.332031 575.0625 451.808594 575.320312 452.3125 575.527344 C 452.816406 575.738281 453.335938 575.894531 453.871094 576 C 454.40625 576.105469 454.945312 576.160156 455.492188 576.160156 C 456.039062 576.160156 456.578125 576.105469 457.113281 576 C 457.648438 575.894531 458.167969 575.738281 458.671875 575.527344 C 459.171875 575.320312 459.652344 575.0625 460.105469 574.761719 C 460.558594 574.457031 460.976562 574.113281 461.363281 573.726562 C 461.75 573.34375 462.09375 572.921875 462.398438 572.46875 C 462.699219 572.015625 462.957031 571.539062 463.164062 571.035156 C 463.371094 570.53125 463.53125 570.011719 463.636719 569.476562 C 463.742188 568.941406 463.796875 568.402344 463.796875 567.855469 L 463.796875 553.054688 L 585.832031 553.054688 L 585.832031 675.089844 L 463.796875 675.089844 L 463.796875 660.289062 C 463.796875 659.746094 463.742188 659.207031 463.636719 658.671875 C 463.53125 658.136719 463.371094 657.617188 463.164062 657.113281 C 462.957031 656.609375 462.699219 656.128906 462.398438 655.675781 C 462.09375 655.222656 461.75 654.804688 461.363281 654.417969 C 460.976562 654.03125 460.558594 653.6875 460.105469 653.386719 C 459.652344 653.082031 459.171875 652.828125 458.667969 652.617188 C 458.167969 652.410156 457.648438 652.253906 457.113281 652.144531 C 456.578125 652.039062 456.039062 651.984375 455.492188 651.984375 C 454.945312 651.984375 454.40625 652.039062 453.871094 652.144531 C 453.335938 652.253906 452.816406 652.410156 452.3125 652.617188 C 451.808594 652.828125 451.332031 653.082031 450.878906 653.386719 C 450.425781 653.6875 450.003906 654.03125 449.621094 654.417969 C 449.234375 654.804688 448.890625 655.222656 448.585938 655.675781 C 448.285156 656.128906 448.027344 656.609375 447.820312 657.113281 C 447.609375 657.617188 447.453125 658.136719 447.347656 658.671875 C 447.242188 659.207031 447.1875 659.746094 447.1875 660.289062 L 447.1875 683.394531 C 447.1875 683.941406 447.242188 684.480469 447.347656 685.015625 C 447.453125 685.550781 447.609375 686.070312 447.820312 686.574219 C 448.027344 687.078125 448.28125 687.554688 448.585938 688.007812 C 448.886719 688.464844 449.234375 688.882812 449.617188 689.269531 C 450.003906 689.652344 450.421875 690 450.878906 690.300781 C 451.332031 690.605469 451.808594 690.859375 452.3125 691.070312 C 452.816406 691.277344 453.335938 691.433594 453.871094 691.539062 C 454.40625 691.648438 454.945312 691.699219 455.492188 691.699219 L 594.136719 691.699219 C 594.679688 691.699219 595.222656 691.648438 595.753906 691.539062 C 596.289062 691.433594 596.808594 691.277344 597.3125 691.070312 C 597.816406 690.859375 598.296875 690.605469 598.75 690.300781 C 599.203125 690 599.625 689.652344 600.007812 689.269531 C 600.394531 688.882812 600.738281 688.464844 601.042969 688.007812 C 601.34375 687.554688 601.601562 687.078125 601.808594 686.574219 C 602.015625 686.070312 602.175781 685.550781 602.28125 685.015625 C 602.386719 684.480469 602.441406 683.941406 602.441406 683.394531 L 602.441406 544.75 C 602.441406 544.207031 602.386719 543.664062 602.28125 543.132812 C 602.175781 542.597656 602.015625 542.078125 601.808594 541.574219 C 601.601562 541.070312 601.34375 540.589844 601.042969 540.136719 C 600.738281 539.683594 600.394531 539.261719 600.007812 538.878906 C 599.625 538.492188 599.203125 538.148438 598.75 537.84375 C 598.296875 537.542969 597.816406 537.285156 597.3125 537.078125 C 596.808594 536.871094 596.289062 536.710938 595.757812 536.605469 C 595.222656 536.5 594.679688 536.445312 594.136719 536.445312 Z M 290.484375 221.238281 L 290.484375 310.851562 L 324.84375 294.609375 C 325.96875 294.082031 327.152344 293.816406 328.398438 293.816406 C 329.640625 293.816406 330.824219 294.082031 331.949219 294.609375 L 366.308594 310.851562 L 366.308594 221.238281 C 366.308594 220.695312 366.363281 220.152344 366.46875 219.617188 C 366.574219 219.082031 366.730469 218.566406 366.941406 218.0625 C 367.148438 217.558594 367.40625 217.078125 367.707031 216.625 C 368.011719 216.171875 368.355469 215.75 368.742188 215.367188 C 369.125 214.980469 369.546875 214.636719 370 214.332031 C 370.453125 214.03125 370.929688 213.773438 371.433594 213.566406 C 371.9375 213.355469 372.457031 213.199219 372.992188 213.09375 C 373.527344 212.988281 374.070312 212.933594 374.613281 212.933594 L 471.222656 212.933594 C 481.265625 163.808594 554.578125 168.414062 556.222656 220.988281 C 554.714844 274.160156 481.425781 278.792969 471.222656 229.542969 L 382.917969 229.542969 L 382.917969 318.703125 L 433.042969 342.398438 C 433.746094 342.746094 434.386719 343.183594 434.96875 343.707031 C 435.550781 344.234375 436.050781 344.828125 436.472656 345.488281 C 436.890625 346.148438 437.210938 346.855469 437.4375 347.605469 C 437.664062 348.359375 437.78125 349.125 437.796875 349.90625 L 437.796875 493.917969 C 437.796875 494.757812 437.671875 495.574219 437.425781 496.375 C 437.179688 497.175781 436.820312 497.921875 436.347656 498.609375 C 435.875 499.300781 435.308594 499.90625 434.65625 500.429688 C 434 500.949219 433.28125 501.359375 432.5 501.664062 L 382.917969 520.921875 L 382.917969 605.769531 L 471.222656 605.769531 C 481.261719 556.640625 554.578125 561.234375 556.222656 613.8125 C 554.714844 666.976562 481.425781 671.628906 471.222656 622.378906 L 374.613281 622.378906 C 374.070312 622.378906 373.527344 622.324219 372.992188 622.21875 C 372.457031 622.113281 371.9375 621.957031 371.433594 621.746094 C 370.929688 621.539062 370.453125 621.28125 370 620.980469 C 369.546875 620.675781 369.125 620.332031 368.742188 619.945312 C 368.355469 619.5625 368.011719 619.140625 367.707031 618.6875 C 367.40625 618.234375 367.148438 617.753906 366.941406 617.25 C 366.730469 616.746094 366.574219 616.226562 366.46875 615.695312 C 366.363281 615.160156 366.308594 614.617188 366.308594 614.074219 L 366.308594 527.375 C 365.117188 527.605469 328.652344 542.601562 328.398438 541.5 C 328.394531 542.691406 291.507812 527.546875 290.484375 527.375 L 290.484375 614.074219 C 290.484375 614.617188 290.429688 615.160156 290.324219 615.695312 C 290.21875 616.226562 290.0625 616.746094 289.851562 617.25 C 289.644531 617.753906 289.390625 618.234375 289.085938 618.6875 C 288.78125 619.140625 288.4375 619.5625 288.054688 619.945312 C 287.667969 620.332031 287.246094 620.675781 286.792969 620.980469 C 286.339844 621.28125 285.863281 621.539062 285.359375 621.746094 C 284.855469 621.957031 284.335938 622.113281 283.800781 622.21875 C 283.265625 622.324219 282.726562 622.378906 282.179688 622.378906 L 185.574219 622.378906 C 181.242188 644.941406 162.125 656.730469 143.535156 656.730469 C 122.835938 656.734375 101.429688 642.167969 100.570312 614.324219 C 102.078125 561.152344 175.367188 556.519531 185.574219 605.769531 L 273.875 605.769531 L 273.875 520.921875 L 224.292969 501.664062 C 223.511719 501.359375 222.792969 500.949219 222.140625 500.429688 C 221.484375 499.90625 220.917969 499.300781 220.445312 498.609375 C 219.976562 497.921875 219.613281 497.175781 219.367188 496.375 C 219.121094 495.574219 218.996094 494.757812 218.996094 493.917969 L 218.996094 349.90625 C 219.011719 349.125 219.132812 348.359375 219.355469 347.605469 C 219.582031 346.855469 219.902344 346.152344 220.324219 345.488281 C 220.742188 344.828125 221.242188 344.234375 221.824219 343.707031 C 222.40625 343.183594 223.046875 342.746094 223.75 342.398438 L 273.875 318.703125 L 273.875 229.542969 L 185.574219 229.542969 C 175.53125 278.671875 102.214844 274.078125 100.570312 221.5 C 102.078125 168.335938 175.367188 163.683594 185.574219 212.933594 L 282.179688 212.933594 C 282.726562 212.933594 283.265625 212.988281 283.800781 213.09375 C 284.335938 213.199219 284.855469 213.355469 285.359375 213.566406 C 285.863281 213.773438 286.339844 214.03125 286.792969 214.332031 C 287.246094 214.636719 287.667969 214.980469 288.054688 215.367188 C 288.4375 215.75 288.78125 216.171875 289.085938 216.625 C 289.390625 217.078125 289.644531 217.558594 289.851562 218.0625 C 290.0625 218.566406 290.21875 219.085938 290.324219 219.617188 C 290.429688 220.152344 290.484375 220.695312 290.484375 221.238281 Z M 169.882812 221.238281 C 168.644531 186.234375 118.144531 186.382812 117.179688 221.492188 C 118.457031 256.074219 168.644531 256.164062 169.882812 221.238281 Z M 169.882812 614.074219 C 168.640625 579.070312 118.152344 579.191406 117.179688 614.332031 C 118.449219 648.882812 168.648438 648.996094 169.882812 614.074219 Z M 486.910156 614.074219 C 488.148438 649.078125 538.648438 648.929688 539.613281 613.820312 C 538.335938 579.238281 488.148438 579.148438 486.910156 614.074219 Z M 486.910156 221.238281 C 488.152344 256.242188 538.640625 256.121094 539.613281 220.980469 C 538.347656 186.429688 488.144531 186.316406 486.910156 221.238281 Z M 235.605469 488.234375 L 320.09375 521.0625 L 320.09375 394.871094 L 235.605469 362.039062 Z M 421.1875 488.234375 L 421.1875 362.039062 L 336.699219 394.871094 L 336.699219 521.0625 Z M 248.3125 349.160156 L 328.398438 380.269531 L 408.480469 349.160156 L 328.398438 311.304688 Z M 201.300781 143.613281 L 62.65625 143.613281 C 62.113281 143.613281 61.574219 143.664062 61.039062 143.773438 C 60.503906 143.878906 59.984375 144.035156 59.480469 144.246094 C 58.976562 144.453125 58.496094 144.707031 58.042969 145.011719 C 57.589844 145.3125 57.171875 145.660156 56.785156 146.042969 C 56.398438 146.429688 56.054688 146.847656 55.75 147.304688 C 55.449219 147.757812 55.191406 148.234375 54.984375 148.738281 C 54.777344 149.242188 54.617188 149.761719 54.511719 150.296875 C 54.40625 150.832031 54.351562 151.371094 54.355469 151.917969 L 54.355469 290.5625 C 54.351562 291.105469 54.40625 291.648438 54.511719 292.179688 C 54.617188 292.714844 54.777344 293.234375 54.984375 293.738281 C 55.191406 294.242188 55.449219 294.722656 55.75 295.175781 C 56.054688 295.628906 56.398438 296.050781 56.785156 296.433594 C 57.171875 296.820312 57.589844 297.164062 58.042969 297.46875 C 58.496094 297.769531 58.976562 298.027344 59.480469 298.234375 C 59.984375 298.441406 60.503906 298.601562 61.039062 298.707031 C 61.574219 298.8125 62.113281 298.867188 62.65625 298.867188 L 201.300781 298.867188 C 201.847656 298.867188 202.386719 298.8125 202.921875 298.707031 C 203.457031 298.601562 203.976562 298.441406 204.480469 298.234375 C 204.984375 298.027344 205.460938 297.769531 205.917969 297.46875 C 206.371094 297.164062 206.789062 296.820312 207.175781 296.433594 C 207.5625 296.050781 207.90625 295.628906 208.207031 295.175781 C 208.511719 294.722656 208.765625 294.242188 208.976562 293.738281 C 209.183594 293.234375 209.339844 292.714844 209.445312 292.179688 C 209.554688 291.648438 209.605469 291.105469 209.605469 290.5625 L 209.605469 267.457031 C 209.210938 256.441406 193.371094 256.480469 192.996094 267.457031 L 192.996094 282.257812 L 70.960938 282.257812 L 70.960938 160.222656 L 192.996094 160.222656 L 192.996094 175.023438 C 193.371094 186.011719 209.230469 186.015625 209.605469 175.023438 L 209.605469 151.917969 C 209.605469 151.371094 209.554688 150.832031 209.445312 150.296875 C 209.339844 149.761719 209.183594 149.242188 208.976562 148.738281 C 208.765625 148.234375 208.511719 147.757812 208.207031 147.304688 C 207.90625 146.847656 207.5625 146.429688 207.175781 146.042969 C 206.789062 145.660156 206.371094 145.3125 205.917969 145.011719 C 205.460938 144.707031 204.984375 144.453125 204.480469 144.246094 C 203.976562 144.035156 203.457031 143.878906 202.921875 143.773438 C 202.386719 143.664062 201.847656 143.613281 201.300781 143.613281 Z M 594.136719 143.613281 L 455.492188 143.613281 C 454.945312 143.613281 454.40625 143.664062 453.871094 143.773438 C 453.335938 143.878906 452.816406 144.035156 452.3125 144.242188 C 451.808594 144.453125 451.332031 144.707031 450.878906 145.011719 C 450.421875 145.3125 450.003906 145.660156 449.617188 146.042969 C 449.234375 146.429688 448.890625 146.847656 448.585938 147.304688 C 448.28125 147.757812 448.027344 148.234375 447.820312 148.738281 C 447.609375 149.242188 447.453125 149.761719 447.347656 150.296875 C 447.242188 150.832031 447.1875 151.371094 447.1875 151.917969 L 447.1875 175.023438 C 447.1875 175.566406 447.242188 176.109375 447.347656 176.640625 C 447.453125 177.175781 447.609375 177.695312 447.820312 178.199219 C 448.027344 178.703125 448.285156 179.183594 448.585938 179.636719 C 448.890625 180.089844 449.234375 180.507812 449.621094 180.894531 C 450.003906 181.28125 450.425781 181.625 450.878906 181.925781 C 451.332031 182.230469 451.808594 182.484375 452.3125 182.695312 C 452.816406 182.902344 453.335938 183.058594 453.871094 183.167969 C 454.40625 183.273438 454.945312 183.328125 455.492188 183.328125 C 456.039062 183.328125 456.578125 183.273438 457.113281 183.167969 C 457.648438 183.058594 458.167969 182.902344 458.671875 182.695312 C 459.171875 182.484375 459.652344 182.230469 460.105469 181.925781 C 460.558594 181.625 460.976562 181.28125 461.363281 180.894531 C 461.75 180.507812 462.09375 180.089844 462.398438 179.636719 C 462.699219 179.183594 462.957031 178.703125 463.164062 178.199219 C 463.371094 177.695312 463.53125 177.175781 463.636719 176.640625 C 463.742188 176.109375 463.796875 175.566406 463.796875 175.023438 L 463.796875 160.222656 L 585.832031 160.222656 L 585.832031 282.257812 L 463.796875 282.257812 L 463.796875 267.457031 C 463.796875 266.910156 463.742188 266.371094 463.636719 265.835938 C 463.53125 265.300781 463.371094 264.78125 463.164062 264.277344 C 462.957031 263.773438 462.699219 263.296875 462.398438 262.84375 C 462.09375 262.390625 461.75 261.96875 461.363281 261.585938 C 460.976562 261.199219 460.558594 260.855469 460.105469 260.550781 C 459.652344 260.25 459.171875 259.992188 458.667969 259.785156 C 458.167969 259.574219 457.648438 259.417969 457.113281 259.3125 C 456.578125 259.207031 456.039062 259.152344 455.492188 259.152344 C 454.945312 259.152344 454.40625 259.207031 453.871094 259.3125 C 453.335938 259.417969 452.816406 259.574219 452.3125 259.785156 C 451.808594 259.992188 451.332031 260.25 450.878906 260.550781 C 450.425781 260.855469 450.003906 261.199219 449.621094 261.585938 C 449.234375 261.96875 448.890625 262.390625 448.585938 262.84375 C 448.285156 263.296875 448.027344 263.773438 447.820312 264.277344 C 447.609375 264.78125 447.453125 265.300781 447.347656 265.835938 C 447.242188 266.371094 447.1875 266.910156 447.1875 267.457031 L 447.1875 290.5625 C 447.1875 291.105469 447.242188 291.648438 447.347656 292.179688 C 447.453125 292.714844 447.609375 293.234375 447.820312 293.738281 C 448.027344 294.242188 448.28125 294.722656 448.585938 295.175781 C 448.890625 295.628906 449.234375 296.050781 449.617188 296.433594 C 450.003906 296.820312 450.421875 297.164062 450.878906 297.46875 C 451.332031 297.769531 451.808594 298.027344 452.3125 298.234375 C 452.816406 298.441406 453.335938 298.601562 453.871094 298.707031 C 454.40625 298.8125 454.945312 298.867188 455.492188 298.867188 L 594.136719 298.867188 C 594.679688 298.867188 595.222656 298.8125 595.757812 298.707031 C 596.289062 298.601562 596.808594 298.441406 597.3125 298.234375 C 597.816406 298.027344 598.296875 297.769531 598.75 297.46875 C 599.203125 297.164062 599.625 296.820312 600.007812 296.433594 C 600.394531 296.050781 600.738281 295.628906 601.042969 295.175781 C 601.34375 294.722656 601.601562 294.242188 601.808594 293.738281 C 602.015625 293.234375 602.175781 292.714844 602.28125 292.179688 C 602.386719 291.648438 602.441406 291.105469 602.441406 290.5625 L 602.441406 151.917969 C 602.441406 151.371094 602.386719 150.832031 602.28125 150.296875 C 602.175781 149.761719 602.015625 149.242188 601.808594 148.738281 C 601.601562 148.234375 601.34375 147.757812 601.042969 147.304688 C 600.738281 146.847656 600.394531 146.429688 600.007812 146.042969 C 599.625 145.660156 599.203125 145.3125 598.75 145.011719 C 598.296875 144.707031 597.816406 144.453125 597.3125 144.242188 C 596.808594 144.035156 596.289062 143.878906 595.757812 143.773438 C 595.222656 143.664062 594.679688 143.613281 594.136719 143.613281 Z M 594.136719 143.613281 " fill-opacity="1" fill-rule="nonzero"/></g></svg>