<svg xmlns="http://www.w3.org/2000/svg" xmlns:xlink="http://www.w3.org/1999/xlink" width="1920" zoomAndPan="magnify" viewBox="0 0 1440 809.999993" height="1080" preserveAspectRatio="xMidYMid meet" version="1.0"><defs><filter x="0%" y="0%" width="100%" height="100%" id="b732347ff9"><feColorMatrix values="0 0 0 0 1 0 0 0 0 1 0 0 0 0 1 0 0 0 1 0" color-interpolation-filters="sRGB"/></filter><clipPath id="5ab0c2afd8"><path d="M 398 101 L 455 101 L 455 586.8125 L 398 586.8125 Z M 398 101 " clip-rule="nonzero"/></clipPath><mask id="220493120d"><g filter="url(#b732347ff9)"><rect x="-144" width="1728" fill="#000000" y="-80.999999" height="971.999992" fill-opacity="0.1"/></g></mask><clipPath id="b7961815b3"><rect x="0" width="57" y="0" height="486"/></clipPath><clipPath id="8a65572883"><path d="M 56 101 L 457 101 L 457 586.8125 L 56 586.8125 Z M 56 101 " clip-rule="nonzero"/></clipPath><mask id="81de060a88"><g filter="url(#b732347ff9)"><rect x="-144" width="1728" fill="#000000" y="-80.999999" height="971.999992" fill-opacity="0.1"/></g></mask><clipPath id="34a87d56c0"><rect x="0" width="32" y="0" height="173"/></clipPath><clipPath id="a3cd9df6eb"><path d="M 828.742188 177 L 1358.992188 177 L 1358.992188 535 L 828.742188 535 Z M 828.742188 177 " clip-rule="nonzero"/></clipPath></defs><path fill="#f4f6f8" d="M 61.25 182.691406 L 61.25 561.980469 C 61.253906 562.632812 61.292969 563.277344 61.359375 563.925781 C 61.429688 564.570312 61.527344 565.210938 61.660156 565.847656 C 61.789062 566.484375 61.953125 567.113281 62.144531 567.730469 C 62.335938 568.351562 62.558594 568.960938 62.8125 569.5625 C 63.0625 570.160156 63.34375 570.742188 63.652344 571.316406 C 63.960938 571.886719 64.296875 572.441406 64.660156 572.980469 C 65.023438 573.519531 65.414062 574.035156 65.828125 574.535156 C 66.242188 575.039062 66.679688 575.515625 67.140625 575.972656 C 67.601562 576.429688 68.082031 576.863281 68.585938 577.273438 C 69.089844 577.6875 69.613281 578.070312 70.152344 578.429688 C 70.695312 578.789062 71.25 579.121094 71.824219 579.425781 C 72.398438 579.730469 72.984375 580.007812 73.585938 580.253906 C 74.1875 580.5 74.796875 580.71875 75.417969 580.90625 C 76.039062 581.09375 76.671875 581.25 77.308594 581.375 C 77.945312 581.503906 78.585938 581.597656 79.234375 581.660156 C 79.878906 581.722656 80.527344 581.757812 81.175781 581.757812 L 431.542969 581.757812 C 432.195312 581.757812 432.847656 581.726562 433.496094 581.664062 C 434.144531 581.601562 434.792969 581.507812 435.433594 581.382812 C 436.074219 581.253906 436.707031 581.097656 437.332031 580.910156 C 437.957031 580.722656 438.570312 580.5 439.175781 580.253906 C 439.777344 580.003906 440.367188 579.726562 440.945312 579.417969 C 441.519531 579.109375 442.078125 578.777344 442.625 578.414062 C 443.167969 578.050781 443.691406 577.664062 444.195312 577.25 C 444.699219 576.835938 445.183594 576.394531 445.644531 575.933594 C 446.105469 575.472656 446.546875 574.988281 446.960938 574.484375 C 447.375 573.980469 447.761719 573.457031 448.125 572.914062 C 448.488281 572.371094 448.820312 571.808594 449.128906 571.234375 C 449.4375 570.65625 449.714844 570.066406 449.964844 569.464844 C 450.210938 568.859375 450.429688 568.246094 450.621094 567.621094 C 450.808594 566.996094 450.964844 566.363281 451.09375 565.722656 C 451.21875 565.082031 451.3125 564.433594 451.375 563.785156 C 451.4375 563.136719 451.46875 562.484375 451.464844 561.832031 L 451.464844 126.300781 C 451.464844 125.648438 451.433594 124.996094 451.371094 124.347656 C 451.308594 123.699219 451.210938 123.054688 451.082031 122.414062 C 450.957031 121.773438 450.796875 121.140625 450.609375 120.515625 C 450.417969 119.894531 450.199219 119.28125 449.949219 118.675781 C 449.699219 118.074219 449.421875 117.484375 449.113281 116.910156 C 448.804688 116.332031 448.472656 115.773438 448.109375 115.230469 C 447.746094 114.6875 447.359375 114.164062 446.945312 113.660156 C 446.53125 113.15625 446.09375 112.671875 445.628906 112.210938 C 445.167969 111.75 444.6875 111.3125 444.183594 110.898438 C 443.675781 110.484375 443.152344 110.097656 442.609375 109.734375 C 442.070312 109.371094 441.507812 109.035156 440.933594 108.730469 C 440.359375 108.421875 439.769531 108.140625 439.167969 107.894531 C 438.5625 107.644531 437.949219 107.421875 437.324219 107.234375 C 436.699219 107.042969 436.070312 106.886719 435.429688 106.757812 C 434.789062 106.632812 434.144531 106.535156 433.496094 106.472656 C 432.84375 106.40625 432.195312 106.375 431.542969 106.375 L 137.5625 106.375 Z M 61.25 182.691406 " fill-opacity="1" fill-rule="nonzero"/><g clip-path="url(#5ab0c2afd8)"><g mask="url(#220493120d)"><g transform="matrix(1, 0, 0, 1, 398, 101)"><g clip-path="url(#b7961815b3)"><path fill="#8c52ff" d="M 53.464844 25.300781 L 53.464844 460.832031 C 53.46875 461.484375 53.4375 462.136719 53.375 462.785156 C 53.3125 463.433594 53.21875 464.082031 53.09375 464.722656 C 52.964844 465.363281 52.808594 465.996094 52.621094 466.621094 C 52.429688 467.246094 52.210938 467.859375 51.964844 468.464844 C 51.714844 469.066406 51.4375 469.65625 51.128906 470.234375 C 50.820312 470.808594 50.488281 471.371094 50.125 471.914062 C 49.761719 472.457031 49.375 472.980469 48.960938 473.484375 C 48.546875 473.988281 48.105469 474.472656 47.644531 474.933594 C 47.183594 475.394531 46.699219 475.835938 46.195312 476.25 C 45.691406 476.664062 45.167969 477.050781 44.625 477.414062 C 44.078125 477.777344 43.519531 478.109375 42.945312 478.417969 C 42.367188 478.726562 41.777344 479.003906 41.175781 479.253906 C 40.570312 479.5 39.957031 479.722656 39.332031 479.910156 C 38.707031 480.097656 38.074219 480.253906 37.433594 480.382812 C 36.792969 480.507812 36.144531 480.601562 35.496094 480.664062 C 34.847656 480.726562 34.195312 480.757812 33.542969 480.757812 L 4.96875 480.757812 C 5.621094 480.757812 6.273438 480.726562 6.921875 480.664062 C 7.574219 480.601562 8.21875 480.507812 8.859375 480.382812 C 9.5 480.253906 10.132812 480.097656 10.757812 479.910156 C 11.382812 479.722656 11.996094 479.5 12.601562 479.253906 C 13.203125 479.003906 13.792969 478.726562 14.371094 478.417969 C 14.945312 478.109375 15.507812 477.777344 16.050781 477.414062 C 16.59375 477.050781 17.117188 476.664062 17.621094 476.25 C 18.128906 475.835938 18.609375 475.394531 19.070312 474.933594 C 19.535156 474.472656 19.972656 473.988281 20.386719 473.484375 C 20.800781 472.980469 21.1875 472.457031 21.550781 471.914062 C 21.914062 471.371094 22.25 470.808594 22.554688 470.234375 C 22.863281 469.65625 23.140625 469.066406 23.390625 468.464844 C 23.640625 467.859375 23.859375 467.246094 24.046875 466.621094 C 24.234375 465.996094 24.394531 465.363281 24.519531 464.722656 C 24.644531 464.082031 24.738281 463.433594 24.800781 462.785156 C 24.863281 462.136719 24.894531 461.484375 24.894531 460.832031 L 24.894531 25.300781 C 24.894531 24.648438 24.863281 23.996094 24.800781 23.347656 C 24.738281 22.695312 24.644531 22.050781 24.519531 21.410156 C 24.394531 20.769531 24.234375 20.136719 24.046875 19.511719 C 23.859375 18.886719 23.640625 18.273438 23.390625 17.667969 C 23.140625 17.066406 22.863281 16.476562 22.554688 15.898438 C 22.25 15.324219 21.914062 14.761719 21.550781 14.21875 C 21.1875 13.675781 20.800781 13.152344 20.386719 12.648438 C 19.972656 12.140625 19.535156 11.660156 19.070312 11.195312 C 18.609375 10.734375 18.128906 10.296875 17.621094 9.882812 C 17.117188 9.46875 16.59375 9.082031 16.050781 8.71875 C 15.507812 8.355469 14.945312 8.019531 14.371094 7.714844 C 13.792969 7.40625 13.203125 7.128906 12.601562 6.878906 C 11.996094 6.628906 11.382812 6.410156 10.757812 6.222656 C 10.132812 6.035156 9.5 5.875 8.859375 5.75 C 8.21875 5.625 7.574219 5.53125 6.921875 5.46875 C 6.273438 5.40625 5.621094 5.375 4.96875 5.375 L 33.542969 5.375 C 34.195312 5.375 34.847656 5.40625 35.496094 5.46875 C 36.144531 5.53125 36.792969 5.625 37.433594 5.75 C 38.074219 5.875 38.707031 6.035156 39.332031 6.222656 C 39.957031 6.410156 40.570312 6.628906 41.175781 6.878906 C 41.777344 7.128906 42.367188 7.40625 42.945312 7.714844 C 43.519531 8.019531 44.078125 8.355469 44.625 8.71875 C 45.167969 9.082031 45.691406 9.46875 46.195312 9.882812 C 46.699219 10.296875 47.183594 10.734375 47.644531 11.199219 C 48.105469 11.660156 48.546875 12.140625 48.960938 12.648438 C 49.375 13.152344 49.761719 13.675781 50.125 14.21875 C 50.488281 14.761719 50.820312 15.324219 51.128906 15.898438 C 51.4375 16.476562 51.714844 17.066406 51.964844 17.667969 C 52.210938 18.273438 52.429688 18.886719 52.621094 19.511719 C 52.808594 20.136719 52.964844 20.769531 53.09375 21.410156 C 53.21875 22.050781 53.3125 22.695312 53.375 23.347656 C 53.4375 23.996094 53.46875 24.648438 53.464844 25.300781 Z M 53.464844 25.300781 " fill-opacity="1" fill-rule="nonzero"/></g></g></g></g><g clip-path="url(#8a65572883)"><path fill="#8c52ff" d="M 431.542969 586.8125 L 81.175781 586.8125 C 80.359375 586.804688 79.546875 586.753906 78.738281 586.664062 C 77.925781 586.578125 77.121094 586.449219 76.324219 586.285156 C 75.523438 586.117188 74.734375 585.914062 73.957031 585.671875 C 73.179688 585.429688 72.414062 585.148438 71.660156 584.832031 C 70.910156 584.515625 70.175781 584.164062 69.457031 583.777344 C 68.742188 583.386719 68.042969 582.964844 67.367188 582.511719 C 66.691406 582.054688 66.035156 581.570312 65.40625 581.050781 C 64.777344 580.53125 64.175781 579.984375 63.597656 579.410156 C 63.019531 578.832031 62.472656 578.230469 61.957031 577.597656 C 61.4375 576.96875 60.949219 576.316406 60.496094 575.640625 C 60.039062 574.960938 59.617188 574.265625 59.230469 573.546875 C 58.84375 572.832031 58.492188 572.097656 58.175781 571.34375 C 57.859375 570.59375 57.578125 569.828125 57.335938 569.050781 C 57.09375 568.269531 56.890625 567.480469 56.722656 566.683594 C 56.554688 565.886719 56.429688 565.082031 56.339844 564.269531 C 56.253906 563.457031 56.203125 562.644531 56.195312 561.832031 L 56.195312 182.539062 C 56.191406 181.867188 56.316406 181.21875 56.570312 180.597656 C 56.824219 179.972656 57.1875 179.425781 57.660156 178.949219 L 133.972656 102.785156 C 134.980469 101.828125 136.175781 101.339844 137.5625 101.320312 L 431.542969 101.320312 C 432.355469 101.328125 433.167969 101.378906 433.980469 101.464844 C 434.792969 101.554688 435.597656 101.683594 436.394531 101.847656 C 437.191406 102.015625 437.980469 102.21875 438.761719 102.460938 C 439.539062 102.703125 440.304688 102.984375 441.054688 103.300781 C 441.808594 103.617188 442.542969 103.96875 443.257812 104.355469 C 443.976562 104.742188 444.671875 105.164062 445.351562 105.621094 C 446.027344 106.074219 446.679688 106.5625 447.308594 107.082031 C 447.941406 107.597656 448.542969 108.148438 449.121094 108.722656 C 449.695312 109.300781 450.242188 109.902344 450.761719 110.53125 C 451.28125 111.164062 451.765625 111.816406 452.222656 112.492188 C 452.675781 113.167969 453.097656 113.867188 453.488281 114.582031 C 453.875 115.300781 454.226562 116.035156 454.542969 116.789062 C 454.859375 117.539062 455.140625 118.304688 455.382812 119.082031 C 455.625 119.863281 455.828125 120.648438 455.996094 121.449219 C 456.160156 122.246094 456.289062 123.050781 456.375 123.863281 C 456.464844 124.671875 456.515625 125.484375 456.523438 126.300781 L 456.523438 561.832031 C 456.515625 562.644531 456.464844 563.457031 456.375 564.269531 C 456.289062 565.082031 456.160156 565.886719 455.996094 566.683594 C 455.828125 567.480469 455.625 568.269531 455.382812 569.050781 C 455.140625 569.828125 454.859375 570.59375 454.542969 571.34375 C 454.226562 572.097656 453.875 572.832031 453.488281 573.546875 C 453.097656 574.265625 452.675781 574.964844 452.222656 575.640625 C 451.765625 576.316406 451.28125 576.96875 450.761719 577.597656 C 450.242188 578.230469 449.695312 578.832031 449.121094 579.410156 C 448.542969 579.984375 447.941406 580.53125 447.308594 581.050781 C 446.679688 581.570312 446.027344 582.054688 445.351562 582.511719 C 444.671875 582.964844 443.976562 583.386719 443.257812 583.777344 C 442.542969 584.164062 441.808594 584.515625 441.054688 584.832031 C 440.304688 585.148438 439.539062 585.429688 438.761719 585.671875 C 437.980469 585.914062 437.191406 586.117188 436.394531 586.285156 C 435.597656 586.449219 434.792969 586.578125 433.980469 586.664062 C 433.167969 586.753906 432.355469 586.804688 431.542969 586.8125 Z M 66.308594 184.761719 L 66.308594 561.832031 C 66.308594 562.804688 66.402344 563.773438 66.59375 564.730469 C 66.785156 565.6875 67.066406 566.617188 67.441406 567.519531 C 67.8125 568.421875 68.269531 569.277344 68.8125 570.089844 C 69.355469 570.902344 69.972656 571.652344 70.664062 572.34375 C 71.351562 573.035156 72.105469 573.652344 72.914062 574.191406 C 73.726562 574.734375 74.585938 575.191406 75.484375 575.566406 C 76.386719 575.941406 77.316406 576.222656 78.277344 576.414062 C 79.234375 576.601562 80.199219 576.699219 81.175781 576.699219 L 431.542969 576.699219 C 432.515625 576.699219 433.484375 576.601562 434.441406 576.414062 C 435.398438 576.222656 436.328125 575.941406 437.230469 575.566406 C 438.132812 575.191406 438.988281 574.734375 439.800781 574.191406 C 440.613281 573.652344 441.363281 573.035156 442.054688 572.34375 C 442.746094 571.652344 443.359375 570.902344 443.902344 570.089844 C 444.445312 569.277344 444.902344 568.421875 445.277344 567.519531 C 445.652344 566.617188 445.933594 565.6875 446.125 564.730469 C 446.3125 563.773438 446.410156 562.804688 446.410156 561.832031 L 446.410156 126.300781 C 446.410156 125.324219 446.3125 124.359375 446.125 123.402344 C 445.933594 122.445312 445.652344 121.515625 445.277344 120.613281 C 444.902344 119.710938 444.445312 118.851562 443.902344 118.042969 C 443.359375 117.230469 442.746094 116.476562 442.054688 115.789062 C 441.363281 115.097656 440.613281 114.480469 439.800781 113.9375 C 438.988281 113.398438 438.132812 112.9375 437.230469 112.566406 C 436.328125 112.191406 435.398438 111.910156 434.441406 111.71875 C 433.484375 111.527344 432.515625 111.433594 431.542969 111.433594 L 139.6875 111.433594 Z M 66.308594 184.761719 " fill-opacity="1" fill-rule="nonzero"/></g><path fill="#7ed957" d="M 61.25 182.691406 L 117.640625 182.691406 C 118.292969 182.691406 118.941406 182.660156 119.59375 182.597656 C 120.242188 182.535156 120.890625 182.441406 121.53125 182.316406 C 122.171875 182.1875 122.804688 182.03125 123.429688 181.84375 C 124.054688 181.65625 124.667969 181.4375 125.273438 181.1875 C 125.875 180.9375 126.464844 180.660156 127.042969 180.351562 C 127.617188 180.042969 128.175781 179.710938 128.722656 179.347656 C 129.265625 178.984375 129.789062 178.597656 130.292969 178.183594 C 130.796875 177.769531 131.28125 177.332031 131.742188 176.867188 C 132.203125 176.40625 132.644531 175.921875 133.058594 175.417969 C 133.472656 174.914062 133.859375 174.390625 134.222656 173.847656 C 134.585938 173.304688 134.917969 172.742188 135.226562 172.167969 C 135.535156 171.589844 135.8125 171 136.0625 170.398438 C 136.308594 169.792969 136.527344 169.179688 136.71875 168.554688 C 136.90625 167.929688 137.0625 167.296875 137.191406 166.65625 C 137.316406 166.015625 137.410156 165.367188 137.472656 164.71875 C 137.535156 164.070312 137.566406 163.417969 137.5625 162.765625 L 137.5625 106.375 Z M 61.25 182.691406 " fill-opacity="1" fill-rule="nonzero"/><path fill="#8c52ff" d="M 117.640625 187.746094 L 61.25 187.746094 C 60.75 187.746094 60.261719 187.667969 59.785156 187.523438 C 59.308594 187.375 58.863281 187.164062 58.449219 186.882812 C 58.035156 186.605469 57.671875 186.273438 57.355469 185.882812 C 57.039062 185.496094 56.789062 185.074219 56.597656 184.613281 C 56.40625 184.152344 56.28125 183.671875 56.230469 183.175781 C 56.179688 182.679688 56.199219 182.183594 56.292969 181.695312 C 56.386719 181.203125 56.550781 180.738281 56.785156 180.296875 C 57.015625 179.851562 57.308594 179.453125 57.660156 179.097656 L 133.972656 102.785156 C 134.328125 102.433594 134.726562 102.144531 135.171875 101.910156 C 135.613281 101.675781 136.078125 101.515625 136.570312 101.417969 C 137.058594 101.324219 137.554688 101.304688 138.050781 101.355469 C 138.546875 101.40625 139.027344 101.53125 139.484375 101.722656 C 139.949219 101.914062 140.371094 102.164062 140.757812 102.480469 C 141.144531 102.796875 141.480469 103.160156 141.757812 103.574219 C 142.039062 103.988281 142.25 104.433594 142.398438 104.910156 C 142.542969 105.390625 142.617188 105.875 142.621094 106.375 L 142.621094 162.765625 C 142.613281 163.578125 142.5625 164.394531 142.472656 165.203125 C 142.386719 166.015625 142.257812 166.820312 142.09375 167.617188 C 141.925781 168.414062 141.722656 169.203125 141.480469 169.984375 C 141.238281 170.761719 140.957031 171.527344 140.640625 172.277344 C 140.324219 173.03125 139.972656 173.765625 139.582031 174.480469 C 139.195312 175.199219 138.773438 175.898438 138.320312 176.574219 C 137.863281 177.25 137.378906 177.902344 136.859375 178.53125 C 136.339844 179.164062 135.792969 179.765625 135.21875 180.34375 C 134.640625 180.917969 134.039062 181.46875 133.40625 181.984375 C 132.777344 182.503906 132.125 182.988281 131.449219 183.445312 C 130.769531 183.902344 130.074219 184.320312 129.355469 184.710938 C 128.640625 185.097656 127.90625 185.449219 127.152344 185.765625 C 126.402344 186.082031 125.636719 186.363281 124.859375 186.605469 C 124.078125 186.847656 123.289062 187.050781 122.492188 187.21875 C 121.695312 187.382812 120.890625 187.511719 120.078125 187.601562 C 119.265625 187.6875 118.453125 187.738281 117.640625 187.746094 Z M 73.488281 177.632812 L 117.640625 177.632812 C 118.613281 177.632812 119.582031 177.539062 120.539062 177.347656 C 121.496094 177.15625 122.425781 176.875 123.328125 176.5 C 124.230469 176.128906 125.085938 175.667969 125.898438 175.125 C 126.710938 174.585938 127.460938 173.96875 128.152344 173.277344 C 128.84375 172.585938 129.457031 171.835938 130 171.023438 C 130.542969 170.210938 131 169.355469 131.375 168.453125 C 131.75 167.550781 132.03125 166.621094 132.222656 165.664062 C 132.410156 164.707031 132.507812 163.742188 132.507812 162.765625 L 132.507812 118.5625 Z M 73.488281 177.632812 " fill-opacity="1" fill-rule="nonzero"/><path fill="#8c52ff" d="M 402.96875 182.234375 L 188.542969 182.234375 C 188.210938 182.234375 187.878906 182.203125 187.554688 182.136719 C 187.230469 182.074219 186.914062 181.976562 186.605469 181.847656 C 186.300781 181.722656 186.007812 181.566406 185.730469 181.382812 C 185.457031 181.199219 185.199219 180.988281 184.964844 180.753906 C 184.730469 180.519531 184.519531 180.261719 184.335938 179.988281 C 184.152344 179.710938 183.996094 179.417969 183.867188 179.113281 C 183.742188 178.804688 183.644531 178.488281 183.582031 178.164062 C 183.515625 177.839844 183.484375 177.507812 183.484375 177.175781 C 183.484375 176.84375 183.515625 176.515625 183.582031 176.191406 C 183.644531 175.863281 183.742188 175.546875 183.867188 175.242188 C 183.996094 174.933594 184.152344 174.644531 184.335938 174.367188 C 184.519531 174.089844 184.730469 173.835938 184.964844 173.601562 C 185.199219 173.367188 185.457031 173.15625 185.730469 172.972656 C 186.007812 172.789062 186.300781 172.632812 186.605469 172.503906 C 186.914062 172.378906 187.230469 172.28125 187.554688 172.21875 C 187.878906 172.152344 188.210938 172.121094 188.542969 172.121094 L 402.96875 172.121094 C 403.300781 172.121094 403.628906 172.152344 403.953125 172.21875 C 404.28125 172.28125 404.597656 172.378906 404.902344 172.503906 C 405.210938 172.632812 405.5 172.789062 405.777344 172.972656 C 406.054688 173.15625 406.308594 173.367188 406.542969 173.601562 C 406.777344 173.835938 406.988281 174.089844 407.171875 174.367188 C 407.355469 174.644531 407.511719 174.933594 407.640625 175.242188 C 407.765625 175.546875 407.863281 175.863281 407.929688 176.191406 C 407.992188 176.515625 408.023438 176.84375 408.023438 177.175781 C 408.023438 177.507812 407.992188 177.839844 407.929688 178.164062 C 407.863281 178.488281 407.765625 178.804688 407.640625 179.113281 C 407.511719 179.417969 407.355469 179.710938 407.171875 179.988281 C 406.988281 180.261719 406.777344 180.519531 406.542969 180.753906 C 406.308594 180.988281 406.054688 181.199219 405.777344 181.382812 C 405.5 181.566406 405.210938 181.722656 404.902344 181.847656 C 404.597656 181.976562 404.28125 182.074219 403.953125 182.136719 C 403.628906 182.203125 403.300781 182.234375 402.96875 182.234375 Z M 402.96875 182.234375 " fill-opacity="1" fill-rule="nonzero"/><path fill="#8c52ff" d="M 402.96875 248.941406 L 108.6875 248.941406 C 108.355469 248.941406 108.027344 248.90625 107.699219 248.84375 C 107.375 248.777344 107.058594 248.679688 106.753906 248.554688 C 106.445312 248.425781 106.152344 248.273438 105.878906 248.085938 C 105.601562 247.902344 105.347656 247.691406 105.113281 247.457031 C 104.875 247.222656 104.667969 246.96875 104.484375 246.691406 C 104.296875 246.414062 104.140625 246.125 104.015625 245.816406 C 103.886719 245.511719 103.792969 245.195312 103.726562 244.867188 C 103.664062 244.542969 103.628906 244.214844 103.628906 243.882812 C 103.628906 243.550781 103.664062 243.222656 103.726562 242.894531 C 103.792969 242.570312 103.886719 242.253906 104.015625 241.945312 C 104.140625 241.640625 104.296875 241.347656 104.484375 241.074219 C 104.667969 240.796875 104.875 240.539062 105.113281 240.304688 C 105.347656 240.070312 105.601562 239.863281 105.878906 239.675781 C 106.152344 239.492188 106.445312 239.335938 106.753906 239.210938 C 107.058594 239.082031 107.375 238.988281 107.699219 238.921875 C 108.027344 238.855469 108.355469 238.824219 108.6875 238.824219 L 402.96875 238.824219 C 403.300781 238.824219 403.628906 238.855469 403.953125 238.921875 C 404.28125 238.988281 404.597656 239.082031 404.902344 239.210938 C 405.210938 239.335938 405.5 239.492188 405.777344 239.675781 C 406.054688 239.863281 406.308594 240.070312 406.542969 240.304688 C 406.777344 240.539062 406.988281 240.796875 407.171875 241.074219 C 407.355469 241.347656 407.511719 241.640625 407.640625 241.945312 C 407.765625 242.253906 407.863281 242.570312 407.929688 242.894531 C 407.992188 243.222656 408.023438 243.550781 408.023438 243.882812 C 408.023438 244.214844 407.992188 244.542969 407.929688 244.867188 C 407.863281 245.195312 407.765625 245.511719 407.640625 245.816406 C 407.511719 246.125 407.355469 246.414062 407.171875 246.691406 C 406.988281 246.96875 406.777344 247.222656 406.542969 247.457031 C 406.308594 247.691406 406.054688 247.902344 405.777344 248.085938 C 405.5 248.273438 405.210938 248.425781 404.902344 248.554688 C 404.597656 248.679688 404.28125 248.777344 403.953125 248.84375 C 403.628906 248.90625 403.300781 248.941406 402.96875 248.941406 Z M 402.96875 248.941406 " fill-opacity="1" fill-rule="nonzero"/><path fill="#8c52ff" d="M 266.269531 315.746094 L 108.6875 315.746094 C 108.355469 315.746094 108.027344 315.714844 107.699219 315.648438 C 107.375 315.582031 107.058594 315.488281 106.753906 315.359375 C 106.445312 315.234375 106.152344 315.078125 105.878906 314.894531 C 105.601562 314.707031 105.347656 314.5 105.113281 314.265625 C 104.875 314.03125 104.667969 313.773438 104.484375 313.496094 C 104.296875 313.222656 104.140625 312.929688 104.015625 312.625 C 103.886719 312.316406 103.792969 312 103.726562 311.675781 C 103.664062 311.347656 103.628906 311.019531 103.628906 310.6875 C 103.628906 310.355469 103.664062 310.027344 103.726562 309.703125 C 103.792969 309.375 103.886719 309.058594 104.015625 308.753906 C 104.140625 308.445312 104.296875 308.15625 104.484375 307.878906 C 104.667969 307.601562 104.875 307.347656 105.113281 307.113281 C 105.347656 306.878906 105.601562 306.667969 105.878906 306.484375 C 106.152344 306.300781 106.445312 306.144531 106.753906 306.015625 C 107.058594 305.890625 107.375 305.792969 107.699219 305.726562 C 108.027344 305.664062 108.355469 305.632812 108.6875 305.632812 L 266.269531 305.632812 C 266.601562 305.632812 266.933594 305.664062 267.257812 305.726562 C 267.582031 305.792969 267.898438 305.890625 268.207031 306.015625 C 268.511719 306.144531 268.804688 306.300781 269.082031 306.484375 C 269.355469 306.667969 269.613281 306.878906 269.847656 307.113281 C 270.082031 307.347656 270.292969 307.601562 270.476562 307.878906 C 270.660156 308.15625 270.816406 308.445312 270.941406 308.753906 C 271.070312 309.058594 271.167969 309.375 271.230469 309.703125 C 271.296875 310.027344 271.328125 310.355469 271.328125 310.6875 C 271.328125 311.019531 271.296875 311.347656 271.230469 311.675781 C 271.167969 312 271.070312 312.316406 270.941406 312.625 C 270.816406 312.929688 270.660156 313.222656 270.476562 313.496094 C 270.292969 313.773438 270.082031 314.03125 269.847656 314.265625 C 269.613281 314.5 269.355469 314.707031 269.082031 314.894531 C 268.804688 315.078125 268.511719 315.234375 268.207031 315.359375 C 267.898438 315.488281 267.582031 315.582031 267.257812 315.648438 C 266.933594 315.714844 266.601562 315.746094 266.269531 315.746094 Z M 266.269531 315.746094 " fill-opacity="1" fill-rule="nonzero"/><path fill="#8c52ff" d="M 266.269531 382.550781 L 108.6875 382.550781 C 108.355469 382.550781 108.027344 382.519531 107.699219 382.453125 C 107.375 382.390625 107.058594 382.292969 106.753906 382.167969 C 106.445312 382.039062 106.152344 381.882812 105.878906 381.699219 C 105.601562 381.515625 105.347656 381.304688 105.113281 381.070312 C 104.875 380.835938 104.667969 380.578125 104.484375 380.304688 C 104.296875 380.027344 104.140625 379.738281 104.015625 379.429688 C 103.886719 379.121094 103.792969 378.804688 103.726562 378.480469 C 103.664062 378.15625 103.628906 377.828125 103.628906 377.496094 C 103.628906 377.164062 103.664062 376.832031 103.726562 376.507812 C 103.792969 376.183594 103.886719 375.867188 104.015625 375.558594 C 104.140625 375.253906 104.296875 374.960938 104.484375 374.683594 C 104.667969 374.410156 104.875 374.152344 105.113281 373.917969 C 105.347656 373.683594 105.601562 373.472656 105.878906 373.289062 C 106.152344 373.105469 106.445312 372.949219 106.753906 372.820312 C 107.058594 372.695312 107.375 372.597656 107.699219 372.535156 C 108.027344 372.46875 108.355469 372.4375 108.6875 372.4375 L 266.269531 372.4375 C 266.601562 372.4375 266.933594 372.46875 267.257812 372.535156 C 267.582031 372.597656 267.898438 372.695312 268.207031 372.820312 C 268.511719 372.949219 268.804688 373.105469 269.082031 373.289062 C 269.355469 373.472656 269.613281 373.683594 269.847656 373.917969 C 270.082031 374.152344 270.292969 374.410156 270.476562 374.683594 C 270.660156 374.960938 270.816406 375.253906 270.941406 375.558594 C 271.070312 375.867188 271.167969 376.183594 271.230469 376.507812 C 271.296875 376.832031 271.328125 377.164062 271.328125 377.496094 C 271.328125 377.828125 271.296875 378.15625 271.230469 378.480469 C 271.167969 378.804688 271.070312 379.121094 270.941406 379.429688 C 270.816406 379.738281 270.660156 380.027344 270.476562 380.304688 C 270.292969 380.578125 270.082031 380.835938 269.847656 381.070312 C 269.613281 381.304688 269.355469 381.515625 269.082031 381.699219 C 268.804688 381.882812 268.511719 382.039062 268.207031 382.167969 C 267.898438 382.292969 267.582031 382.390625 267.257812 382.453125 C 266.933594 382.519531 266.601562 382.550781 266.269531 382.550781 Z M 266.269531 382.550781 " fill-opacity="1" fill-rule="nonzero"/><path fill="#8c52ff" d="M 266.269531 449.308594 L 108.6875 449.308594 C 108.355469 449.308594 108.027344 449.273438 107.699219 449.210938 C 107.375 449.144531 107.058594 449.050781 106.753906 448.921875 C 106.445312 448.792969 106.152344 448.640625 105.878906 448.453125 C 105.601562 448.269531 105.347656 448.058594 105.113281 447.824219 C 104.875 447.589844 104.667969 447.335938 104.484375 447.058594 C 104.296875 446.785156 104.140625 446.492188 104.015625 446.183594 C 103.886719 445.878906 103.792969 445.5625 103.726562 445.234375 C 103.664062 444.910156 103.628906 444.582031 103.628906 444.25 C 103.628906 443.917969 103.664062 443.589844 103.726562 443.261719 C 103.792969 442.9375 103.886719 442.621094 104.015625 442.3125 C 104.140625 442.007812 104.296875 441.714844 104.484375 441.441406 C 104.667969 441.164062 104.875 440.910156 105.113281 440.671875 C 105.347656 440.4375 105.601562 440.230469 105.878906 440.042969 C 106.152344 439.859375 106.445312 439.703125 106.753906 439.578125 C 107.058594 439.449219 107.375 439.355469 107.699219 439.289062 C 108.027344 439.226562 108.355469 439.191406 108.6875 439.191406 L 266.269531 439.191406 C 266.601562 439.191406 266.933594 439.226562 267.257812 439.289062 C 267.582031 439.355469 267.898438 439.449219 268.207031 439.578125 C 268.511719 439.703125 268.804688 439.859375 269.082031 440.042969 C 269.355469 440.230469 269.613281 440.4375 269.847656 440.671875 C 270.082031 440.910156 270.292969 441.164062 270.476562 441.441406 C 270.660156 441.714844 270.816406 442.007812 270.941406 442.3125 C 271.070312 442.621094 271.167969 442.9375 271.230469 443.261719 C 271.296875 443.589844 271.328125 443.917969 271.328125 444.25 C 271.328125 444.582031 271.296875 444.910156 271.230469 445.234375 C 271.167969 445.5625 271.070312 445.878906 270.941406 446.183594 C 270.816406 446.492188 270.660156 446.785156 270.476562 447.058594 C 270.292969 447.335938 270.082031 447.589844 269.847656 447.824219 C 269.613281 448.058594 269.355469 448.269531 269.082031 448.453125 C 268.804688 448.640625 268.511719 448.792969 268.207031 448.921875 C 267.898438 449.050781 267.582031 449.144531 267.257812 449.210938 C 266.933594 449.273438 266.601562 449.308594 266.269531 449.308594 Z M 266.269531 449.308594 " fill-opacity="1" fill-rule="nonzero"/><path fill="#8c52ff" d="M 402.96875 516.011719 L 108.6875 516.011719 C 108.355469 516.011719 108.027344 515.980469 107.699219 515.914062 C 107.375 515.851562 107.058594 515.753906 106.753906 515.625 C 106.445312 515.5 106.152344 515.34375 105.878906 515.160156 C 105.601562 514.976562 105.347656 514.765625 105.113281 514.53125 C 104.875 514.296875 104.667969 514.039062 104.484375 513.765625 C 104.296875 513.488281 104.140625 513.195312 104.015625 512.890625 C 103.886719 512.582031 103.792969 512.265625 103.726562 511.941406 C 103.664062 511.617188 103.628906 511.285156 103.628906 510.953125 C 103.628906 510.621094 103.664062 510.292969 103.726562 509.96875 C 103.792969 509.640625 103.886719 509.324219 104.015625 509.019531 C 104.140625 508.710938 104.296875 508.421875 104.484375 508.144531 C 104.667969 507.867188 104.875 507.613281 105.113281 507.378906 C 105.347656 507.144531 105.601562 506.933594 105.878906 506.75 C 106.152344 506.566406 106.445312 506.410156 106.753906 506.28125 C 107.058594 506.15625 107.375 506.058594 107.699219 505.996094 C 108.027344 505.929688 108.355469 505.898438 108.6875 505.898438 L 402.96875 505.898438 C 403.300781 505.898438 403.628906 505.929688 403.953125 505.996094 C 404.28125 506.058594 404.597656 506.15625 404.902344 506.28125 C 405.210938 506.410156 405.5 506.566406 405.777344 506.75 C 406.054688 506.933594 406.308594 507.144531 406.542969 507.378906 C 406.777344 507.613281 406.988281 507.867188 407.171875 508.144531 C 407.355469 508.421875 407.511719 508.710938 407.640625 509.019531 C 407.765625 509.324219 407.863281 509.640625 407.929688 509.96875 C 407.992188 510.292969 408.023438 510.621094 408.023438 510.953125 C 408.023438 511.285156 407.992188 511.617188 407.929688 511.941406 C 407.863281 512.265625 407.765625 512.582031 407.640625 512.890625 C 407.511719 513.195312 407.355469 513.488281 407.171875 513.765625 C 406.988281 514.039062 406.777344 514.296875 406.542969 514.53125 C 406.308594 514.765625 406.054688 514.976562 405.777344 515.160156 C 405.5 515.34375 405.210938 515.5 404.902344 515.625 C 404.597656 515.753906 404.28125 515.851562 403.953125 515.914062 C 403.628906 515.980469 403.300781 516.011719 402.96875 516.011719 Z M 402.96875 516.011719 " fill-opacity="1" fill-rule="nonzero"/><path fill="#dcecfb" d="M 314.871094 291.773438 L 524.644531 291.773438 C 525.277344 291.773438 525.90625 291.835938 526.527344 291.960938 C 527.152344 292.082031 527.753906 292.265625 528.339844 292.507812 C 528.925781 292.753906 529.484375 293.050781 530.011719 293.402344 C 530.539062 293.753906 531.027344 294.15625 531.476562 294.601562 C 531.921875 295.050781 532.324219 295.539062 532.675781 296.066406 C 533.027344 296.59375 533.324219 297.152344 533.570312 297.738281 C 533.8125 298.324219 533.996094 298.925781 534.117188 299.550781 C 534.242188 300.171875 534.304688 300.800781 534.304688 301.433594 L 534.304688 446.828125 C 534.304688 447.464844 534.242188 448.089844 534.117188 448.714844 C 533.996094 449.335938 533.8125 449.9375 533.570312 450.523438 C 533.324219 451.109375 533.027344 451.667969 532.675781 452.195312 C 532.324219 452.722656 531.921875 453.210938 531.476562 453.660156 C 531.027344 454.109375 530.539062 454.507812 530.011719 454.859375 C 529.484375 455.210938 528.925781 455.511719 528.339844 455.753906 C 527.753906 455.996094 527.152344 456.179688 526.527344 456.300781 C 525.90625 456.425781 525.277344 456.488281 524.644531 456.488281 L 314.871094 456.488281 C 314.238281 456.488281 313.609375 456.425781 312.988281 456.300781 C 312.363281 456.179688 311.761719 455.996094 311.175781 455.753906 C 310.589844 455.511719 310.03125 455.210938 309.503906 454.859375 C 308.976562 454.507812 308.488281 454.109375 308.039062 453.660156 C 307.59375 453.210938 307.191406 452.722656 306.839844 452.195312 C 306.488281 451.667969 306.1875 451.109375 305.945312 450.523438 C 305.703125 449.9375 305.519531 449.335938 305.398438 448.714844 C 305.273438 448.089844 305.210938 447.464844 305.210938 446.828125 L 305.210938 301.433594 C 305.210938 300.800781 305.273438 300.171875 305.398438 299.550781 C 305.519531 298.925781 305.703125 298.324219 305.945312 297.738281 C 306.1875 297.152344 306.488281 296.59375 306.839844 296.066406 C 307.191406 295.539062 307.59375 295.050781 308.039062 294.601562 C 308.488281 294.15625 308.976562 293.753906 309.503906 293.402344 C 310.03125 293.050781 310.589844 292.753906 311.175781 292.507812 C 311.761719 292.265625 312.363281 292.082031 312.988281 291.960938 C 313.609375 291.835938 314.238281 291.773438 314.871094 291.773438 Z M 314.871094 291.773438 " fill-opacity="1" fill-rule="nonzero"/><g mask="url(#81de060a88)"><g transform="matrix(1, 0, 0, 1, 504, 288)"><g clip-path="url(#34a87d56c0)"><path fill="#8c52ff" d="M 30.304688 13.433594 L 30.304688 158.777344 C 30.300781 159.410156 30.234375 160.039062 30.109375 160.660156 C 29.984375 161.28125 29.800781 161.882812 29.554688 162.46875 C 29.3125 163.050781 29.011719 163.605469 28.660156 164.132812 C 28.308594 164.660156 27.90625 165.144531 27.460938 165.59375 C 27.011719 166.042969 26.523438 166.441406 26 166.792969 C 25.472656 167.148438 24.917969 167.445312 24.332031 167.6875 C 23.75 167.933594 23.144531 168.117188 22.527344 168.242188 C 21.90625 168.371094 21.277344 168.433594 20.644531 168.4375 L 5.167969 168.4375 L 5.167969 3.773438 L 20.644531 3.773438 C 21.277344 3.773438 21.90625 3.835938 22.527344 3.960938 C 23.152344 4.082031 23.753906 4.265625 24.339844 4.507812 C 24.925781 4.753906 25.484375 5.050781 26.011719 5.402344 C 26.539062 5.753906 27.027344 6.15625 27.476562 6.601562 C 27.921875 7.050781 28.324219 7.539062 28.675781 8.066406 C 29.027344 8.59375 29.324219 9.152344 29.570312 9.738281 C 29.8125 10.324219 29.996094 10.925781 30.117188 11.550781 C 30.242188 12.171875 30.304688 12.800781 30.304688 13.433594 Z M 30.304688 13.433594 " fill-opacity="1" fill-rule="nonzero"/></g></g></g><path fill="#8c52ff" d="M 524.644531 461.496094 L 314.871094 461.496094 C 313.90625 461.496094 312.949219 461.402344 312 461.210938 C 311.050781 461.023438 310.132812 460.746094 309.238281 460.375 C 308.347656 460.003906 307.5 459.550781 306.695312 459.015625 C 305.890625 458.476562 305.148438 457.867188 304.464844 457.183594 C 303.78125 456.5 303.171875 455.757812 302.632812 454.953125 C 302.097656 454.152344 301.644531 453.304688 301.273438 452.410156 C 300.90625 451.515625 300.625 450.597656 300.4375 449.648438 C 300.25 448.703125 300.152344 447.746094 300.152344 446.777344 L 300.152344 301.433594 C 300.152344 300.46875 300.25 299.511719 300.4375 298.5625 C 300.625 297.613281 300.90625 296.695312 301.273438 295.800781 C 301.644531 294.910156 302.097656 294.0625 302.632812 293.257812 C 303.171875 292.453125 303.78125 291.710938 304.464844 291.027344 C 305.148438 290.34375 305.890625 289.734375 306.695312 289.195312 C 307.5 288.660156 308.347656 288.207031 309.238281 287.835938 C 310.132812 287.46875 311.050781 287.1875 312 287 C 312.949219 286.8125 313.90625 286.71875 314.871094 286.71875 L 524.644531 286.71875 C 525.609375 286.71875 526.566406 286.8125 527.515625 287 C 528.464844 287.1875 529.382812 287.46875 530.277344 287.835938 C 531.167969 288.207031 532.015625 288.660156 532.820312 289.195312 C 533.625 289.734375 534.367188 290.34375 535.050781 291.027344 C 535.734375 291.710938 536.34375 292.453125 536.882812 293.257812 C 537.417969 294.0625 537.871094 294.910156 538.242188 295.800781 C 538.609375 296.695312 538.890625 297.613281 539.078125 298.5625 C 539.265625 299.511719 539.359375 300.46875 539.363281 301.433594 L 539.363281 446.777344 C 539.359375 447.746094 539.265625 448.703125 539.078125 449.648438 C 538.890625 450.597656 538.609375 451.515625 538.242188 452.410156 C 537.871094 453.304688 537.417969 454.152344 536.882812 454.953125 C 536.34375 455.757812 535.734375 456.5 535.050781 457.183594 C 534.367188 457.867188 533.625 458.476562 532.820312 459.015625 C 532.015625 459.550781 531.167969 460.003906 530.277344 460.375 C 529.382812 460.746094 528.464844 461.023438 527.515625 461.210938 C 526.566406 461.402344 525.609375 461.496094 524.644531 461.496094 Z M 314.871094 296.832031 C 314.570312 296.832031 314.269531 296.859375 313.972656 296.917969 C 313.675781 296.980469 313.390625 297.066406 313.109375 297.183594 C 312.832031 297.296875 312.566406 297.4375 312.3125 297.605469 C 312.0625 297.773438 311.832031 297.964844 311.617188 298.179688 C 311.402344 298.394531 311.210938 298.625 311.042969 298.875 C 310.875 299.128906 310.734375 299.394531 310.617188 299.671875 C 310.503906 299.953125 310.417969 300.238281 310.355469 300.535156 C 310.296875 300.832031 310.269531 301.132812 310.269531 301.433594 L 310.269531 446.777344 C 310.265625 447.082031 310.292969 447.382812 310.347656 447.679688 C 310.40625 447.976562 310.492188 448.265625 310.605469 448.546875 C 310.71875 448.828125 310.859375 449.09375 311.027344 449.347656 C 311.195312 449.601562 311.386719 449.832031 311.601562 450.046875 C 311.816406 450.261719 312.050781 450.453125 312.300781 450.621094 C 312.554688 450.789062 312.820312 450.929688 313.101562 451.042969 C 313.382812 451.160156 313.671875 451.242188 313.96875 451.300781 C 314.265625 451.355469 314.566406 451.382812 314.871094 451.378906 L 524.644531 451.378906 C 524.945312 451.378906 525.246094 451.351562 525.542969 451.292969 C 525.839844 451.234375 526.125 451.144531 526.40625 451.03125 C 526.683594 450.914062 526.949219 450.773438 527.203125 450.605469 C 527.453125 450.4375 527.683594 450.246094 527.898438 450.03125 C 528.113281 449.820312 528.304688 449.585938 528.472656 449.335938 C 528.640625 449.082031 528.78125 448.820312 528.898438 448.539062 C 529.011719 448.261719 529.097656 447.972656 529.160156 447.675781 C 529.21875 447.378906 529.246094 447.082031 529.246094 446.777344 L 529.246094 301.433594 C 529.246094 301.132812 529.21875 300.832031 529.160156 300.535156 C 529.097656 300.238281 529.011719 299.953125 528.898438 299.671875 C 528.78125 299.394531 528.640625 299.128906 528.472656 298.875 C 528.304688 298.625 528.113281 298.394531 527.898438 298.179688 C 527.683594 297.964844 527.453125 297.773438 527.203125 297.605469 C 526.949219 297.4375 526.683594 297.296875 526.40625 297.183594 C 526.125 297.066406 525.839844 296.980469 525.542969 296.917969 C 525.246094 296.859375 524.945312 296.832031 524.644531 296.832031 Z M 314.871094 296.832031 " fill-opacity="1" fill-rule="nonzero"/><path fill="#8c52ff" d="M 410.957031 404.398438 C 411.171875 404.992188 411.324219 405.597656 411.414062 406.21875 C 411.425781 406.628906 411.292969 406.984375 411.007812 407.28125 C 410.601562 407.574219 410.144531 407.726562 409.644531 407.738281 L 407.0625 407.738281 C 406.222656 407.796875 405.378906 407.796875 404.535156 407.738281 C 404.046875 407.808594 403.558594 407.808594 403.070312 407.738281 C 402.785156 407.660156 402.550781 407.507812 402.359375 407.28125 C 402.175781 407.03125 402.023438 406.761719 401.90625 406.472656 L 396.191406 390.238281 L 368.578125 390.238281 L 363.117188 406.269531 C 363.023438 406.558594 362.886719 406.828125 362.710938 407.078125 C 362.5 407.320312 362.25 407.507812 361.953125 407.636719 C 361.5 407.832031 361.027344 407.949219 360.539062 407.988281 L 358.210938 407.988281 C 357.386719 408.050781 356.558594 408.050781 355.734375 407.988281 C 355.242188 407.988281 354.804688 407.839844 354.417969 407.535156 C 354.125 407.238281 354.007812 406.882812 354.0625 406.472656 C 354.109375 405.84375 354.242188 405.238281 354.46875 404.652344 L 376.921875 342.550781 C 377.019531 342.191406 377.1875 341.871094 377.429688 341.589844 C 377.730469 341.339844 378.066406 341.152344 378.441406 341.03125 C 378.96875 340.878906 379.507812 340.792969 380.058594 340.777344 C 380.917969 340.722656 381.777344 340.722656 382.636719 340.777344 C 383.546875 340.71875 384.457031 340.71875 385.367188 340.777344 C 385.96875 340.796875 386.558594 340.878906 387.136719 341.03125 C 387.53125 341.140625 387.871094 341.339844 388.148438 341.636719 C 388.421875 341.914062 388.625 342.234375 388.757812 342.597656 Z M 382.183594 349.578125 L 370.601562 382.90625 L 393.863281 382.90625 Z M 382.183594 349.578125 " fill-opacity="1" fill-rule="nonzero"/><path fill="#8c52ff" d="M 463.199219 360.25 C 463.253906 363.394531 462.695312 366.429688 461.53125 369.351562 C 460.453125 371.996094 458.871094 374.289062 456.777344 376.230469 C 454.566406 378.214844 452.054688 379.679688 449.242188 380.628906 C 445.765625 381.71875 442.210938 382.226562 438.570312 382.148438 L 430.984375 382.148438 L 430.984375 406.21875 C 431.066406 406.472656 431.066406 406.726562 430.984375 406.976562 C 430.785156 407.214844 430.53125 407.367188 430.226562 407.433594 C 429.804688 407.609375 429.367188 407.710938 428.910156 407.738281 C 428.1875 407.796875 427.460938 407.796875 426.738281 407.738281 C 426.027344 407.796875 425.320312 407.796875 424.613281 407.738281 C 424.140625 407.707031 423.6875 407.605469 423.246094 407.433594 C 422.945312 407.382812 422.710938 407.230469 422.539062 406.976562 C 422.457031 406.726562 422.457031 406.472656 422.539062 406.21875 L 422.539062 344.519531 C 422.484375 343.96875 422.546875 343.433594 422.734375 342.910156 C 422.921875 342.386719 423.210938 341.929688 423.601562 341.539062 C 424.308594 340.964844 425.117188 340.675781 426.027344 340.675781 L 440.339844 340.675781 C 441.722656 340.597656 443.105469 340.597656 444.488281 340.675781 C 446.074219 340.820312 447.640625 341.074219 449.191406 341.4375 C 451.121094 342.023438 452.90625 342.898438 454.550781 344.066406 C 456.496094 345.070312 458.183594 346.402344 459.609375 348.0625 C 460.964844 349.710938 461.976562 351.546875 462.644531 353.574219 C 463.183594 355.769531 463.367188 357.996094 463.199219 360.25 Z M 453.84375 361.007812 C 453.929688 358.601562 453.421875 356.324219 452.328125 354.179688 C 451.417969 352.484375 450.152344 351.121094 448.535156 350.085938 C 447.097656 349.203125 445.546875 348.628906 443.878906 348.363281 C 442.335938 348.148438 440.785156 348.03125 439.226562 348.011719 L 430.984375 348.011719 L 430.984375 374.8125 L 439.027344 374.8125 C 441.316406 374.898438 443.539062 374.558594 445.703125 373.800781 C 447.386719 373.152344 448.867188 372.191406 450.152344 370.917969 C 451.398438 369.660156 452.308594 368.195312 452.882812 366.519531 C 453.546875 364.742188 453.867188 362.90625 453.84375 361.007812 Z M 453.84375 361.007812 " fill-opacity="1" fill-rule="nonzero"/><path fill="#8c52ff" d="M 485.652344 406.167969 C 485.738281 406.421875 485.738281 406.675781 485.652344 406.925781 C 485.464844 407.152344 485.230469 407.304688 484.945312 407.382812 C 484.488281 407.558594 484.019531 407.660156 483.53125 407.6875 C 482.820312 407.746094 482.113281 407.746094 481.40625 407.6875 C 480.699219 407.742188 479.988281 407.742188 479.28125 407.6875 C 478.808594 407.660156 478.355469 407.5625 477.914062 407.382812 C 477.609375 407.316406 477.359375 407.164062 477.15625 406.925781 C 477.097656 406.675781 477.097656 406.421875 477.15625 406.167969 L 477.15625 342.042969 C 477.078125 341.789062 477.078125 341.539062 477.15625 341.285156 C 477.359375 341.046875 477.609375 340.894531 477.914062 340.828125 C 478.375 340.660156 478.84375 340.558594 479.332031 340.527344 C 480.007812 340.464844 480.679688 340.464844 481.355469 340.527344 C 482.0625 340.464844 482.769531 340.464844 483.480469 340.527344 C 483.96875 340.550781 484.4375 340.652344 484.894531 340.828125 C 485.179688 340.90625 485.414062 341.058594 485.601562 341.285156 C 485.6875 341.539062 485.6875 341.789062 485.601562 342.042969 Z M 485.652344 406.167969 " fill-opacity="1" fill-rule="nonzero"/><g clip-path="url(#a3cd9df6eb)"><path fill="#8c52ff" d="M 1137.105469 177.421875 C 1129.898438 177.421875 1124.113281 183.21875 1124.113281 190.414062 L 1124.113281 339.957031 C 1124.113281 353.238281 1134.804688 363.914062 1148.070312 363.914062 L 1335.035156 363.914062 C 1348.3125 363.914062 1358.992188 353.238281 1358.992188 339.957031 L 1358.992188 190.414062 C 1358.992188 183.21875 1353.207031 177.421875 1346 177.421875 Z M 1145.132812 189.921875 L 1238.324219 189.921875 C 1240.179688 189.921875 1241.972656 191.199219 1242.589844 192.957031 L 1244.09375 197.222656 L 1244.09375 197.246094 C 1244.566406 198.609375 1244.335938 200.164062 1243.503906 201.34375 C 1242.671875 202.527344 1241.238281 203.273438 1239.804688 203.273438 L 1146.648438 203.273438 C 1144.792969 203.273438 1143 201.996094 1142.382812 200.238281 L 1140.867188 195.945312 C 1140.394531 194.585938 1140.613281 193.03125 1141.433594 191.847656 C 1142.25 190.667969 1143.699219 189.921875 1145.132812 189.921875 Z M 1292.710938 189.921875 L 1299.699219 189.921875 C 1301.554688 189.921875 1303.351562 191.199219 1303.964844 192.957031 L 1305.472656 197.222656 L 1305.472656 197.246094 C 1305.941406 198.609375 1305.726562 200.164062 1304.90625 201.34375 C 1304.085938 202.527344 1302.628906 203.273438 1301.179688 203.273438 L 1291.203125 203.273438 C 1289.769531 203.273438 1288.335938 202.515625 1287.503906 201.34375 C 1286.671875 200.175781 1286.46875 198.609375 1286.9375 197.246094 L 1286.9375 197.210938 L 1288.445312 192.945312 C 1289.058594 191.199219 1290.855469 189.921875 1292.710938 189.921875 Z M 1324.71875 189.921875 L 1337.601562 189.921875 C 1339.457031 189.921875 1341.25 191.199219 1341.867188 192.957031 L 1343.371094 197.222656 L 1343.371094 197.246094 C 1343.84375 198.609375 1343.625 200.164062 1342.804688 201.34375 C 1341.988281 202.527344 1340.527344 203.273438 1339.082031 203.273438 L 1323.234375 203.273438 C 1321.800781 203.273438 1320.367188 202.515625 1319.535156 201.34375 C 1318.703125 200.175781 1318.5 198.609375 1318.96875 197.246094 L 1318.96875 197.210938 L 1320.476562 192.945312 C 1321.089844 191.199219 1322.863281 189.921875 1324.71875 189.921875 Z M 1138.9375 215.335938 L 1344.167969 215.335938 L 1344.167969 339.945312 C 1344.167969 345.261719 1340.359375 349.054688 1335.035156 349.054688 L 1148.070312 349.054688 C 1142.757812 349.054688 1138.9375 345.261719 1138.9375 339.945312 Z M 910.855469 225.652344 C 905.664062 225.652344 901.46875 229.847656 901.46875 235.039062 L 901.46875 299.417969 L 914.808594 299.417969 L 914.808594 239.015625 L 1118.582031 239.015625 L 1118.582031 225.652344 Z M 1248.085938 233.75 C 1246.953125 233.726562 1245.832031 234.484375 1245.445312 235.535156 L 1245.46875 235.535156 L 1238.179688 255.613281 L 1238.152344 255.613281 C 1238.152344 255.613281 1238.140625 255.636719 1238.128906 255.660156 C 1238.105469 255.695312 1238.105469 255.730469 1238.105469 255.730469 L 1236.347656 260.578125 L 1236.308594 260.578125 L 1233.765625 267.398438 L 1233.765625 267.46875 L 1233.71875 267.566406 L 1233.742188 267.566406 L 1233.742188 267.589844 L 1233.71875 267.613281 L 1231.960938 272.484375 L 1230.199219 277.21875 L 1230.199219 277.316406 L 1230.152344 277.414062 L 1230.175781 277.414062 L 1230.175781 277.4375 C 1230.175781 277.4375 1230.152344 277.472656 1230.152344 277.484375 L 1222.222656 299.117188 C 1221.921875 299.9375 1222.054688 300.875 1222.546875 301.585938 C 1223.042969 302.296875 1223.886719 302.753906 1224.765625 302.769531 L 1229.800781 302.816406 C 1230.921875 302.828125 1232.03125 302.070312 1232.417969 301.03125 L 1239.757812 280.90625 L 1241.566406 276.015625 L 1243.347656 271.097656 L 1245.867188 264.109375 L 1246.011719 263.804688 L 1255.664062 237.460938 C 1255.964844 236.644531 1255.832031 235.703125 1255.339844 234.992188 C 1254.84375 234.28125 1254 233.824219 1253.121094 233.8125 Z M 1208.472656 244.742188 C 1207.699219 244.777344 1206.90625 245.113281 1206.351562 245.65625 L 1190.300781 261.683594 L 1190.226562 261.757812 L 1185.804688 266.15625 C 1183.78125 268.179688 1183.78125 271.496094 1185.804688 273.519531 L 1190.273438 277.992188 L 1193.433594 281.171875 L 1206.304688 294.042969 C 1207.21875 294.945312 1208.773438 295.210938 1209.929688 294.65625 L 1213.785156 292.824219 C 1214.691406 292.390625 1215.414062 291.5 1215.570312 290.523438 C 1215.726562 289.546875 1215.378906 288.449219 1214.679688 287.753906 L 1201.519531 274.566406 L 1197.636719 270.664062 L 1197.167969 270.195312 C 1196.976562 270.011719 1196.976562 269.710938 1197.167969 269.53125 L 1200.652344 266.046875 C 1200.433594 266.203125 1200.375 266.386719 1200.953125 265.746094 L 1214.703125 252.019531 C 1215.414062 251.308594 1215.761719 250.210938 1215.59375 249.222656 C 1215.425781 248.234375 1214.726562 247.355469 1213.835938 246.921875 L 1209.980469 245.066406 C 1209.507812 244.824219 1208.992188 244.71875 1208.472656 244.742188 Z M 1267.171875 244.742188 C 1266.65625 244.730469 1266.148438 244.824219 1265.691406 245.042969 L 1261.835938 246.898438 C 1260.941406 247.332031 1260.230469 248.210938 1260.074219 249.199219 C 1259.917969 250.1875 1260.269531 251.296875 1260.96875 251.996094 L 1274.691406 265.722656 C 1275.285156 266.359375 1275.210938 266.179688 1274.996094 266.023438 L 1278.03125 269.035156 L 1278.476562 269.507812 C 1278.671875 269.6875 1278.671875 269.988281 1278.476562 270.167969 L 1278.03125 270.640625 L 1274.125 274.542969 L 1260.992188 287.726562 C 1260.28125 288.4375 1259.929688 289.523438 1260.097656 290.5 C 1260.269531 291.476562 1260.953125 292.367188 1261.859375 292.800781 L 1265.738281 294.632812 C 1266.894531 295.1875 1268.4375 294.921875 1269.34375 294.019531 L 1282.214844 281.148438 L 1285.371094 277.964844 L 1289.867188 273.496094 C 1291.890625 271.472656 1291.890625 268.15625 1289.867188 266.132812 L 1285.417969 261.734375 L 1285.394531 261.710938 L 1285.371094 261.683594 L 1285.347656 261.660156 L 1269.292969 245.632812 C 1268.753906 245.089844 1267.980469 244.753906 1267.199219 244.71875 L 1267.171875 244.71875 Z M 980.910156 266.625 C 977.933594 266.625 975.546875 269.023438 975.546875 271.988281 L 975.546875 318.878906 C 975.546875 321.855469 977.945312 324.242188 980.910156 324.242188 L 1054.554688 324.242188 C 1057.53125 324.242188 1059.917969 321.84375 1059.917969 318.878906 L 1059.917969 271.988281 C 1059.917969 269.011719 1057.519531 266.625 1054.554688 266.625 Z M 1081.984375 271.167969 C 1078.585938 271.167969 1075.863281 273.867188 1075.863281 277.265625 C 1075.863281 280.664062 1078.585938 283.414062 1081.984375 283.414062 L 1118.582031 283.414062 L 1118.582031 271.167969 Z M 847.878906 304.058594 C 837.273438 304.058594 828.742188 312.566406 828.742188 323.15625 L 828.742188 490.464844 C 828.742188 501.058594 837.273438 509.578125 847.878906 509.578125 L 933.707031 509.578125 C 944.300781 509.578125 952.84375 501.058594 952.84375 490.464844 L 952.84375 323.171875 C 952.84375 312.578125 944.3125 304.058594 933.707031 304.058594 Z M 1081.984375 307.46875 C 1078.585938 307.46875 1075.863281 310.191406 1075.863281 313.589844 C 1075.863281 316.988281 1078.585938 319.710938 1081.984375 319.710938 L 1118.582031 319.710938 L 1118.582031 307.46875 Z M 874.898438 311.371094 L 906.652344 311.371094 C 907.894531 311.371094 908.894531 312.371094 908.894531 313.613281 C 908.894531 314.855469 907.894531 315.855469 906.652344 315.855469 L 874.898438 315.855469 C 873.65625 315.855469 872.65625 314.855469 872.65625 313.613281 C 872.65625 312.371094 873.65625 311.371094 874.898438 311.371094 Z M 1174.199219 318.710938 C 1171.355469 318.710938 1169.039062 321 1169.039062 323.84375 C 1169.039062 326.6875 1171.34375 328.980469 1174.199219 328.980469 L 1201.554688 328.980469 C 1204.398438 328.980469 1206.6875 326.6875 1206.6875 323.84375 C 1206.6875 321 1204.410156 318.710938 1201.554688 318.710938 Z M 1222.1875 318.710938 C 1219.34375 318.710938 1217.050781 321 1217.050781 323.84375 C 1217.050781 326.6875 1219.332031 328.980469 1222.1875 328.980469 L 1320.210938 328.980469 C 1323.054688 328.980469 1325.34375 326.6875 1325.34375 323.84375 C 1325.34375 321 1323.066406 318.710938 1320.210938 318.710938 Z M 841.730469 324.21875 L 939.816406 324.21875 C 943.105469 324.21875 945.769531 326.882812 945.769531 330.171875 L 945.769531 470.53125 C 945.769531 473.820312 943.105469 476.460938 939.816406 476.460938 L 841.730469 476.460938 C 838.441406 476.460938 835.804688 473.820312 835.804688 470.53125 L 835.804688 330.183594 C 835.804688 326.894531 838.441406 324.21875 841.730469 324.21875 Z M 847.011719 342.980469 C 845.527344 342.980469 844.324219 344.1875 844.324219 345.667969 L 844.324219 369.109375 C 844.324219 370.589844 845.527344 371.796875 847.011719 371.796875 L 883.851562 371.796875 C 885.332031 371.796875 886.539062 370.589844 886.539062 369.109375 L 886.539062 345.667969 C 886.539062 344.1875 885.332031 342.980469 883.851562 342.980469 Z M 981.429688 343.644531 C 978.453125 343.644531 976.066406 346.042969 976.066406 349.007812 L 976.066406 379.4375 C 976.066406 382.402344 978.464844 384.800781 981.429688 384.800781 L 1090.058594 384.800781 C 1093.035156 384.800781 1095.421875 382.402344 1095.421875 379.4375 L 1095.421875 349.007812 C 1095.421875 346.03125 1093.023438 343.644531 1090.058594 343.644531 Z M 897.539062 345.246094 C 895.839844 345.246094 894.480469 346.609375 894.480469 348.308594 C 894.480469 350.007812 895.839844 351.371094 897.539062 351.371094 L 935.226562 351.371094 C 936.925781 351.371094 938.285156 350.007812 938.285156 348.308594 C 938.285156 346.609375 936.925781 345.246094 935.226562 345.246094 Z M 897.539062 363.386719 C 895.839844 363.386719 894.480469 364.769531 894.480469 366.46875 C 894.480469 368.167969 895.839844 369.53125 897.539062 369.53125 L 935.226562 369.53125 C 936.925781 369.53125 938.285156 368.167969 938.285156 366.46875 C 938.285156 364.769531 936.925781 363.386719 935.226562 363.386719 Z M 1228.777344 369.457031 L 1228.777344 454.527344 L 957.421875 454.527344 L 957.421875 467.90625 L 1044.394531 467.90625 L 1044.394531 504.3125 C 1034.394531 505.769531 1024.414062 507.300781 1014.414062 508.660156 C 1002.699219 510.265625 991.007812 511.769531 979.574219 514.363281 C 977.136719 514.914062 974.910156 515.519531 973.246094 516.785156 C 971.316406 518.265625 970.113281 520.699219 968.894531 523.328125 C 968.617188 523.847656 968.378906 524.664062 968.378906 525.253906 C 968.378906 526.738281 969.292969 528.085938 970.65625 528.640625 C 973.136719 529.800781 975.65625 530.882812 978.257812 531.703125 C 983.320312 533.316406 988.5625 534.210938 993.839844 534.59375 C 994.347656 534.667969 994.878906 534.65625 995.394531 534.667969 C 996.457031 534.667969 997.554688 534.558594 998.578125 534.292969 C 1004.167969 532.992188 1009.773438 531.679688 1015.390625 530.523438 C 1026.765625 528.171875 1038.226562 526.230469 1049.710938 524.472656 L 1093.9375 524.472656 C 1105.421875 526.230469 1116.871094 528.171875 1128.261719 530.523438 C 1133.863281 531.679688 1139.480469 532.980469 1145.070312 534.292969 C 1146.09375 534.558594 1147.191406 534.667969 1148.253906 534.667969 C 1148.769531 534.65625 1149.289062 534.667969 1149.808594 534.59375 C 1155.085938 534.210938 1160.328125 533.316406 1165.390625 531.703125 C 1168.003906 530.882812 1170.523438 529.800781 1172.992188 528.640625 C 1174.355469 528.085938 1175.269531 526.738281 1175.269531 525.253906 C 1175.269531 524.664062 1175.019531 523.847656 1174.753906 523.328125 C 1173.523438 520.699219 1172.332031 518.265625 1170.402344 516.785156 C 1168.726562 515.519531 1166.511719 514.914062 1164.074219 514.363281 C 1152.640625 511.769531 1140.960938 510.265625 1129.234375 508.660156 C 1119.234375 507.300781 1109.253906 505.769531 1099.253906 504.3125 L 1099.253906 467.90625 L 1232.78125 467.90625 C 1237.984375 467.90625 1242.167969 463.710938 1242.167969 458.515625 L 1242.167969 369.472656 L 1228.777344 369.472656 Z M 847.011719 384.316406 C 845.527344 384.316406 844.324219 385.523438 844.324219 387.003906 L 844.324219 410.445312 C 844.324219 411.925781 845.527344 413.132812 847.011719 413.132812 L 902.636719 413.132812 C 904.121094 413.132812 905.324219 411.925781 905.324219 410.445312 L 905.324219 387.003906 C 905.324219 385.523438 904.121094 384.316406 902.636719 384.316406 Z M 988.25 411.167969 C 984.851562 411.167969 982.128906 413.902344 982.128906 417.289062 C 982.128906 420.675781 984.851562 423.410156 988.25 423.410156 L 1178.550781 423.410156 C 1181.9375 423.410156 1184.695312 420.675781 1184.695312 417.289062 C 1184.695312 413.902344 1181.9375 411.167969 1178.550781 411.167969 Z M 847.011719 425.664062 C 845.515625 425.664062 844.324219 426.871094 844.324219 428.351562 L 844.324219 451.792969 C 844.324219 453.273438 845.515625 454.480469 847.011719 454.480469 L 883.851562 454.480469 C 885.34375 454.480469 886.539062 453.273438 886.539062 451.792969 L 886.539062 428.351562 C 886.539062 426.871094 885.332031 425.664062 883.851562 425.664062 Z M 897.539062 427.929688 C 895.839844 427.929688 894.480469 429.292969 894.480469 430.992188 C 894.480469 432.691406 895.839844 434.054688 897.539062 434.054688 L 935.226562 434.054688 C 936.925781 434.054688 938.285156 432.691406 938.285156 430.992188 C 938.285156 429.292969 936.925781 427.929688 935.226562 427.929688 Z M 897.539062 446.078125 C 895.839844 446.078125 894.480469 447.441406 894.480469 449.140625 C 894.480469 450.839844 895.839844 452.203125 897.539062 452.203125 L 935.226562 452.203125 C 936.925781 452.203125 938.285156 450.839844 938.285156 449.140625 C 938.285156 447.441406 936.925781 446.078125 935.226562 446.078125 Z M 881.8125 487.199219 L 899.722656 487.199219 C 901.347656 487.199219 902.664062 488.488281 902.664062 490.113281 L 902.664062 493.921875 C 902.664062 495.550781 901.347656 496.839844 899.722656 496.839844 L 881.8125 496.839844 C 880.1875 496.839844 878.898438 495.550781 878.898438 493.921875 L 878.898438 490.113281 C 878.898438 488.488281 880.199219 487.199219 881.8125 487.199219 Z M 881.8125 487.199219 " fill-opacity="1" fill-rule="nonzero"/></g><path stroke-linecap="butt" transform="matrix(0.75, 0, 0, 0.75, 564.616034, 403.5)" fill="none" stroke-linejoin="miter" d="M 0.00153824 2.000001 L 295.82447 2.000001 " stroke="#000000" stroke-width="4" stroke-opacity="1" stroke-miterlimit="4"/><path stroke-linecap="round" transform="matrix(0.75, 0, 0, 0.75, 564.616034, 403.5)" fill="none" stroke-linejoin="round" d="M 287.824469 -4 L 295.82447 2.000001 L 287.824469 8.000001 " stroke="#000000" stroke-width="4" stroke-opacity="1" stroke-miterlimit="4"/></svg>